<svg xmlns="http://www.w3.org/2000/svg" viewBox="0 0 300 300">
  <title>exp</title>
  <g>
    <path d="M185.683,211.261H177.6V209.35c0-2.688,1.893-3.216,2.44-3.216a3.637,3.637,0,0,1,2.682.528l-1.072-4.571a12.108,12.108,0,0,0-2.7-.275c-3.507,0-7.284,2.708-7.284,8.36v1.085h-3.508l.82,4.033h2.688v19.391H177.6V215.294h7.81v19.391h6.217V215.294h6.449v19.391h6.213V211.261H191.627V209.35c0-2.688,1.879-3.216,2.409-3.216a3.728,3.728,0,0,1,2.719.528l-1.089-4.571a12.252,12.252,0,0,0-2.709-.275c-3.488,0-7.273,2.708-7.273,8.36v1.085ZM71.635,224.179c0-.529-6.478-22.9-6.478-22.9H57.081l-3.242,33.685h6.2l1.9-23.45h.254l6.486,23.45H74.6l6.478-23.45h.279l1.868,23.45H89.43l-2.954-33.685H78.121s-6.2,22.368-6.486,22.9m53.376,7.02c-1.609,0-2.428-1.9-2.428-5.131V215.3h5.4l-1.073-4.033h-4.33V205.85h-6.2v5.412h-3.5l.822,4.033h2.676v12.4c0,5.131,2.173,7.826,6.757,7.826a11.447,11.447,0,0,0,5.917-1.639l-1.075-3.752a5.364,5.364,0,0,1-2.973,1.073m95.176-.828c-3.765,0-6.188-3.214-6.188-7.791,0-5.127,3.24-7.285,6.188-7.285a9.24,9.24,0,0,1,4.043,1.064l-1.338-5.373a11.532,11.532,0,0,0-3.231-.536c-7.81,0-12.116,6.2-12.116,12.405,0,4.3,2.675,12.385,11.859,12.385a10.99,10.99,0,0,0,6.188-2.154l-1.361-4.036a6.885,6.885,0,0,1-4.044,1.321M151.73,201.535c-8.382,0-14.856,7.029-14.856,16.447,0,10.26,6.214,17.535,14.856,17.535,8.59,0,14.805-7.275,14.805-17.535,0-9.418-6.456-16.447-14.805-16.447m0,5.128c5.918,0,7.811,6.2,7.811,11.319,0,2.974-.563,12.145-7.811,12.145-7.557,0-8.1-9.171-8.1-12.145,0-5.12,2.149-11.319,8.1-11.319m-42.884,6.462a7.973,7.973,0,0,0-5.942-2.418c-6.454,0-11.054,4.859-11.054,11.873,0,7.547,4.873,12.938,11.35,12.938a15.385,15.385,0,0,0,8.61-2.971l-1.868-3.776a9.451,9.451,0,0,1-5.681,2.167,6.778,6.778,0,0,1-4.051-1.639,7.668,7.668,0,0,1-1.6-5.119h13.195s.824-7.266-2.963-11.055m-5.942,1.626a2.945,2.945,0,0,1,2.155.815c.825.793,1.088,2.174,1.088,4.042v.538H98.615a6.331,6.331,0,0,1,1.31-4.3,3.708,3.708,0,0,1,2.979-1.09m140.205-1.626a7.937,7.937,0,0,0-5.936-2.418c-6.456,0-11.045,4.859-11.045,11.873,0,7.547,4.871,12.938,11.326,12.938a15.5,15.5,0,0,0,8.631-2.971l-1.873-3.776a9.51,9.51,0,0,1-5.686,2.167,6.741,6.741,0,0,1-4.041-1.639,7.742,7.742,0,0,1-1.621-5.119h13.221s.807-7.266-2.976-11.055m-5.936,1.626a3.007,3.007,0,0,1,2.162.815c.819.793,1.1,2.174,1.1,4.042v.538h-7.572a6.2,6.2,0,0,1,1.373-4.3,3.565,3.565,0,0,1,2.935-1.09"/>
    <path d="M163.659,161.939c-25.856,5.862-49.545-16.595-81.018-13.2-10.253,1-19.769,5.868-28.8,11.975V188.28c7.571-8.529,23.187-22.938,46.632-24.877,31.483-2.686,55.144,19.268,81.253,13.185,20.747-4.638,38.57-28.309,64.438-29.778V134.849c-36.365-12.434-57.107,21.467-82.5,27.09m-10-8.547c26.358-5.851,47.833-42.455,87.111-25.142a35.994,35.994,0,0,0,5.39,2.207v-8.544a89.235,89.235,0,0,1-23.192-6.592c-39.3-17.564-60.782,19.292-87.125,24.891-25.871,6.109-49.542-16.351-80.768-12.92H53.838V146.07a56.007,56.007,0,0,1,19.054-5.858c31.225-3.41,54.9,19.038,80.768,13.18M125.835,130.2c26.37-5.833,47.586-42.445,86.893-24.876,10.975,4.887,22.455,6.837,33.434,7.565V99.227c-15.391,1.467-33.934.723-51.252-7.074-39.295-17.341-60.515,19.27-86.866,25.129-18.079,4.144-35.152-5.614-54.206-10.734V116.8c26.847.969,48.572,18.792,72,13.4M92.15,107.035c-12.916,2.917-25.378-.971-38.312-5.368V93.85a47.509,47.509,0,0,0,20.257.259c26.608-5.884,47.853-42.473,87.127-24.888,37.107,16.33,79.55,1.446,84.939-.508V86.775c-17.1,3.665-43.212,5.864-67.121-4.628-39.291-17.567-60.531,19.029-86.89,24.888"/>
  </g>
</svg>
