<svg xmlns="http://www.w3.org/2000/svg" viewBox="0 0 300 300">
  <title>exp</title>
  <g>
    <path d="M2.678,232.42H0V67.709H2.678Z"/>
    <path d="M28.107,69.964c-.031-1.05.765-.732,1.11-.5a3.584,3.584,0,0,1,1.265,1.486,5.927,5.927,0,0,1,.043,1.96l2.653.15.242,1.755,1.59.875L34,76.113l2.2,2.427-.819.426,1.267,1.768-1.051.421c1.38.886.1,3.195,2.187,3.7l-2.568,3.958-1.256-.935c2.036,2.454,4.406,4.753,4.119,8.243l-.444.219-.519-.745-.728.875-2.209-.672.692-2.675a6.128,6.128,0,0,0-5.091-.909c1.031,1.175,2.292,2.118,2.855,3.374.78,1.741-1.409,2.266-2.038,3.446.841,2.216,2.194,3,4.387,2.585,1.018-.193,1.918.6,2.184,2.041l-1.037-.136-.572.928a12.036,12.036,0,0,1-1.818-.168,16.414,16.414,0,0,1-1.8-.713c-1.161.862-1.427-.2-1.746-1.021-2.232.129-1.5-2.224-2.624-2.931,1.731-1.915,1.807-2.587.382-4.162-.056.479-.109.84-.138,1.2-.228,2.9-1.993,4.591-4.484,5.71-1.907.856-2.334,1.921-1.441,3.79.452.944.966,1.519,2.234.873.575-.292,1.58.115,2.324.386.235.085.256.758.476,1.505l-1.2-.518-.32,1.215-4.882.562-.157-1.738-.941.161v-2.122l-.713.326c-1.219-1.775.3-3.274.426-4.892,1.93-.139,2.563-.712,2.908-2.575.11-.591.19-1.19.337-1.771.143-.566.355-1.114.636-1.972-1.568,1.438-2.03,4.048-4.918,3.147l.862-.8-2.253-.718.033-.405.751-.286c-.654-2.112.456-3.678,1.771-5.2a32.66,32.66,0,0,0,3.385-4.178c.811-1.332.094-2.173-1.546-2,.581,2.162-.71,3.194-2.438,3.982a27.011,27.011,0,0,1-3.589,1.514l1.742-2.224s-.288-.168-.264-.267a5.767,5.767,0,0,1,5.033-4.2,2.174,2.174,0,0,1,2.264,2.79,7.953,7.953,0,0,1-1.4,2.615c-.724.952-1.692,1.716-2.447,2.649a8.185,8.185,0,0,0-1.548,2.522,2.1,2.1,0,0,0,.521,1.917c.444.275,1.333-.137,2.015-.3.165-.038.312-.252.422-.415,2.255-3.357,4.77-6.577,5.741-10.789l-1.175.816V83.446L24.9,84.833l-.277-3.409-.783-.12.55-3.151-.871-1.307L25.6,75.028,23.8,72.908l.319-.319,1.131.732.21-1.135.732.437,1.86-.9.211.277.456-1.165.933.842c.3-1.495-.564-1.621-1.506-1.67Zm1.77,9.114.786-2-2.444.9,1.68,1.081c-.072.332-.266.695-.188.987a2.709,2.709,0,0,0,.684,1.182c.085.084.889-.3.878-.424a2.591,2.591,0,0,0-.488-1.27C30.6,79.29,30.187,79.224,29.877,79.078Z"/>
    <path d="M57.953,91.346c.089.234.11.572.279.682.607.393,1.264.708,1.988,1.1l-.869,1.305c-.809-.431-1.834-.667-2.328-1.311A17.683,17.683,0,0,1,54.892,89.2c-.1-.243.6-.948,1.057-1.258.3-.207.826-.092,1.251-.122l.249-.468-3.484-2.825c.825-1.074,1.718-1.3,2.75-.262.139.14.33.356.476.341,1.442-.155,2.194.543,2.231,2.186l.358-.212L60.958,84.1l-.026.03c1.141-2.5,1.125-2.743-.363-4.306l1.131-.847-.045-.145-1.947.761c0-2.918,2.877-2.966,3.916-4.794l-5.014-6.36.322-.315,6.117,5.934.357-.791c1.434.756,3.2,1.211,4.219,2.342,1.289,1.434,2.517,3.2,2.2,5.439a14.3,14.3,0,0,0-.013,1.9l-.8.091-.176,2.352-.6-.087A14.648,14.648,0,0,1,68.9,87.24c-2.116,2.212-2.151,2.457-.164,4.407.774.174,1.758.129,2.244.6.309.3-.123,1.363-.222,2.084l-.4-.024a22.511,22.511,0,0,0,1.857,3.067c.386.468,1.485.949,1.8.737a2.226,2.226,0,0,0,.892-1.9,13.443,13.443,0,0,0-1.917-2.949A20.377,20.377,0,0,1,70.482,89.8a2.875,2.875,0,0,1,1.924-3.939,3.581,3.581,0,0,1,4.047,2.288,3.774,3.774,0,0,1,.234,1.827l1.6,1.5c-4.3-.936-5.251-1.9-4.955-4.605a1.917,1.917,0,0,0-1.862,2.972,13.9,13.9,0,0,0,2.577,3.06c1.327,1.356,2.311,2.773,1.706,4.809-.076.255.141.6.321,1.267l-2.537.676,1.12.511c-1.356.866-2.135.38-2.644-.5a21.567,21.567,0,0,1-1.118-2.8c-1.441,4.458-1.377,4.792.892,5.055l.116,2.639,1.806-.387c.349-1.708,1.14-2.58,2.118-2.109a2.667,2.667,0,0,1,1.312,1.836c.093,1.11-1.023,1.547-2.33,1.294l-2.328,1.793-.069-.175-1.622,2.156c.165,1.194-.364,1.54-3.257,1.222l2.306-3.04A16.5,16.5,0,0,1,67.7,106.3c-.11-.059.053-1.076.216-1.115a13.648,13.648,0,0,1,2.323-.172l-.095-1.845c-2.537-.731-4.458-1.993-4.992-5.027-.55.248-1.37.38-1.454.7a12.509,12.509,0,0,0-.066,2.836c-1.861.558-3.7,2.291-6.3,1.955-.234,1.339-.5,1.436-3.276.956a5.525,5.525,0,0,1,3.777-2.468,34.147,34.147,0,0,0,4.143-1.079c-.677-1.74-2.4-2.819-1.4-4.647.9-1.642,2.5-1.633,4.254-2.223l-4.129-2.43-2.775-.373c-.041-.638-.081-1.276-.128-2.014l-1.449-.08-.25.449Zm10.07-4.105.2-.272-1.291-.782.541-.219.662-1.559-.307-.17L66.59,85.751l-3-1.749.937-.557-.14-1.58-1.149,2-1.3-.509-.132.29Zm-5.678-6.25.209.407c1.692.091,2.7-1.227,4.215-2.106H63.84Zm13.24,21.133c-.5.732-.973,1.119-.989,1.524-.012.315.58.948.829.913a1.444,1.444,0,0,0,1.049-.862C76.533,103.337,76.045,102.886,75.585,102.124Z"/>
    <path d="M21.563,111.838c2.6.006,4.558-1.233,6.525-2.459,1.784-1.113,3.524-2.32,5.391-3.274,2.886-1.473,5.268-.339,6,2.1a1.571,1.571,0,0,0,.136.268c1.4,2.621,1.4,2.619-1.165,4.243a4.454,4.454,0,0,0-.5.525,26.678,26.678,0,0,0,16.044.021c-.773-.491-1.3-.8-1.793-1.145a1.7,1.7,0,0,1-.579-2.582c.266-.425.533-.851.763-1.3,1.476-2.853,3.245-3.54,6.109-2.089,1.915.97,3.688,2.221,5.516,3.36,1.885,1.174,3.777,2.31,6.2,1.965a5.078,5.078,0,0,1-6.732,2.361c-1.595-.828-3.048-1.924-4.592-2.856a19.479,19.479,0,0,0-3.025-1.469c1.2,1.36.966,2.663.124,3.985a2.039,2.039,0,0,0-.344.829c-.327,3.044-2.5,4.044-5.053,4.129a100.778,100.778,0,0,1-10.613-.26,3.7,3.7,0,0,1-3.626-3.421A6.1,6.1,0,0,0,35.7,113.1a3.293,3.293,0,0,1,.162-3.593c-.838.412-1.712.766-2.508,1.247-1.544.933-3.024,1.969-4.567,2.9-1.867,1.132-3.667,1.174-5.356-.427A19.033,19.033,0,0,0,21.563,111.838Z"/>
    <path d="M16.411,224.12h3.234a3.413,3.413,0,0,1,.292.772,5.366,5.366,0,0,0,4.871,4.968,18.492,18.492,0,0,0,6.054-.276,3.646,3.646,0,0,0,2.862-3.784,3.514,3.514,0,0,0-2.671-3.592c-1.987-.665-4.055-1.087-6.079-1.645a29.9,29.9,0,0,1-3.725-1.147,6.423,6.423,0,0,1-1.877-10.832c3.426-3.206,10.7-3.374,14.247-.307a7.823,7.823,0,0,1,2.636,6.118H33a3.406,3.406,0,0,1-.279-.584,6.775,6.775,0,0,0-10.281-3.547c-1.754,1.217-2.587,4.939.563,6.064,2.017.721,4.149,1.112,6.21,1.719a26.174,26.174,0,0,1,4.528,1.554,6.716,6.716,0,0,1,1.1,11.282,11.275,11.275,0,0,1-4.582,2.073,13.708,13.708,0,0,1-9.374-1.021C17.861,230.306,16.494,227.7,16.411,224.12Z"/>
    <path d="M88.814,194.644H85.808c-.048-.587-.135-1.16-.137-1.734-.013-3.462.013-6.924-.014-10.385-.022-2.9-.942-4.037-3.228-4.123-2.811-.1-4.83,1.5-4.917,4.133-.112,3.409-.043,6.823-.061,10.234,0,.59-.052,1.18-.085,1.868H74.134v-2.6c0-3.211.021-6.422-.01-9.633-.015-1.542-.195-3.052-1.91-3.745A4.294,4.294,0,0,0,67.3,179.92a7.611,7.611,0,0,0-1.394,3.673c-.2,3.1-.064,6.217-.065,9.328v1.715H62.666V175.994h2.893l.283,2.148a7.427,7.427,0,0,1,5.694-2.68c2.235,0,4.144.655,5.3,2.9a7.662,7.662,0,0,1,7.646-2.763c2.659.433,4.4,2.11,4.449,4.7.1,4.564.032,9.13.026,13.7A3.267,3.267,0,0,1,88.814,194.644Z"/>
    <path d="M118.715,194.656h-2.973c-.028-.554-.079-1.084-.08-1.614-.007-3.46.008-6.919-.007-10.378-.013-3.01-1.009-4.231-3.427-4.263-2.823-.039-4.773,1.674-4.836,4.428-.078,3.357-.023,6.718-.025,10.077,0,.538,0,1.076,0,1.724h-3.3v-3.792c0-2.657.012-5.314,0-7.972-.017-3.172-.9-4.393-3.2-4.464a4.737,4.737,0,0,0-4.981,4.572c-.092,3.256-.03,6.517-.035,9.776v1.877H92.628v-18.6h2.9l.2,2.254a7.285,7.285,0,0,1,5.687-2.817,5.5,5.5,0,0,1,5.4,2.9,7.6,7.6,0,0,1,7.667-2.754c2.612.436,4.277,1.955,4.363,4.575.152,4.655.059,9.319.059,13.979A1.818,1.818,0,0,1,118.715,194.656Z"/>
    <path d="M44.972,103.105c1.5-2.628.358-5.436.755-8.316H38.662a24.708,24.708,0,0,0-1.049-2.833,11.872,11.872,0,0,0-1.988-2.572L39.8,83.7a7.073,7.073,0,0,0-.043-2.222,10.627,10.627,0,0,0-1.671-3.635,4.077,4.077,0,0,1,.972-5.931c.172-.125.6.1,1.042.2-2.381,2.783-2.574,4.686-.688,5.108l-.063.937.9-.517v1.875l1.739-.339-.05-.429h-.784c-.4-1.212-.4-1.212,2.668-1.553l-.527,1.774h1.8c-1.888-.927.133-1.92-.2-2.85h1.926l.851,2.478-1.176-.244c.091.2.114.372.21.446a1.674,1.674,0,0,0,2.029.248c-.264-.623-.7-1.162-.569-1.439A18.184,18.184,0,0,1,49.8,75.165l1.381,3.691-1.262-.278-.11.483,1.534.408c.292-.787.327-1.4.647-1.65,1-.774,2.114-1.383,1.7-2.976-.075-.287.22-.67.344-1.009a3.062,3.062,0,0,1,.543.852,3.566,3.566,0,0,1-.85,3.267c-.95,1.185-1.984,2.524-1.436,4.344.132.439-.223,1.024-.352,1.534l3.2,3.539c-1.792,2.142.052,3.614.887,5.044a5.459,5.459,0,0,1,.732,3.68,12.5,12.5,0,0,1-3.791,7.664c-.979.939-3.792,1.083-4.731.189-.211-.2-.118-.719-.165-1.092.505-.4,1-.811,1.518-1.2a8.334,8.334,0,0,0,3.479-6.83h-6.7v7.227l1.529.7-.549.938-2.407-.608Zm.606-9.16V85.978c-3.7-.015-7.129,4.086-6.657,7.967Zm7.381,0c.565-3.736-3.488-8.58-6.532-7.846v7.846ZM40.241,82.078l0,.78a4.746,4.746,0,0,0,1.355.109c.725-.149,1.4-.515,2.127-.675a10.528,10.528,0,0,1,6.583.677c.312.134.768-.066,1.157-.111a4.407,4.407,0,0,0-.625-1.126,1.55,1.55,0,0,0-.978-.3c-2.433-.061-4.869-.154-7.3-.092A8.646,8.646,0,0,0,40.241,82.078Z"/>
    <path d="M39.655,138.747H36.1c-.928-3.537-3.328-5.248-6.868-5.414-4.674-.22-8.091,2.741-8.712,8.084A19.628,19.628,0,0,0,21.2,148.8c1.113,3.962,4.329,5.792,8.583,5.47,3.425-.259,5.6-2.457,6.421-6.48.04-.195.082-.39.15-.714h3.343c.5,3.645-2.578,8.2-6.5,9.634-8.228,3.009-15.795-2.02-16.509-10.992a17.1,17.1,0,0,1,1.4-8.8,12.2,12.2,0,0,1,17.678-4.737A9.054,9.054,0,0,1,39.655,138.747Z"/>
    <path d="M39.463,176.7H36.248a1.76,1.76,0,0,1-.283-.408c-.942-3.3-3.3-4.813-6.553-5-3.18-.182-5.927.914-7.476,3.807a13.427,13.427,0,0,0,.193,13.635c1.823,3.193,4.976,3.911,8.366,3.375,3.127-.5,4.828-2.626,5.54-5.62.113-.478.226-.956.358-1.509h3.279c.533,3.331-2.225,7.777-5.776,9.382-7.237,3.269-14.964-.474-16.773-8.188a16.668,16.668,0,0,1,1.316-11.984c3.254-6.116,12.013-8.042,17.582-3.908A8.129,8.129,0,0,1,39.463,176.7Z"/>
    <path d="M94.179,138.042h3.4c-2.018,6.329-3.986,12.5-5.965,18.708h-3.46l-3.579-13.869-.292-.041c-1.177,4.6-2.354,9.2-3.552,13.883H77.185c-1.966-6.109-3.951-12.279-6-18.633h3.617l3.991,14.3.281.046,3.572-14.371h3.57l3.7,14.372.267.044Z"/>
    <path d="M192.978,192.076l1.726.246v2.222c-2.379,1.376-3.966.834-5.164-1.757a9.058,9.058,0,0,1-8.514,2.178,4.773,4.773,0,0,1-3.966-4.164c-.305-2.912.549-4.929,2.974-5.764a58.97,58.97,0,0,1,7.152-1.62c1.943-.407,2.665-1.213,2.252-2.813a2.882,2.882,0,0,0-1.044-1.549,5.018,5.018,0,0,0-7.529,2.775h-2.983a5.254,5.254,0,0,1,3.208-5.448,11.817,11.817,0,0,1,8.8-.26,4.306,4.306,0,0,1,2.948,4.44c.026,3.209,0,6.417.017,9.626C192.859,190.776,192.931,191.363,192.978,192.076Zm-3.607-6.506c-1.759.288-3.525.552-5.279.876a8.687,8.687,0,0,0-2,.6,2.647,2.647,0,0,0-1.576,3.084,2.449,2.449,0,0,0,2.448,2.042C186.554,192.587,190.517,191.143,189.371,185.57Z"/>
    <path d="M130.779,224.325h-13.92a4.849,4.849,0,0,0,3.423,5.614c3.1.968,5.339-.062,6.886-3.265h2.866a6.669,6.669,0,0,1-4.4,5.891,8.763,8.763,0,0,1-12.164-6.444,11.439,11.439,0,0,1,.778-7.912,8.455,8.455,0,0,1,8.509-4.753,7.689,7.689,0,0,1,7.088,5.785A43.007,43.007,0,0,1,130.779,224.325Zm-3.823-3.031a5.075,5.075,0,0,0-5.514-4.937,4.844,4.844,0,0,0-4.637,4.937Z"/>
    <path d="M56.841,224.365H42.714a4.953,4.953,0,0,0,3.536,5.6c3.061.92,5.135-.058,6.864-3.3h2.879c-.232,3.518-3.1,6.129-7,6.481-4.861.439-8.4-2.041-9.561-6.794-.937-3.825-.489-7.42,2.331-10.375a8.215,8.215,0,0,1,13.664,2.491A40.811,40.811,0,0,1,56.841,224.365Zm-3.954-3.059c-.413-3.354-2.868-5.316-5.937-4.922a4.649,4.649,0,0,0-4.139,4.922Z"/>
    <path d="M138.685,186.354H125.173a4.753,4.753,0,0,0,3.486,5.622c2.92.7,5.443.391,6.839-3.272h2.886a6.782,6.782,0,0,1-5.556,6.257c-8.331,1.631-12.072-4.617-11.249-11.237.708-5.7,4.914-8.918,10.235-8.109a8.4,8.4,0,0,1,3.179,1.23C137.669,178.564,139.346,182.9,138.685,186.354Zm-3.526-3.014a4.838,4.838,0,0,0-5.067-4.939,4.76,4.76,0,0,0-4.888,4.939Z"/>
    <path d="M41.661,185.251c.038-7.112,5.58-11.366,12.206-9.37,4.052,1.221,6.462,5.218,6.167,10.229-.381,6.471-5.218,10.184-11.547,8.861C44.294,194.1,41.635,190.307,41.661,185.251Zm14.944.331c-.123-1.075-.15-1.732-.28-2.368a5.6,5.6,0,0,0-5.359-4.812,5.513,5.513,0,0,0-5.5,4.442,9.358,9.358,0,0,0,.3,5.9,5.215,5.215,0,0,0,5.111,3.48,5.134,5.134,0,0,0,5.053-3.545A21.4,21.4,0,0,0,56.605,185.582Z"/>
    <path d="M70.941,147.584c-.026,6.838-4.968,10.906-11.484,9.428-3.816-.865-5.912-3.477-6.549-7.186a14.472,14.472,0,0,1,.054-5.067,8.551,8.551,0,0,1,9.394-7.246c5.026.412,8.232,3.609,8.581,8.569C70.972,146.581,70.941,147.083,70.941,147.584Zm-3.208-.062a24.751,24.751,0,0,0-.92-3.7,5.376,5.376,0,0,0-9.9-.147,8.77,8.77,0,0,0,.054,7.571,5.023,5.023,0,0,0,4.785,3.06,4.972,4.972,0,0,0,4.922-3.061A25.133,25.133,0,0,0,67.733,147.522Z"/>
    <path d="M114.826,156.747h-2.961c-.029-.609-.076-1.144-.077-1.678-.007-3.409,0-6.818,0-10.227,0-2.5-.763-3.769-2.524-4.253a5.062,5.062,0,0,0-5.722,2.267,8.954,8.954,0,0,0-.782,3.457c-.109,2.854-.031,5.714-.041,8.571,0,.59-.058,1.18-.093,1.854H99.548V138.067h2.867l.174,2.1a3.06,3.06,0,0,0,.576-.372c2.4-2.564,5.334-2.747,8.445-1.762a4.263,4.263,0,0,1,3.154,3.869C114.947,146.788,114.826,151.685,114.826,156.747Z"/>
    <path d="M168.419,181.986H165.2c-1.647-3.271-3.757-4.285-6.73-3.266-2.294.787-3.551,3-3.6,6.339-.058,3.68,1.109,6.024,3.435,6.9,3.107,1.166,5.7-.312,6.994-4.094h2.99c.3,3.06-2.362,6.352-5.716,7.1-6.623,1.481-11.748-3.034-11.234-9.9a18.111,18.111,0,0,1,.285-2.386,8.911,8.911,0,0,1,12.884-6.389A6.6,6.6,0,0,1,168.419,181.986Z"/>
    <path d="M111.507,219.9c-.47.062-.807.136-1.145.145-.694.02-1.388.006-2.123.006-.644-2.169-1.884-3.534-4.145-3.686a5.1,5.1,0,0,0-5.786,4.116,10.257,10.257,0,0,0,.257,6.5,4.75,4.75,0,0,0,5.057,3.213,4.523,4.523,0,0,0,4.482-3.541c.091-.277.189-.552.311-.905h2.962c.305,2.748-1.9,5.871-4.817,6.9-5.993,2.109-11.437-1.333-11.988-7.674a15.106,15.106,0,0,1,.258-4.616c1.393-6.09,7.616-8.843,13.174-5.913A6.491,6.491,0,0,1,111.507,219.9Z"/>
    <path d="M69.384,213.926h3.655l5.173,15.283,5.028-15.274h3.437L79.87,232.583H76.307C74.018,226.414,71.731,220.248,69.384,213.926Z"/>
    <path d="M200,194.649h-3.122v-25.81H200Z"/>
    <path d="M45.766,156.734H42.63V138.067h2.9v3.016c1.762-2.271,3.8-3.74,6.888-3.512v3.275a5.018,5.018,0,0,1-.606.167c-4.188.563-5.759,2.215-5.96,6.481-.116,2.452-.065,4.913-.087,7.37C45.761,155.456,45.766,156.048,45.766,156.734Z"/>
    <path d="M58.834,213.913h2.9l.221,3.235c1.7-2.473,3.664-4,6.712-3.608v3.181c-.364.075-.692.169-1.027.206-3.362.381-5.208,2.133-5.454,5.519-.2,2.746-.142,5.51-.194,8.266-.011.592,0,1.183,0,1.873H58.834Z"/>
    <path d="M144.437,194.65h-3.115V175.993H144.2l.21,3.191c1.674-2.479,3.668-3.948,6.7-3.612v3.208c-.342.069-.714.172-1.092.215-3.23.362-5.037,2-5.346,5.262-.245,2.584-.169,5.2-.226,7.8C144.422,192.855,144.437,193.653,144.437,194.65Z"/>
    <path d="M171.184,175.976h3.078v18.66h-3.078Z"/>
    <path d="M44.939,103.08l6.266,2.141a4.641,4.641,0,0,1-4.418,1.739c-1.373-.235-2.708-.684-4.066-1.014-.617-.151-1.25-.235-1.872-.367-.333-.07-.816-.073-.961-.288-1.725-2.562-4.153-4.749-4.486-8.114l3.393-.846a15.281,15.281,0,0,0,1.328,2.9,11.066,11.066,0,0,0,2.183,1.791c.375.307.7.681,1.08.976.51.392,1.056.738,1.586,1.1Zm-4.944,1.537,2.043-2.961C40.273,102.059,39.61,103.041,39.995,104.617Z"/>
    <path d="M91.64,232.6h-3V213.991h3Z"/>
    <path d="M44.15,101.609c-2.187-1.907-4.291-3.382-4.1-6.129a37.368,37.368,0,0,1,4.08-.368c.356,0,.989.749,1.011,1.179a20.039,20.039,0,0,1-.218,3.851A4.892,4.892,0,0,1,44.15,101.609Z"/>
    <path d="M44.331,109.005l.187-1.979,2.81.393.192,1.519c1.73,1.17,1.723,1.163.189,2.858-.634.7-1.228,1.441-1.84,2.163-.555-.726-1.076-1.483-1.673-2.174C42.68,110.034,42.667,110.03,44.331,109.005Zm2.155,3.485,1.733-2.238c-1.03-1.293-1.06.865-1.882.572-.34-.7,1.236-1.879-.426-2.335-1.48.538-.107,1.6-.735,2.654l-.723-1.537-.879.528,1.73,2.2.724-1.366Z"/>
    <path d="M174.168,172.653H171.2v-3.815h2.966Z"/>
    <path d="M88.605,210.529v-3.711h3.04v3.711Z"/>
    <path d="M45.88,70.269l-1.236.894-.325-.391.794-1.379c-.269-.622-.708-1.2-.574-1.409.425-.677.792-1.681,2.062-1.173-.018.231-.039.5-.06.775l1.057-.069L47,69.138l-.406-.031.922,1.616-.272.4Z"/>
    <path d="M48.036,72.759c-.077.684-.373,1.118-1.045.588a1.572,1.572,0,0,0-2.316.105l-4.51-1.29a3.629,3.629,0,0,1,.166-.628c1.252.157,2.5.365,3.95.6l.3-.633h2.576l.779,1.137C47.969,72.677,48,72.718,48.036,72.759Z"/>
    <path d="M28.146,70.005l-1,1.51-.154-.363L23.824,72.23c.12-.863.485-1.489,1.67-1.387l.5-1.63,2.112.751Z"/>
    <path d="M66.456,104.9c-.254-.509-.735-1.037-.694-1.52.038-.436.647-.824,1-1.233.38.438,1.012.847,1.065,1.322.051.449-.507.966-.8,1.454Z"/>
    <path d="M60.958,84.1c-.206.132-.434.4-.613.372a12.364,12.364,0,0,1-1.572-.453l.927-1.458c.428.327.877.632,1.27,1,.088.082-.021.375-.038.571Z"/>
    <path d="M47.935,72.637l2.211-1.422.236,1.122-2.346.422C48,72.718,47.969,72.677,47.935,72.637Z"/>
    <path d="M46.978,96.633l-.115-1.611A28.358,28.358,0,0,0,50.005,95c1.218-.136,1.988.086,1.895,1.635Z"/>
    <path d="M51.085,98.733H46.8l.23-1.353c1.018-.11,2.018-.278,3.022-.311C51.32,97.028,51.4,97.78,51.085,98.733Z"/>
    <path d="M46.839,101.018V99.41H50.45C49.727,101.246,49.518,101.332,46.839,101.018Z"/>
    <path d="M44.985,93.42h-5V91.806A19.841,19.841,0,0,0,43,91.778C44.594,91.529,44.974,91.761,44.985,93.42Z"/>
    <path d="M40.694,89.65h4.393l.251,1.637H40.5Z"/>
    <path d="M41.38,88.744l3.228-2.219.834,2.6H41.533Z"/>
    <path d="M52.447,93.455H46.789v-6.93C50.237,87.548,51.69,90.1,52.447,93.455Zm-1.535-.562L49.9,91.972,47.99,92.3l1.055-1.542-1.668.548.144,1.448h4.1l-.348-1.424-.177.029Z"/>
  </g>
</svg>
