<svg xmlns="http://www.w3.org/2000/svg" viewBox="0 0 300 300">
  <title>exp</title>
  <g>
    <path d="M299.963,188.773H87.163V111.227h212.8q.019,13.174.037,26.347Q299.994,163.173,299.963,188.773ZM165.019,173.784A10.04,10.04,0,0,0,174.1,170.1a9.69,9.69,0,0,0-.06-11.979c-3.059-3.6-9.78-4.8-14.74-2.474-4.516,2.116-6.6,6.668-4.917,11.86a7.665,7.665,0,0,0,2.983,4.168A11.4,11.4,0,0,0,165.019,173.784Zm-34.467-19.237v17.9h6.5v-4.731c1.17,0,2.156-.061,3.132.012a11.337,11.337,0,0,0,6.452-1.787,5.793,5.793,0,0,0,2.961-5.142,5.393,5.393,0,0,0-3.2-5.219,14.745,14.745,0,0,0-6.8-1.609C136.641,153.971,133.688,154.33,130.552,154.547Zm124.912-.019c-2.805,0-5.3,0-7.8,0-2.57,0-5.143-.025-7.681.019V172.6H245.5q2.854,0,5.71,0c1.771,0,3.542-.01,5.319-.015v-3.706h-9.96v-3.562h6.275a2.409,2.409,0,0,0-.029-3.649h-6.26v-3.408c3.036-.372,6.027.178,8.914-.325ZM115.156,141.809c1.177-3.539,2.351-7.066,3.662-11.009.326,3.968.614,7.478.9,10.937h3.392V126.36h-6.225a52.346,52.346,0,0,1-2.97,8.96c-1.568-3.081-1.9-6.389-3.488-9.134-2.059.072-3.932-.132-5.88.131a70.861,70.861,0,0,1-.061,7.778,43.7,43.7,0,0,0-.416,7.657h2.753c.19-1.878.384-3.633.54-5.392.152-1.711.265-3.424.429-5.6,1.329,3.985,2.5,7.495,3.682,11.045ZM233.515,155.9a25.268,25.268,0,0,0-4.536-1.332,25.007,25.007,0,0,0-6.584.061,9.017,9.017,0,0,0-4.465,2.135,10.009,10.009,0,0,0-3.362,9.095,7.527,7.527,0,0,0,3.672,6.093,14.12,14.12,0,0,0,6.12,1.957c3.444.312,6.384.116,9.364-1.562-.436-1.13-.876-2.274-1.339-3.476-1.988.75-3.809,1.475-5.854,1.247a6.121,6.121,0,0,1-4.886-8.568,5.39,5.39,0,0,1,6.84-3.087c1.285.412,2.522.976,3.9,1.519ZM188.1,154.509c-2.38.058-4.437-.045-6.453.063v17.9h16.094c-.19-1.331.543-2.686-.933-3.535-2.9-.143-5.766.153-8.708-.2Zm78.964-28.233v15.459h2.907v-9.342l.368-.1,5.209,9.443h5.086V126.384h-2.959v3.475c0,1.2.047,2.4-.014,3.6-.051,1,.277,2.076-.5,3.373l-5.778-10.552ZM153.907,126.1c0,2.98-.007,5.475,0,7.971.009,2.566-.032,5.136.027,7.762a13.734,13.734,0,0,0,4.271-.226v-5.647c2.328.057,2.339.054,2.931,1.783.468,1.37.905,2.752,1.367,4.163l3.667-.169a29.983,29.983,0,0,0-.89-3.917,28.318,28.318,0,0,0-1.822-3.427,5.744,5.744,0,0,0,2.426-4.57l-1.347-2.811C161.289,125.316,157.676,126.6,153.907,126.1Zm60.286,7.714c-.192-4.4-1.988-6.949-5.762-7.965a7.218,7.218,0,0,0-8.15,4.347,13.634,13.634,0,0,0-.074,6.945,7.078,7.078,0,0,0,6.206,4.749c3.825.079,5.944-1.3,7-4.652C213.762,136.129,213.938,134.961,214.193,133.818Zm-45.5-.081c.174,1.8-.02,3.625,1.158,5.156a7.028,7.028,0,0,0,6.371,3.066,5.978,5.978,0,0,0,5.592-3.642,10.44,10.44,0,0,0,.313-8.306,6.672,6.672,0,0,0-6.668-4.331,6.327,6.327,0,0,0-6.132,4.6A27.873,27.873,0,0,0,168.694,133.737Zm85,4.657h4.814l1.43,3.366h4.01L258.8,126.276h-5.241l-5.182,15.512h3.863Zm-44.57,16.281h-6.455V172.6c2.232-.1,4.361.26,6.455-.233ZM196.908,127.5c-2.471-1.52-5.468-1.792-10.466-1v15.358c1.259-.056,2.407.253,3.718-.349v-4.975C196.621,136.207,199.3,133.212,196.908,127.5ZM127.45,141.863c3.334.02,6.671.011,9.808.007,1.256-.827,1-1.8.788-3h-6.864v-3.444c1.52-1.472,3.521-.115,5.274-1.031l-.213-2.206H131.2v-3.511h6.449l-.2-2.512c-3.451.117-6.707-.134-10,.168Zm16.319-13.148v13h4.172V128.608h3.984V126.3H139.471l.136,2.413ZM241,141.856a11.581,11.581,0,0,0,3.714-.229c0-3.686-.019-7.275.017-10.863a11.3,11.3,0,0,1,.385-1.989l3.682-.165v-2.452c-4.039.138-7.964-.142-11.867.173v2.256l3.861.277a36.251,36.251,0,0,1,.2,6.266C241.032,137.3,241,139.475,241,141.856Zm-19.765-15.509h-3.529c-.427,5.935-.281,13.5.251,15.369h9.158V138.81h-5.88Zm12.514,15.527V126.067c-1.258.378-2.425-.252-3.446.382v15.425h3.446Z"/>
    <path d="M84.759,188.773H0V111.227H84.759ZM62.475,146.137v-1.72c-1.2.272-1.2.272-.792,1.59l.879.043a10.56,10.56,0,0,0,1.81,1.757c.46.277,1.228.163,1.1-.931Zm-39.59,0a4,4,0,0,0-3.6,1.464c1.409.762,2.429.019,3.469-.649l.05-.9,1.038-.1c.3-.92.377-1.58-.954-1.595ZM41.443,169.57l-.082-1.027c-.871-.234-1.6-.447-1.617.962H41.51l.669,3.073c1.578-1.133,1.145-2.347.956-3.509-.262-.061-.374-.128-.444-.1C42.27,169.159,41.858,169.368,41.443,169.57Zm-3.012-37.947,4.307-2.376,3.827,2.647c-.369-1.082-.4-1.743-.75-2.078-.7-.675-1.535-1.6-2.373-1.663a6.429,6.429,0,0,0-5.4,2.533l.472,1.02-1.056.1c-.288.893-.433,1.583.972,1.591ZM19.86,158.093l.163,1.333,4.9-2.16,2.206,3.935-1.237.925c-.181,2.152-.187,4.224,1.6,5.8a22.745,22.745,0,0,1,1.789,1.585,22.9,22.9,0,0,1,1.479,2.015c.666-.9.718-1.567.044-2.22-.645-.626-1.312-1.23-1.971-1.843a4.666,4.666,0,0,1-1.755-4.177l1.431-1.732-2.686-5.117a3.57,3.57,0,0,0-2.749.382,21.987,21.987,0,0,1-3.253,1.32c.829-1.621,2.964-2.422,2.923-4.682l-.961-.732c-.509,3.061-4.05,4.042-4.355,7.194l2.539,4.369-2.228,5-2.052-1.172c-2.153,2.557-2.385,4.955-.689,7.55a11.175,11.175,0,0,1,.683,2.208c.106.286.427.492.854.957.408-1.506.562-2.582-.328-3.646a4.232,4.232,0,0,1-.309-5.493c.952.589,1.8,1.669,3.054.849a14.373,14.373,0,0,1,1.035-3.1c1.35-2.2,1.491-4.165-.265-6.242A2.041,2.041,0,0,1,19.86,158.093Zm26.39-32.474c.368-.078.908-.03,1.078-.257a10.783,10.783,0,0,0,1.956-5.44l-2.32-2.173-3.528,1.116-.339-2.272-1.374.1-.521,1.866-2.995-.611-2.157,1.314a21.9,21.9,0,0,0,.029,3.02c.149,1.042.315,2.231,1.831,2.209l-.078-.077q-.184.511-.37,1.022c.08.053.18.167.236.149,2.748-.9,5.553-.439,8.34-.345.1,0,.19.293.284.449-1.3-.016-2.6-.016-3.9-.053A9.3,9.3,0,0,0,37.2,126.7c3.583.936,6.864,1.181,10.225-.078Zm16.307,27.046V155.2l3.275,2.607c.758,2.634-.755,3.793-1.424,4.874-.608,3.22,1.7,5.3,1.849,8.227l3.316-.695a6.436,6.436,0,0,1-.5,4.875,3.8,3.8,0,0,0-.14,3.824c.585-1.418,1.03-2.461,1.446-3.516.428-1.086.828-2.182,1.239-3.27-.955-1.471-.592-3.615-2.58-4.438l-1.377,1.871c-.735-1.643-1.476-3.1-2.035-4.634a2.326,2.326,0,0,1,.422-2.247,29.743,29.743,0,0,0,1.778-3c-.938-3.022-3.448-4.741-5.344-6.935l1.027-2.326-.771-.728-2.049,2.692-3.5-.362-1.9,3.191a1.12,1.12,0,0,1-.279-1.858,13.09,13.09,0,0,1,2.283-1.845c.733-.486,1.581-.794,2.339-1.247,1.185-.707,2.025-1.63,1.6-3.216l-1.16-.817v-2.25c-2.09-1.973-5.481-2.978-4.376-6.84-.745-1.029-1.724-.632-2.578-.492l-1.679,1.464-1.01,5.4c-1.839-.655-3.617-.326-5.369-.392.338-.97,1.167-.48,1.789-.6s1.226-.2,2.22-.363l-2.913-3.267,1.1-3.589c-1.5.079-1.763,1.362-2.063,2.241a2.842,2.842,0,0,0,1.023,3.4L39.6,144.317l-1.558-1.182a13.446,13.446,0,0,0-1.96.021,10.872,10.872,0,0,0-1.722.588l.509-1.474-1.332-.852.693-2.081-1.154-1.992c-2.362-.491-2.362-.491-3.7-2.135L28,135.6a5.872,5.872,0,0,1,1.979,3.362c-.888,2.672-3.391,3.8-5.113,5.363l.372,2-1.217.794a3.936,3.936,0,0,0,2.8,3.725,7.72,7.72,0,0,1,3.834,2.922l-.191,2.357-2.328-3.894H25.5l-.518.969c-1.347-.947-1.161-2.73-2.654-3.435l-.729.76,2.877,4.205c.682-.316,1.126-.479,1.525-.718a9.58,9.58,0,0,0,.957-.714c1.728.483.991,1.948,1.54,2.912h3.162c.276-2.7.276-2.7-1.6-5.3.217-1.971-.237-4.064.224-6.057a12.046,12.046,0,0,1,7.935.183,3.252,3.252,0,0,0,3.844-.305,19.489,19.489,0,0,1,3.057-1.673l-.71,1.26H54.661v7.264L53.6,153.049v3.144h3.042l.706-2.619c1.488-.941,1.776.755,3.045.919ZM35.59,148.554c-.482,8.163-.283,15.1.456,16.736l1.82-1.389,1.551,1.994c.539-1.24.994-2.266,2.447-1.579l.413,1.441c1.08-.171.858-2.213,2.438-1.607l1.01,1.4c.395-.6.649-.986.905-1.371a15.423,15.423,0,0,1,2.4,1.61c.5-2.861.453-15-.069-17.236Zm37.765,29.064v-4.635l1.873-1.5a19.552,19.552,0,0,0-2.443-5.207,25.359,25.359,0,0,1-1.562-3.448c-.094-.244.2-.642.357-1.064,1.684.965,3.293,1.611,5.173.962a4.455,4.455,0,0,0,1.36-4.439c-1.446-3.353-4.992-5.147-4.737-8.976l1.587-1.43c2.351,1.544,2.351,1.544,3.619.225l-.8-1.442c-.74,0-1.531-.032-2.319.006-2.3.11-3.329,1.231-3.371,3.58A6.756,6.756,0,0,0,74.2,155a11.659,11.659,0,0,1,2.674,4.442c-.5,1.223-1.171,2.135-2.527,2.2-2.657-.974-3.417-3.5-4.433-5.674a29.588,29.588,0,0,1-1.41-5.251l2.222-1.041c.356-2.481.661-4.6,1-6.981a2.518,2.518,0,0,0,.653-3.375l-1.671-.674-1.175-2.179H66.072l-1.819-1.3a7.382,7.382,0,0,0-1.511,1.468c-.728,1.324-.97,2.9-2.449,3.814-.292.18-.042,1.24-.042,1.96h1.578l-.537-1.449,1.776-1.25c.189-.992-.162-2.28,1.1-2.6l4.753.774.439,1.405c.817.328,1.907.143,2.184,1.556l-1.066,1.307-.973,6.148-2.126.834a9.856,9.856,0,0,0,.033,2.528c.713,2.433,1.468,4.865,2.418,7.212.356.881.78,1.748.324,2.52-.878,1.483-.217,2.689.435,3.9a22.807,22.807,0,0,0,2.084,3.224,2.627,2.627,0,0,1,.582,2.475l-1.149.738v4.614l-1.734,1.22C71.249,178.8,72.134,178.874,73.355,177.618Zm-56.66-27a21.26,21.26,0,0,1-1.708,6.168c-1.037,2.2-1.891,4.65-4.86,4.924-2.049-1.8-2.213-2.79-.756-4.772.413-.561,1-.992,1.417-1.55,1.483-1.985,2.87-4.016,2.259-6.919L11.4,146.743H7.591c-1.271,1.677-1.271,1.677.4,2.958l2.313-1.994,1.746,1.952a11.239,11.239,0,0,1-2.912,5.634A9.759,9.759,0,0,0,7.6,157.459c-1.4,2.951.1,5.394,3.321,5.486.4.012.8,0,1.1,0l1.642-1.165a5.374,5.374,0,0,1-1.432,4.893c-1.3,1.612-2.458,3.349-1.891,5.587l1.715.642v4.722c.738.985,1.455,1.223,2.521.391l-1.507-1.943v-4.537l-1.877-.624c.968-1.513,1.684-2.807,2.569-3.973a5.455,5.455,0,0,0,1.289-4.143,10.215,10.215,0,0,1,1.283-6.282,11.288,11.288,0,0,0,.854-7.992l-1.54.338v-3.02l-1.146-1.265c2.022-1.706-1.166-2.694-.659-4.2l3.032-2.566,4.563-.716a11.216,11.216,0,0,0,.813,2.41,10.371,10.371,0,0,0,1.716,1.789l-.362,1.125.409.229,1.406-1.369-2.465-2.633a6.952,6.952,0,0,0-.14-1.386c-.343-1.167-1.231-1.895-2.206-1.362-1.609.879-3.328.272-5.234.8-.038,1.578-1.156,2.255-2.655,2.441-.161,1.152-.432,2.227.52,3.139.977.935.611,1.968.137,2.99l1.005,1.268.146,3.234C15.31,150.069,16,150.345,16.7,150.618Zm13.277,6.536c-.673.459-1.069.592-1.084.759a13.88,13.88,0,0,0,.912,6.976c1.951,4.5,5.411,7.466,9.466,9.946,2.553,1.561,4.936,1.728,7.292-.308.214-.186.559-.212.8-.379,4.127-2.9,7.762-6.178,8.709-11.5.057-.321.466-.578.7-.847l1.566,1.269c-.686,3.218-.681,3.225-3.012,5a3.523,3.523,0,0,0-1.595,2.6l.7.625a10.628,10.628,0,0,1,2.055-2.493c2.6-1.666,3.075-4.075,2.973-6.747l-1.284-.868c.534-1.63,1.076-2.972,2.34-3.643,1.708-.2,2.676,1.788,4.57.917-1.77-1.067-3.168-2.506-5.618-2.031L56.643,160.8l-.332-3.7c-.7.629-1.235.922-1.472,1.371a3.077,3.077,0,0,0-.115,1.47,11.05,11.05,0,0,1-2.085,6.637c-2.493,3.845-6.117,6.081-10.257,7.848C35.038,171.168,30.338,165.99,29.972,157.154ZM61.114,124.44c-3.19.5-4.9,2.615-6.286,5.076a13.155,13.155,0,0,1-4.282,5.082c-1.046.58-1.874-1.375-3.063-.081a4.8,4.8,0,0,0,1.28.742,5.934,5.934,0,0,0,6.42-2.721c.938-1.37,1.677-2.876,2.506-4.321.74-1.291,1.452-2.621,2.984-2.534,1.4.45,1.844,2.588,3.724,1.372C63.827,125.47,62.567,124.958,61.114,124.44Zm-25.1,10.371A5.469,5.469,0,0,1,31.2,131a28.282,28.282,0,0,0-1.749-2.717,6.489,6.489,0,0,0-4.989-3.734c-1.276.606-3.133.544-3.449,2.652,1.87.983,2.3-1.17,3.533-1.49a3.229,3.229,0,0,1,2.21,1.655c1.035,1.665,2.185,3.258,3.283,4.885A9.029,9.029,0,0,0,33.7,135.61,1.556,1.556,0,0,0,36.016,134.811Zm2.269,7.545a1.8,1.8,0,0,0,2.184-1.578,4.581,4.581,0,0,1,2.825-3.452c.3-.135.355-.829.7-1.714l-4.318,2.047-2.666-1.228-.238.349,2.728,2.952Zm10.9,4.785.093-.381a6.441,6.441,0,0,0-1.807-.593c-3.5-.056-7-.042-10.5,0-.321,0-.637.405-1.468.97ZM29.616,134.022c-1.438-1.038-2.539-1.861-3.669-2.641-2.249-1.555-2.815-1.4-4.435,1.388l1.564,1.942.869-.936-1.413-1.958,2.176-.16,1.983,2.365Zm30.326-3.563-3.874,3.516,1.905.091,3.382-3.17,1.057.985-1.319,1.985,1.726.286,1.013-2.292-1.441-1.4ZM25.207,164.191c-.238-.713-.362-1.186-.554-1.63s-.448-.839-.747-1.387c-.984.041-1.992-.446-3.328.675l2.991.82-.555,4.386C25.134,167.127,24.359,165.026,25.207,164.191Zm36.255-.38c.823-1.367.823-1.367,2.933-2.589H61.488c-1.875,2.936-1.814,3.831.582,6ZM44.376,134.137c-2.182-.264-3.452.85-4.788,1.082-1.008-.245-1.627-1.4-3.031-.895l2.274,2.171C40.94,136.667,42.333,135.416,44.376,134.137Zm8.823-4.288c1.253-1.514.933-2.862-.086-4.167H50.687a7.833,7.833,0,0,0-1.158,1.335c-.138.249.1.7.2,1.276l2.26-2.433Zm-21.829-.123.63.2a5.168,5.168,0,0,0,.463-1.129c.12-.761-.14-1.62.581-2.207a2.457,2.457,0,0,1,.646-.3c1.049.192.019,2.038,1.562,1.678a1.266,1.266,0,0,0-.447-2.01c-1.187-.538-2.482-.736-3.435.551ZM38.44,169.2a42.131,42.131,0,0,0-3.18-3.12c-1.189-.958-1.071-2.863-3.044-3.9C33.623,165.57,34.945,168.282,38.44,169.2Zm8.689.236a11.042,11.042,0,0,0,4.832-4.627,2.356,2.356,0,0,0-.038-2.6C51.046,165.328,48.907,167.24,47.129,169.433Zm13.846-2.1-1.348-.221-3.479,4.114,2.024.131Zm-33.349,2.725c-1.256-1.029-.929-3.01-3.3-2.823.928,1.374,1.631,2.493,2.417,3.549a1.416,1.416,0,0,0,1.841.418c.122-.056.154-.308.34-.714ZM32.748,150.5a17.375,17.375,0,0,0,.047,6.284A21.662,21.662,0,0,0,32.748,150.5Zm20.013-.124a11.553,11.553,0,0,0,0,6.344Zm10.93-6.948,2.8.877c.5-1.547-.884-1.212-1.319-1.678Zm-42.126-.016-1.415-.767c-.37.5-1.876.148-1.249,1.676Zm32.9,1.958c-1.605.311-2.224.674-2.109,2,.48-.148.884-.159,1.1-.366A9.639,9.639,0,0,0,54.462,145.368Zm-20.769,13.95c-.96.19-1.875-.621-2.545.822C32.194,160.742,32.931,160.581,33.693,159.318Zm17.376.225a13.97,13.97,0,0,0,2.336.887c.2.032.478-.477.943-.979a12.989,12.989,0,0,0-1.471-.182A18.224,18.224,0,0,0,51.069,159.543ZM67.3,141.552a2.119,2.119,0,0,0,2.427-.024l-2.066-.882Zm-25.9-8.564.5.524,1.365-.95-.928-.858Zm4.414,35.647c-.872-.2-1.546-.683-2.006.581C44.618,169.627,45.231,169.816,45.813,168.635Zm-6.839-36,1.611.814.323-.388-.932-1.339Zm-6.3,14.992.421-1.207-1.673-.84-.31.45Zm-14.319.491.275-1.467-2.076.229Zm49.5-1.945c-1.16.939-1.226.975-.962,1.468.1.178.591.142,1.088.241Zm-3.979-1.683a1.174,1.174,0,0,0,1.448,1,3.373,3.373,0,0,0,.792-.358c-.779-.323-1.385-.58-2-.818C64.071,144.3,63.97,144.42,63.876,144.492Zm-42.165-.554-2.443,1.291C20.43,145.765,21.083,145.494,21.711,143.938ZM64.7,139.4c.18,1.24.18,1.24,1.412.853Zm-7.66-3.971H55.317C55.859,136.338,56.339,136.75,57.044,135.429Zm-12.137-1.837v-1.9C43.866,132.419,43.467,132.953,44.907,133.592Zm-25.622,6.722.106.314a3.283,3.283,0,0,0,.976-.2c.247-.137.393-.455.583-.694l-.343-.329Zm28.323-7.358-.572-.7-.717.626c.183.172.351.458.553.485S47.289,133.148,47.608,132.956ZM32.357,148.185l-.53-.356-.44,1.04.285.148Zm20.782-.4c-.352,1.082,0,1.276,1.039,1.179Zm-36.871-6.372.025.36,1.534-.073-.034-.437Z"/>
    <path d="M169.773,164.451a15.97,15.97,0,0,1-1.072,3.6,4.288,4.288,0,0,1-6.64.886,6.62,6.62,0,0,1-.113-9.487c1.192-1.344,4.141-1.28,5.578-.064A6.243,6.243,0,0,1,169.773,164.451Z"/>
    <path d="M142.414,159.028v3.31l-2.09,1.739c-1.154-.113-2.464.54-3.681-.685V158.3c.284-.672,1.009-.769,1.862-.823A4.7,4.7,0,0,1,142.414,159.028Z"/>
    <path d="M158.225,128.821c2.019-.167,2.019-.167,3.381.632v2.517a2.7,2.7,0,0,1-3.381,1.3Z"/>
    <path d="M208.345,138.828h-3.057c-2.326-2.269-1.245-5.085-1.52-7.769l1.663-2.367h2.735a4.153,4.153,0,0,1,1.659,3.253C210.071,135.816,209.966,136.45,208.345,138.828Z"/>
    <path d="M174.675,128.687H177c2.668,2.434,1.093,5.622,1.664,8.415l-1.642,1.779h-2.88c-1.759-1.683-1.607-3.87-1.625-6.029A4.854,4.854,0,0,1,174.675,128.687Z"/>
    <path d="M256.383,130.492c.474,1.459.948,2.919,1.516,4.666l-3.479.2,1.346-4.889Z"/>
    <path d="M190.15,128.729h3.235l.987,3.238-1.532,1.444h-2.69Z"/>
    <path d="M40.875,159.265c-1.45-1.3-1.45-1.3-.248-2.854a1.207,1.207,0,0,1,1.4,1.148A1.357,1.357,0,0,1,40.875,159.265Z"/>
    <path d="M41.914,152.017H39.859v-2.171h2.055Z"/>
    <path d="M39.682,153.366h2.2l.216,2.127-2.221.246Z"/>
    <path d="M48.019,156.555v2.6H46.436v-2.78Z"/>
    <path d="M45.146,159.214H43.433l-.25-2.645,1.709-.255Z"/>
    <path d="M36.656,156.427h1.713l.151,2.734-1.71.137Z"/>
    <path d="M40.79,159.917a1.553,1.553,0,0,1,1.06,2.306H39.959C39.449,161.207,39.76,160.5,40.79,159.917Z"/>
    <path d="M36.779,162.423V160.08H38.36v2.155Z"/>
    <path d="M43.369,162.38v-2.309h1.583v2.214Z"/>
    <path d="M38.44,149.912v2.074l-1.616.131-.142-2.456Z"/>
    <path d="M43.177,149.795h1.784v2.224L43.4,152.1Z"/>
    <path d="M48.016,149.62v2.349H46.388L46.3,149.88Z"/>
    <path d="M47.911,162.38l-1.511-.092-.1-2.137,1.61-.241Z"/>
    <path d="M38.53,155.6l-1.655.115-.2-2.307H38.4Z"/>
    <path d="M43.21,153.379h1.754v2.239l-1.6.074Z"/>
    <path d="M46.381,155.77v-2.364h1.588v2.125Z"/>
    <path d="M32.983,139.718l-1.031,1.241,1.584,2.561H29.1c-.633,2.235.008,4.434-.417,6.7a4.775,4.775,0,0,1-3.4-2.106,2.09,2.09,0,0,1,.338-.715,2.785,2.785,0,0,1,.823-.361v-2.363c2.623-1.412,4.007-3.767,5.21-6.651Z"/>
    <path d="M56.48,143.118l2.481,1.619-.624,2.285,1.767.584c-.417,1.708-1.846,2.1-3.34,2.759-.5-2.5-.178-4.916-.224-7.312Z"/>
    <path d="M56.54,143.053l-4.748.266-.079-.947,1.721-1.215-1.214-1.765,1.008-1.239,3.252,4.965Z"/>
    <path d="M37.91,124.491l-.751-4.386c1.675-2.028,2.814-.4,4.2.06l.282,2.991,1.416.181.362-2.876c2.9-1.965,3.081-1.971,4.714-.045l-1.494,3.852c-1.932-.137-3.785-.355-5.638-.364a18.673,18.673,0,0,0-3.171.51Zm3.2-2.521-1.585-1.312-1.2,1.508,1.457,1.206Zm5.488-.013-1.571-1.282c-.939,1.176-.571,1.887.4,2.527Z"/>
  </g>
</svg>
