<svg xmlns="http://www.w3.org/2000/svg" viewBox="0 0 300 300">
  <title>exp</title>
  <g>
    <path d="M0,114v72.464H300V114Zm23.59,55.436-5.533-38.408H31.564L33.3,155.112h.218l11.555-24.086H59.557L37.586,169.434Zm43.562,0H54.512l6.781-38.408h12.64Zm41.773-5.94a22.148,22.148,0,0,1-7.434,4.4,27.294,27.294,0,0,1-9.332,1.545H74.475l6.781-38.408H97.151a24.782,24.782,0,0,1,6.537.894,17.577,17.577,0,0,1,5.914,2.849,15.161,15.161,0,0,1,4.313,5.072,15.772,15.772,0,0,1,1.682,7.567,22.917,22.917,0,0,1-1.763,9.142A19.815,19.815,0,0,1,108.925,163.494Zm23.709-19.123a16.4,16.4,0,0,0,3.027,1.247,28.37,28.37,0,0,1,4.432,1.845,13.6,13.6,0,0,1,3.3,2.387,9.643,9.643,0,0,1,2.081,3.092,9.987,9.987,0,0,1,.73,3.906,11.686,11.686,0,0,1-1.62,6.294,13.411,13.411,0,0,1-4.134,4.231,18.275,18.275,0,0,1-5.54,2.387,24.242,24.242,0,0,1-5.9.76,27.715,27.715,0,0,1-4.558-.381,28.12,28.12,0,0,1-4.366-1.084,23.248,23.248,0,0,1-3.934-1.736,15.522,15.522,0,0,1-3.2-2.333l8.571-7.921a7.176,7.176,0,0,0,1.573,1.357,11.3,11.3,0,0,0,1.926,1,13.772,13.772,0,0,0,2.034.651,8.266,8.266,0,0,0,1.9.245,6.341,6.341,0,0,0,3.037-.624,1.97,1.97,0,0,0,1.14-1.818,2.2,2.2,0,0,0-.949-1.736,11.786,11.786,0,0,0-3.554-1.573,29.58,29.58,0,0,1-3.877-1.519,12.67,12.67,0,0,1-3.149-2.088,8.736,8.736,0,0,1-2.088-2.931,10.191,10.191,0,0,1-.759-4.15,12.636,12.636,0,0,1,1.221-5.533,13.011,13.011,0,0,1,3.47-4.422A16.7,16.7,0,0,1,128.814,131a21.261,21.261,0,0,1,6.863-1.058,23.489,23.489,0,0,1,4.068.353,24.461,24.461,0,0,1,3.8.976,19.913,19.913,0,0,1,3.311,1.492,11.081,11.081,0,0,1,2.549,1.953l-8.029,7.758a6.852,6.852,0,0,0-2.387-1.763,8.064,8.064,0,0,0-3.417-.679,5.724,5.724,0,0,0-2.741.652,2.135,2.135,0,0,0-1.221,2.007A1.858,1.858,0,0,0,132.634,144.371Zm37.018,25.063H157.12l2.766-15.787-10.144-22.621h14l4.124,11.88,8.191-11.88h15.3l-18.934,22.621Zm25.5-3.987a7.375,7.375,0,0,1-1.519,2.414,7.027,7.027,0,0,1-2.359,1.628,8.269,8.269,0,0,1-5.8.135,5.861,5.861,0,0,1-3.363-3.119,5.24,5.24,0,0,1-.461-2.17,8.026,8.026,0,0,1,.542-2.957,7.179,7.179,0,0,1,1.547-2.414,7.334,7.334,0,0,1,2.387-1.627,7.652,7.652,0,0,1,3.065-.6,7.328,7.328,0,0,1,2.657.461,6.017,6.017,0,0,1,2.035,1.275,6.349,6.349,0,0,1,1.33,1.845,5.028,5.028,0,0,1,.489,2.17A8.015,8.015,0,0,1,195.15,165.447Zm38,1.573a18,18,0,0,1-3.391,1.763,25.218,25.218,0,0,1-4.259,1.248,25.889,25.889,0,0,1-5.236.489,23.225,23.225,0,0,1-7.73-1.194,15.952,15.952,0,0,1-5.75-3.418,14.709,14.709,0,0,1-3.609-5.37,18.815,18.815,0,0,1-1.248-7,24.677,24.677,0,0,1,1.71-9.222,22.642,22.642,0,0,1,21.4-14.377,23.169,23.169,0,0,1,8.788,1.546,15.247,15.247,0,0,1,5.806,3.825l-8.734,9.006a5.845,5.845,0,0,0-2.578-2.089,9.164,9.164,0,0,0-3.607-.678,8.241,8.241,0,0,0-3.743.841,8.818,8.818,0,0,0-2.875,2.278,10.526,10.526,0,0,0-1.846,3.336,12.5,12.5,0,0,0-.65,4.069,6.862,6.862,0,0,0,1.763,4.774,6.76,6.76,0,0,0,5.289,1.953,8.735,8.735,0,0,0,3.853-.867,11.975,11.975,0,0,0,3.091-2.117l6.186,9.223A28.576,28.576,0,0,1,233.154,167.02Zm46.112-10.551a21.424,21.424,0,0,1-4.721,7.269,22.271,22.271,0,0,1-7.378,4.883,24.9,24.9,0,0,1-9.629,1.79,24.1,24.1,0,0,1-8.164-1.275,16.429,16.429,0,0,1-5.969-3.607A15.34,15.34,0,0,1,239.743,160a19.236,19.236,0,0,1-1.247-7.053,23.73,23.73,0,0,1,1.682-8.951,21.547,21.547,0,0,1,12.071-12.153,24.748,24.748,0,0,1,9.575-1.79,24.284,24.284,0,0,1,8.218,1.276,16.46,16.46,0,0,1,5.969,3.607,15.385,15.385,0,0,1,3.661,5.534,19.278,19.278,0,0,1,1.248,7.053A24.1,24.1,0,0,1,279.266,156.469Z"/>
    <path d="M266.028,143.475a6.259,6.259,0,0,0-2.223-1.491,7.913,7.913,0,0,0-3.011-.543,8.125,8.125,0,0,0-3.826.9,9.213,9.213,0,0,0-2.9,2.36,10.851,10.851,0,0,0-1.843,3.364,11.776,11.776,0,0,0-.653,3.852,7.976,7.976,0,0,0,.463,2.739,6.311,6.311,0,0,0,1.356,2.225,6.216,6.216,0,0,0,2.224,1.491,8.055,8.055,0,0,0,3.066.543,8.151,8.151,0,0,0,3.8-.868,9,9,0,0,0,2.876-2.333,10.859,10.859,0,0,0,1.845-3.363,11.992,11.992,0,0,0,.651-3.907,8,8,0,0,0-.462-2.739A6.347,6.347,0,0,0,266.028,143.475Z"/>
    <path d="M100.732,143.7a6.678,6.678,0,0,0-2.359-1.524,9.188,9.188,0,0,0-3.391-.57H91.618l-3.037,17.034h4.067a10.2,10.2,0,0,0,4.286-.844,9.178,9.178,0,0,0,4.965-5.387,10.992,10.992,0,0,0,.624-3.674,8.74,8.74,0,0,0-.436-2.777A5.859,5.859,0,0,0,100.732,143.7Z"/>
  </g>
</svg>
