<svg xmlns="http://www.w3.org/2000/svg" viewBox="0 0 300 300">
  <title>exp</title>
  <g>
    <path d="M119.266,219.118c-.075-.3-.1-.6-.175-.85Q108.554,186.7,98.043,155.1q-8.475-25.2-16.849-50.469c-.075-.25-.175-.55-.25-.9H96.368q11.474,34.383,22.948,68.843h.15q15.3-45.858,30.572-91.716h.174c3.4,10.149,6.75,20.3,10.149,30.472q5.1,15.336,10.224,30.647,5.1,15.3,10.2,30.547h.15a.109.109,0,0,0,.075-.025.285.285,0,0,0,.075-.15q11.438-34.272,22.848-68.543h15.424q-19.2,57.519-38.372,115.013a.425.425,0,0,0-.175.025c-1.724-5.049-3.4-10.124-5.074-15.2-1.725-5.125-3.4-10.224-5.125-15.374-1.674-5.074-3.4-10.2-5.124-15.273-1.675-5.075-3.4-10.2-5.075-15.274-1.724-5.124-3.424-10.224-5.124-15.348-1.675-5.075-3.4-10.149-5.224-15.224-.1.325-.225.675-.325.975q-9.45,28.459-18.974,56.895c-3.724,11.248-7.5,22.472-11.248,33.721a1.629,1.629,0,0,1-.075.4A.563.563,0,0,0,119.266,219.118Z"/>
    <path d="M274.975,159.1c-.075.525-.15,1.05-.25,1.575a21.815,21.815,0,0,1-6.824,11.974q-.338.338-.75.675c2.5,7.549,5,15.048,7.549,22.622H259.277c-1.95-5.849-3.925-11.748-5.9-17.648H234.7v17.648H220.081V134.427c.324,0,.624-.025.9-.025,10.724,0,21.423-.025,32.147,0a21.891,21.891,0,0,1,21.423,16.8c.175.775.3,1.575.45,2.35C274.975,155.4,274.975,157.249,274.975,159.1Zm-40.321,4.575h18.073a10.07,10.07,0,0,0,1.225-.075,7.308,7.308,0,0,0-.7-14.574c-5.974-.025-11.949,0-17.923,0h-.675Z"/>
    <path d="M25,162.849c.175-.9.325-1.8.525-2.7A32.415,32.415,0,0,1,41.8,136.7a31.788,31.788,0,0,1,17.774-4.174,32.5,32.5,0,0,1,16.548,5.5c.325.225.625.45.975.7-1.675,5.05-3.35,10.049-5.075,15.2-.25-.3-.475-.475-.675-.7A17.722,17.722,0,0,0,61,147.45a18.07,18.07,0,1,0,8.2,31.9,1.4,1.4,0,0,0,.6-1.2c-.025-1.275,0-2.575,0-3.849,0-.225-.025-.475-.025-.775H57.9V159.049c.025,0,.025-.025.075-.075.025-.025.025-.025.075-.025a1.425,1.425,0,0,1,.325-.025h25.6a1.013,1.013,0,0,1,.3.075,6.192,6.192,0,0,1,.075.675v24.373a1.438,1.438,0,0,1-.25,1A35.764,35.764,0,0,1,74.17,193.7,32.761,32.761,0,0,1,26,172.848c-.3-1.225-.45-2.55-.675-3.775-.075-.4-.225-.85-.325-1.275Z"/>
  </g>
</svg>
