<svg xmlns="http://www.w3.org/2000/svg" viewBox="0 0 300 300">
  <title>exp</title>
  <g>
    <path d="M149.593,92.69c15.921-.433,30.468,2.414,44.036,9.5,6.913,3.607,12.966,8.281,16.469,15.547,3.35,6.949,2.893,13.684-1.131,20.282-3.432,5.628-8.573,9.322-14.087,12.478-9.274,5.308-19.415,7.964-29.96,9.505a107.246,107.246,0,0,1-31.548-.208c-12.086-1.8-23.6-5.471-33.52-12.823a38.259,38.259,0,0,1-8.646-9.115c-5.449-8.014-4.745-16.937,1.343-24.493,5.854-7.267,13.658-11.646,22.2-14.9A87.054,87.054,0,0,1,149.593,92.69Zm.517,3.025c-5.9.628-11.849.929-17.674,1.957-10.339,1.826-19.883,5.659-27.925,12.677-10.222,8.92-10.884,21.73-1.28,31.27a38.589,38.589,0,0,0,10.129,7.451c23.682,11.4,47.686,11.382,71.656.925a35.052,35.052,0,0,0,14.392-11.189c6.674-8.984,5.187-18.091-1.35-25.737-4.195-4.906-9.54-8.255-15.4-10.835C172.3,97.672,161.4,95.985,150.11,95.715Z"/>
    <path d="M0,206.056V174.825c5.722,0,11.43-.184,17.118.073a6.908,6.908,0,0,1,3.457,12.626c-.607.432-1.219.857-2.108,1.482,2.982,1.444,5.664,2.828,6.471,6.075a8.535,8.535,0,0,1-7.481,10.859C11.8,206.467,6.063,206.056,0,206.056ZM15.185,202.3c2.5-2.784,3.684-5.439,1.563-8.552-1.931-2.833-4.642-3.244-9.6-1.693V202.3ZM7.049,187.484l7.329-.431c2.786-3.308,2.66-5.788-.247-8.332H7.049Z"/>
    <path d="M299.478,206.242l-7.227-.47a20.319,20.319,0,0,1-3.893,1.323,8.9,8.9,0,0,1-10.172-5.662,18.639,18.639,0,0,1-.738-12.9c2.029-6.547,5.779-9.027,12.5-7.875a34.073,34.073,0,0,1,3.508,1.022V175h5.6C300.077,179.215,300.348,196.553,299.478,206.242Zm-9.914-2.852,3.9-2.506V186.271l-4.85-2.256c-5.779,2.833-5.028,7.679-4.883,12.181C283.84,199.666,285.02,202.583,289.564,203.39Z"/>
    <path d="M247.644,206.261l-7.1-.478a48.1,48.1,0,0,1-7.1,1.347c-4.178.238-7.051-1.945-7.736-5.321-.874-4.307.7-7.79,4.661-9.422a73.213,73.213,0,0,1,7.693-2.254c.721-.208,1.431-.455,2.532-.807-.107-1.443-.211-2.852-.346-4.668l-5.183-.741-3.544,4.191h-4.256c.151-4.446,1.728-6.718,5.687-7.348a31.755,31.755,0,0,1,8.579-.054,5.832,5.832,0,0,1,5.456,5.1,30.623,30.623,0,0,1,.627,4.521C247.692,195.457,247.644,200.59,247.644,206.261Zm-7.175-12.467c-5.13.6-8.225,2.624-8.509,5.768l1.591,3.183,6.918-1.031Z"/>
    <path d="M60.577,206.089H54.054c-.067-4.284-.157-8.432-.19-12.581-.033-4.01-.008-8.021-.008-12.2,2.682-.749,5.019-1.25,7.052.489a49.224,49.224,0,0,1,7.206-1.289c4.364-.142,7.154,1.979,7.432,6.3.4,6.264.1,12.572.1,19.147H69.114V186.629c-3.136-2.315-5.516-1.822-8.537.392Z"/>
    <path d="M50.507,206.452l-6.9-.821c-2.7.538-5.275,1.385-7.879,1.493-4.429.183-6.674-1.657-7.538-5.468-.9-3.969.553-7.274,4.258-9.039A37.584,37.584,0,0,1,37.9,190.9c1.632-.488,3.273-.946,5.454-1.573l-.859-4.973H36.951l-2.967,3.991-4.208-.236c.236-4.571,1.8-6.784,5.768-7.373a31.2,31.2,0,0,1,8.578,0,5.807,5.807,0,0,1,5.315,5.856C49.821,192.857,50.118,199.128,50.507,206.452Zm-7.212-4.6c0-2.906.037-4.778-.024-6.647a5.8,5.8,0,0,0-.493-1.543c-7.459,1.242-9.322,3.5-6.707,8.943Z"/>
    <path d="M212.347,194.553H194.972c.3,3.77.246,7.062,3.831,8.671,2.256,1.012,3.994-.4,6.716-5.124h4.742c.273.552.632.928.56,1.181-1.7,5.91-5.013,8.182-11.474,7.917-5.707-.234-9.441-3.322-10.607-8.65a19.547,19.547,0,0,1,.073-10.193c1.5-4.829,5.4-7.755,10.752-7.91,5.789-.168,9.445,2.049,11.2,7.058A67.406,67.406,0,0,1,212.347,194.553Zm-6.723-3.807-3.305-6.377c-5.6.295-6.062.788-6.449,6.377Z"/>
    <path d="M122.67,180.437c7.542-.136,11.028,4.068,11.638,12.689.346,4.892-1.03,9.659-5.671,12.445-4.326,2.6-8.821,2.358-13.048-.35a9.738,9.738,0,0,1-3.124-3.229,16.954,16.954,0,0,1-1.763-12.251C112.091,183.383,116.1,180.388,122.67,180.437Zm-2.943,4.252c-3.556,4.8-2.617,10.108-1.643,15.331a4.142,4.142,0,0,0,4.121,3.389c2.2.095,3.511-1.246,4.22-3.2a18.166,18.166,0,0,0-.1-12.876C125.313,184.611,123.275,183.564,119.727,184.689Z"/>
    <path d="M251.311,181.45c4.291-.8,4.291-.8,7.039.478,2.7-.512,5.24-1.332,7.8-1.4,3.974-.1,6.725,2.226,6.912,6.146.3,6.268.08,12.562.08,19.244L268,206.2a6.389,6.389,0,0,1-.777-1.822c-.085-3.83-.092-7.66-.125-11.491a30.41,30.41,0,0,0-.057-3.445c-.508-4.1-2.3-5.287-6.224-4.134a17.972,17.972,0,0,0-2.577,1.337v19.322h-6.755C251.234,197.64,251.475,189.509,251.311,181.45Z"/>
    <path d="M144.058,206.064h-5.34a5.233,5.233,0,0,1-.675-1.636c-.069-7.11-.169-14.223-.089-21.332.076-6.627,4.474-10.178,10.98-9.024a23.253,23.253,0,0,1,2.985.986c.051.917.1,1.79.151,2.7-2.251.29-4.526.025-6.137.935-1.9,1.072-2.282,3.4-1.457,5.869l3.869.975.3,2.46-4.584,1.478Z"/>
    <path d="M168.134,175.155v30.154c-1.816,1.548-3.881.883-6.529.6-.524-5.138-.184-10.282-.243-15.4-.058-4.976-.013-9.955-.013-15.357Z"/>
    <path d="M221.625,206.012h-5.314c-1.193-3.845-1.511-21.834-.513-30.976h5.492C222.371,179.037,222.626,197.864,221.625,206.012Z"/>
    <path d="M173.72,181.272c3.881-.731,3.881-.731,6.61,1.259l6.611-2.5.537,4.705c-1.117.359-1.991.636-2.862.921-3.376,1.108-4.781,3.578-4.8,6.987-.016,3.442.01,6.883-.029,10.324-.01.914-.189,1.825-.318,2.985H173.72Z"/>
    <path d="M80.13,175.011h5.254c1.108,3.862,1.366,23.088.4,30.523-.3.194-.6.54-.91.555-1.3.063-2.6.026-3.9.026a6.04,6.04,0,0,1-.729-1.762c-.076-5.352-.1-10.7-.116-16.056C80.119,183.965,80.13,179.632,80.13,175.011Z"/>
    <path d="M95.193,180.887h5.961L93.4,190.955l8.971,14.958H94.535l-7.807-13.434Z"/>
    <path d="M123.471,133.562c3.538,1.379,7.149,3.049,10.92,4.195,5.276,1.6,10.852,2.31,14.7,5.227,5.656-1.8,10.727-3.327,15.744-5.022,4.087-1.382,8.109-2.958,12.392-4.534-.3,2.155-.66,4.733-.969,6.944-3.331,2.8-6.891,3.606-10.393,4.537-3.138.835-6.367,1.42-9.393,2.551-2.269.848-4.28,2.388-6.613,3.74-2.719-2.979-6.872-3.888-10.889-5.058-2.934-.855-5.932-1.5-8.843-2.419C123.332,141.575,122.647,140.377,123.471,133.562Z"/>
    <path d="M149.244,130.009l27.348-9.169c.925,5.727-.016,7.546-5.927,9.492-3.813,1.255-7.779,2.038-11.628,3.194-3.274.983-6.766,1.679-8.941,5.148-3.252-3.805-7.768-4.845-12.217-6.007-2.593-.677-5.245-1.149-7.8-1.931-6-1.832-7.253-3.952-6.639-10.027,4.131,1.457,8.363,3.053,12.662,4.438C140.815,126.667,145.922,127.13,149.244,130.009Z"/>
    <path d="M150.165,125.949a20.1,20.1,0,0,0-10.665-5.507,85.479,85.479,0,0,1-9.418-2.562c-6.449-2.111-7.317-3.6-6.541-10.775,3.65,3.242,8.149,4.22,12.582,5.409,4.791,1.285,9.81,2,13.912,5.337,4.723-3.722,10.626-4.124,16.008-5.966,3.583-1.226,7.1-2.632,10.569-3.927.835,6.039-.047,7.728-6,9.69-3.812,1.256-7.79,2-11.627,3.187C155.728,121.841,152.175,122.443,150.165,125.949Z"/>
  </g>
</svg>
