<svg xmlns="http://www.w3.org/2000/svg" viewBox="0 0 300 300">
  <title>exp</title>
  <g>
    <path d="M3,66.25v167H0v-167Z"/>
    <path d="M120.75,233.75c-4.884-1.624-8.015-4.942-8.866-10-.983-5.835.125-11.177,5.154-14.975,3.757-2.837,10.434-2.774,14.284-.069a8.844,8.844,0,0,1,3.741,6.767c-.94,0-1.885.05-2.819-.031a1.087,1.087,0,0,1-.727-.666c-.851-3.04-3.016-4.53-5.968-4.918-3.09-.406-5.91.241-7.967,2.831-2.965,3.734-3.252,10.529-.643,14.511a8.367,8.367,0,0,0,8.792,3.667,7.425,7.425,0,0,0,6.348-6.055,16.736,16.736,0,0,0,.179-2.121h-8.2v-2.944h11.371v13.881c-.875-.247-1.852-.244-2.312-.729-.5-.531-.526-1.514-.687-2.056L127,233.75Z"/>
    <path d="M79.25,233.75c-3.547-1.393-4.732-3.345-4.061-6.645a4.427,4.427,0,0,1,3.166-3.545c1.938-.589,3.959-.909,5.945-1.338.528-.114,1.073-.159,1.591-.3.916-.254,1.745-.642,1.817-1.771a2.436,2.436,0,0,0-1.4-2.688,6.346,6.346,0,0,0-5.772.187c-.821.485-1.255,1.624-2.068,2.748H75.9a5.569,5.569,0,0,1,3.883-5.689,12.561,12.561,0,0,1,7.015-.362c2.858.6,4.1,2.192,4.159,5.224.044,2.373.011,4.747.012,7.121,0,.833-.006,1.666.006,2.5.022,1.7.026,1.7,1.778,1.852,0,.934.507,1.939-.5,2.711h-3l-1.5-2.173L83.5,233.75Zm8.458-9.684c-1.6.268-3.073.466-4.523.775a13.246,13.246,0,0,0-3.31.967,2.679,2.679,0,0,0-.138,4.691,5.424,5.424,0,0,0,7.971-4.577Z"/>
    <path d="M181,233.75c-5.427-2.14-7.885-6.993-6.441-12.714a8.81,8.81,0,0,1,8.714-7.008c4.453.171,7.534,3.1,8.245,7.862.14.935.187,1.883.3,3.047H177.8a5.152,5.152,0,0,0,3.678,5.795c3.214.9,5.319-.095,6.874-3.323h2.861a6.817,6.817,0,0,1-4.325,5.818c-.458.187-.926.349-1.389.523Zm7.157-11.773a5.1,5.1,0,0,0-5.747-5c-2.668.2-4.814,2.545-4.5,5Z"/>
    <path d="M260.5,233.75a10.535,10.535,0,0,1-5.328-15.611,8.488,8.488,0,0,1,9.141-3.9c3.749.715,5.574,3.38,6.415,6.842a32.819,32.819,0,0,1,.465,3.868h-14.1a5.837,5.837,0,0,0,1.332,4.289c1.955,2.439,7.955,2.629,9.061-1.275a1.231,1.231,0,0,1,.894-.62,20.065,20.065,0,0,1,2.412-.029,7.445,7.445,0,0,1-4.093,5.711c-.549.276-1.133.485-1.7.724Zm7.118-11.788c-.346-3.091-2.4-5-5.275-5.008s-4.908,1.9-5.225,5.008Z"/>
    <path d="M145.25,233.75c-5.736-2.26-8.087-6.926-6.538-12.974a8.663,8.663,0,0,1,9.141-6.75c4.655.208,8.062,3.133,8.637,7.646a16.751,16.751,0,0,1-.1,5.073c-.682,3.7-3.043,5.982-6.642,7Zm8.233-9.757-.2-.055c-.027-.5-.029-1-.086-1.494-.357-3.049-2.4-5.24-5.079-5.46a5.423,5.423,0,0,0-5.984,4.172,9.236,9.236,0,0,0,.376,6.579,5.188,5.188,0,0,0,4.906,3.237,5.052,5.052,0,0,0,5.051-3.176A24.706,24.706,0,0,0,153.483,223.993Z"/>
    <path d="M43,233.75c-5.739-2.241-8.1-6.91-6.548-12.964a8.667,8.667,0,0,1,9.257-6.754c4.671.283,8,3.224,8.539,7.754a16.825,16.825,0,0,1-.114,4.95c-.68,3.7-3.046,5.977-6.634,7.014Zm8.291-9.534a29.092,29.092,0,0,0-1.075-4.067,5.027,5.027,0,0,0-5.034-3.195,5.092,5.092,0,0,0-4.91,3.216,9.025,9.025,0,0,0,.006,7.614,5.111,5.111,0,0,0,4.437,3.172A4.916,4.916,0,0,0,49.8,228.5,25.064,25.064,0,0,0,51.291,224.216Z"/>
    <path d="M62.75,233.75c-6.243-2.619-8.489-9.459-5.186-15.5,3-5.482,10.682-4.935,13.608-2.229a6.666,6.666,0,0,1,2.124,4.509H70.148c-.018-.016-.119-.057-.138-.122-.8-2.721-2.728-3.688-5.463-3.414-2.423.243-4.056,1.753-4.649,4.5a10.733,10.733,0,0,0,.239,5.914,4.97,4.97,0,0,0,5.373,3.555c2.347-.1,3.8-1.369,4.506-3.92.043-.157.121-.3.248-.614H73.27a7.516,7.516,0,0,1-4.74,6.844c-.424.163-.853.313-1.28.469Z"/>
    <path d="M300,233.5c-.955-.048-1.916-.042-2.863-.155-2.29-.275-3.122-1.174-3.153-3.522-.048-3.662-.021-7.325-.025-10.988v-1.5h-3.136v-2.845h3.114v-5.577h3.216V214.5H300v2.75l-2.7.148c-.028.5-.074.945-.075,1.389q-.009,4.751,0,9.5c0,2.119.141,2.251,2.276,2.242.167,0,.333-.018.5-.028Z"/>
    <path d="M24.492,81.083l.6-3.207-.982-1.362a22.09,22.09,0,0,1,9.563-3.788l.288,1.938,1.418.724-.881.557,2.218,2.34-.872.423,1.408,1.859-.968.147,1.177,3.854.908-.062-2.591,4L34.31,87.337l-.165.155c1.123,1.287,2.553,2.424,3.279,3.906.65,1.326,1.793,2.838.707,4.6l-.383-.823-.855,1.476-.493-.42v-.694l-1.671.155.884-3.065L34.8,92.8l-.188-.828-.79.289-.23-.763-3.378.363-.1.31c.539.394,1.069.8,1.618,1.178,1.688,1.162,2.463,3.016.18,4.48a1.167,1.167,0,0,0-.217,2.057c1.068,1.062,1.988,2.357,3.911,1.513,1.029-.451,2.126.729,1.968,2-.192-.1-.345-.194-.508-.261-.147-.06-.3-.092-.479-.143l-.733,1.636-.522-.968c-1.083.4-2.108.4-2.759-.973l-.637,1.119-1.392-1.971-.541.635L28.235,99.14c1.744-1.453,1.828-2.79.218-4.156a1.7,1.7,0,0,0-.112.457c.223,3.321-1.536,5.421-4.417,6.508-2.209.833-2.238,2.264-1.182,4.3.386.746,1.017,1.187,1.928.458.93-.744,1.721.108,2.5.461.183.083.111.725.2,1.45l-1.014-.8-.342,1.31-4.776.66v-1.757l-1.245.113.2-2.3-.759.575c-1.24-1.72.3-3.194.407-4.783,2.233-.363,2.471-.653,2.969-3.029.26-1.236.678-2.44.919-3.736-.529.777-1.1,1.529-1.578,2.335a2.7,2.7,0,0,1-3.323,1.16l1.007-.785-2.407-.688.086-.417.806-.116c-.757-1.975.131-3.5,1.343-4.9.9-1.039,1.917-1.977,2.776-3.045a5.321,5.321,0,0,0,1.06-2.068c.3-1.345-.418-1.852-1.811-1.416.313,1.865-.11,2.723-1.828,3.611-1.246.645-2.509,1.257-3.854,1.928.076-1.589,1.687-1.842,2.794-2.88l-1.519.458c.425-.87.816-1.655,1.192-2.447s.849-1.41,1.893-1.287a2.15,2.15,0,0,0,1.021-.326,1.783,1.783,0,0,1,2.3.278,3.072,3.072,0,0,1,.724,2.2,8.38,8.38,0,0,1-1.593,2.9c-.809,1.051-1.887,1.895-2.689,2.95a6.509,6.509,0,0,0-1.1,2.438,1.641,1.641,0,0,0,.57,1.461,2.846,2.846,0,0,0,1.839-.139,2.329,2.329,0,0,0,.961-.951c2.358-3.522,4.829-6.99,5.737-11.289l-1.291,1.607-.237-.108.345-4.087-.978,2.966-.56-.1.279-4.355.236.047-1.157,1.443Zm4.1-3.3c1.022.594,2.343.585,1.7,2.14-.105.256.381.84.713,1.14.105.1.856-.222.863-.373a2.528,2.528,0,0,0-.321-1.344c-.155-.267-.584-.374-.957-.591l.913-2.029Z"/>
    <path d="M74.489,104.218c.175,1.619-.284,2.082-2.034,2.051-.1.52-.191,1.04-.3,1.636l-1.245-.074c.569,1.841-.119,2.327-2.866,1.926.615-.8,1.176-1.49,1.694-2.214.3-.413.521-.877.778-1.319l-.023.026.233-3.458c-2.818-.754-4.66-2.153-5.1-4.921-1.929.186-2.3,1.064-1.274,3.351-1.787.74-3.561,1.519-5.377,2.182-.307.112-.8-.273-1.187-.422-.154.405-.237,1.156-.507,1.231a16.1,16.1,0,0,1-2.875.271c1.188-1.406,2.1-2.44,3.735-2.6a15.269,15.269,0,0,0,3.253-.807c.933-.31,1.145-1.025.429-1.723a2.711,2.711,0,0,1-.754-3.175c.517-1.282,1.7-1.607,2.951-1.742.4-.044.8-.108,1.206-.162l.174-.4-4.79-2.825a1.225,1.225,0,0,1-2.009-.063c-.3-.386-.162-1.1-.249-1.909l-1.519-.23a3.413,3.413,0,0,0,2.332,2.972c.493.168.863.7,1.273,1.048l-.549,1.094c-2.818-.411-3.411-2.885-4.454-4.9-.364-.7.148-1.266.942-1.382.475-.069.963-.054,1.641-.086-.945-1.554-1.868-2.78-3.676-3.027,1.123-1.4,1.659-1.476,2.794-.557.1.078.187.228.286.232A2.536,2.536,0,0,1,60.06,86.61l.363-.125q1.021-2.757,2.044-5.515c1.777.607,4.9-1.332,4.947-3.07-.913,1.415-1.242,1.512-3.084.956l-1.845,2.136-1.452-1.44,1.276-.815-.076-.213-1.773.683-.348-.179c.2-.537.247-1.248.627-1.579,1.078-.941,2.291-1.727,3.571-2.662l-5.174-6.534.277-.264,6.167,6.032.268-.994,4.024,2.422,2.065,2.645c.121,1.678.225,3.135.336,4.672l-.9-.225-.143,2.689-.958-.422c-.051.065-.158.165-.143.189a.922.922,0,0,1-.274,1.364c-.259.2-.431.517-.691.719-2.1,1.634-2.043,2.434-.224,4.624a5.477,5.477,0,0,1,1.972-.206,1.52,1.52,0,0,1,.715,1.264c-.025.377-.6.718-1.006,1.146.581.972,1.242,2.115,1.94,3.234a1.5,1.5,0,0,0,1.9.79,1.459,1.459,0,0,0,.943-1.927,9.863,9.863,0,0,0-1.531-2.636c-.661-.844-1.6-1.475-2.245-2.328a3.6,3.6,0,0,1-.537-3.982,2.749,2.749,0,0,1,3.382-1.3c1.445.383,2.359,1.038,2.48,2.612.026.336.334.65.549,1.041H76.446c.692.538,1.348,1.031,1.978,1.555.1.08.078.3.144.593-.99-.439-1.874-.821-2.751-1.222-1.925-.881-2.348-1.693-1.956-3.724a1.8,1.8,0,0,0-2.237,2.189,6.34,6.34,0,0,0,1.153,2.29,13.411,13.411,0,0,0,1.7,1.647c1.572,1.5,2.421,3.178,1.276,5.341h.63c.089.789-1,1.15-2.718,1.073l1.1.756c-1.21.637-2.211.106-2.6-1.26-.2-.687-.519-1.339-.877-2.242-.393,1.1-.688,1.895-.964,2.7-.513,1.493.144,2.424,1.857,2.419.024.467.058.944.071,1.422.013.456,0,.912,0,1.292h2.254ZM66.824,83.006l-.927.569c-.069.041-.165.062-.205.121-.628.927-.679.927-1.387-.122l.782-.238-.194-1.489-1.169.886.367,1.012-1.788-.83c.33,1.015,5.649,4.071,6.5,3.8l-1.406-1.153.955-.121.278-1.589-1.487.708.227.765-.273.236-.936-.706Z"/>
    <path d="M18.332,131.052c.1-.065.168-.149.238-.15,4.4-.071,8.834-.5,13.18.487a9.5,9.5,0,0,1,7.579,7.73,19.528,19.528,0,0,1-.494,10.59c-1.246,3.766-3.853,6.267-7.746,6.766-4.176.535-8.426.491-12.757.706ZM21.9,153.769c2.492,0,4.87.169,7.214-.041a7.059,7.059,0,0,0,6.4-5.322,15.629,15.629,0,0,0-.067-9.7,6.18,6.18,0,0,0-3.868-4.143c-3.137-1.124-6.389-.621-9.68-.71Z"/>
    <path d="M70.681,111.483a22.775,22.775,0,0,1-3.163,2.149,3.373,3.373,0,0,1-2.479.15,50.894,50.894,0,0,1-4.781-2.647l-4.215-2.4a8.17,8.17,0,0,1,1,2.45,6.75,6.75,0,0,1-.763,2.2,3.082,3.082,0,0,0-.244.7c-.27,2.473-1.94,3.45-4.125,3.807a31.418,31.418,0,0,1-11.3-.094c-1.97-.394-3.369-1.353-3.668-3.507a4.222,4.222,0,0,0-.469-1.283c-.69-1.352-1-2.657.442-3.84l-.276-.258c-1.178.643-2.375,1.252-3.528,1.936-1.394.827-2.725,1.764-4.133,2.567a3.692,3.692,0,0,1-4.617-.412c-.651-.566-1.391-1.029-2.323-1.708a9.16,9.16,0,0,0,2.349-.221,34.7,34.7,0,0,0,4.262-2.017c1.558-.876,2.981-2,4.56-2.825a9.934,9.934,0,0,1,3.289-1.007,2.968,2.968,0,0,1,3.058,1.746c.378.694.738,1.4,1.12,2.089.728,1.316.582,1.9-.693,2.667a7.067,7.067,0,0,0-1.428,1.007,25.247,25.247,0,0,0,16.054.141c-.787-.493-1.337-.8-1.85-1.166-1.086-.768-1.212-1.375-.578-2.537.339-.62.683-1.238,1.009-1.866.967-1.867,2.574-2.658,4.569-1.894a35.407,35.407,0,0,1,4.62,2.426c.9.511,1.741,1.139,2.624,1.688A10.835,10.835,0,0,0,70.681,111.483Z"/>
    <path d="M89.756,195.134h-3.1c-.036-.557-.093-1.041-.094-1.526-.008-3.206,0-6.412,0-9.618,0-.458-.022-.917-.011-1.374.095-4.011-2.783-4.471-5.616-3.531-1.978.656-2.733,2.312-2.739,4.324-.009,3.373,0,6.745-.012,10.118,0,.491-.04.982-.067,1.577H74.95V183.73c0-.333.017-.667-.005-1-.1-1.519-.212-3.045-1.889-3.767a4.829,4.829,0,0,0-4.976,1.078,5.019,5.019,0,0,0-1.553,3.689c.009,3.289,0,6.579,0,9.868v1.489H63.338V176.34h2.908l.11,2.493a7.289,7.289,0,0,1,5.7-3.016c2.346-.052,4.368.611,5.556,3a6.926,6.926,0,0,1,5.177-2.925,12.888,12.888,0,0,1,4.027.545,3.976,3.976,0,0,1,2.9,3.851C89.835,185.189,89.756,190.1,89.756,195.134Z"/>
    <path d="M251.132,233.377h-2.884c-.026-.5-.07-.936-.071-1.377q-.009-4.936,0-9.873c0-.375.006-.75-.006-1.125-.088-2.872-1.048-4-3.452-4.045-2.854-.058-4.858,1.568-4.919,4.172-.082,3.54-.031,7.082-.037,10.623,0,.493,0,.985,0,1.6h-3.282c0-.547,0-1,0-1.443,0-3.667.009-7.333-.009-11-.008-1.5-.16-3.035-1.8-3.656a4.527,4.527,0,0,0-4.8.824,5.19,5.19,0,0,0-1.811,4.093q0,4.875,0,9.749v1.45H224.93V214.541h2.882l.182,2.469a7.208,7.208,0,0,1,5.738-2.951c2.31-.05,4.271.654,5.45,2.979a7,7,0,0,1,5.348-2.919,12.562,12.562,0,0,1,4.016.626,3.8,3.8,0,0,1,2.694,3.593c.117,4.91.057,9.825.06,14.739C251.3,233.147,251.224,233.218,251.132,233.377Z"/>
    <path d="M96.733,195.116h-3.2V176.333h2.928l.124,2.215c4.829-3.743,8.335-3.7,11.3.17a6.73,6.73,0,0,1,5.177-2.833,13.016,13.016,0,0,1,4.358.744,3.974,3.974,0,0,1,2.521,3.865c.115,4.329.066,8.661.082,12.992,0,.5,0,.99,0,1.607h-3.281v-1.421c0-3.665.012-7.33-.01-11-.015-2.491-.822-3.663-2.607-3.9-2.761-.373-4.968.834-5.547,3.094a8.741,8.741,0,0,0-.241,2.1c-.024,3.248-.011,6.5-.011,9.746v1.417h-3.1c-.029-.5-.076-.942-.077-1.383-.007-3.332,0-6.664-.006-10,0-.5-.007-1-.057-1.5-.341-3.368-3.158-4.711-6.027-2.84a4.876,4.876,0,0,0-2.323,4.311q.006,4.874,0,9.746Z"/>
    <path d="M138.83,156.9h-3.1c-.028-.509-.074-.952-.075-1.394-.006-3.332,0-6.665,0-10,0-.458,0-.919-.041-1.373-.139-1.388-.273-2.843-1.847-3.391a4.606,4.606,0,0,0-4.7.793,4.914,4.914,0,0,0-1.824,3.944c.01,3.249,0,6.5,0,9.747v1.619h-3.194V138.1h2.912l.133,2.449a7.265,7.265,0,0,1,5.734-2.966c2.372-.067,4.33.689,5.507,2.99a7.555,7.555,0,0,1,7.625-2.865c2.542.388,4.329,1.817,4.43,4.331.2,4.9.057,9.811.057,14.831h-3.1c-.033-.491-.091-.971-.092-1.451-.01-3.665.008-7.331-.015-11-.017-2.487-.829-3.657-2.619-3.9-2.758-.368-4.974.848-5.537,3.115a10.156,10.156,0,0,0-.238,2.351C138.816,149.571,138.83,153.149,138.83,156.9Z"/>
    <path d="M40.08,176.976H36.724c-.082-.087-.168-.136-.187-.2a6.625,6.625,0,0,0-6.266-5.206c-3.63-.307-6.638.884-8.294,4.3A13.917,13.917,0,0,0,22.1,188.62c1.541,3.11,4.9,4.588,8.55,4.063,3.121-.449,5.284-2.68,6-6.193.074-.359.128-.722.2-1.162h3.336c.407,4.076-2.924,8.731-7.191,9.923-6.961,1.943-14.579-.887-15.819-10.355a16.7,16.7,0,0,1,1.9-10.856c3.82-6.618,12.739-6.783,17.2-3.562A9.049,9.049,0,0,1,40.08,176.976Z"/>
    <path d="M285.1,178.469v-9.333h3.129v25.983h-3.043c-.064-.6-.128-1.2-.214-2.008a7.287,7.287,0,0,1-5.87,2.5,8.1,8.1,0,0,1-5.144-1.592c-2.776-2.161-3.582-5.187-3.586-8.522a13.5,13.5,0,0,1,.211-2.357C272.018,175.018,280.766,174,285.1,178.469Zm-11.48,7.566a22.874,22.874,0,0,0,.976,3.585,5.414,5.414,0,0,0,9.942-.308,9.681,9.681,0,0,0,.139-6.838,5.207,5.207,0,0,0-5.532-3.751c-2.524.056-4.176,1.345-4.924,3.967C273.935,183.678,273.845,184.721,273.616,186.035Z"/>
    <path d="M43.33,77.209c.941-.175.941-.175.9,1.094l-.747-.175-.2.2c.227.212.433.571.686.608.748.11,1.567.221,2.054-.884l-.986.24V76.811l.976.3-.648-1.054h2.164L46.942,77.1l1.011-.285v1.508l-1.1-.35c.824,1.285,2,1.391,2.872.186l-.924.162c-.263-1.249-.159-1.378.9-1.1l.658.261.968-.178.088,1.242-1.007-.266c-.041.16-.1.26-.076.312.523.972,1.324.711,1.977.555L51.96,77.4l.982.508.09-1.088,1.242.443-.027-.018a10.79,10.79,0,0,0-1.711,6.54L55.642,87.2c-1.247,1.04-.9,2.008-.29,3,.586.953,1.156,1.916,1.685,2.9a2.264,2.264,0,0,1,.246,1.051,12.744,12.744,0,0,1-2.975,8.286c-1.737,2.106-3.25,2.346-6.061.782a11.087,11.087,0,0,1,1.572-1.64,9.1,9.1,0,0,0,3.9-7.167H46.9v7.471l1.338.338-.3,1.164-2.153-.742a8.711,8.711,0,0,0,.447-1.786c.049-2.119.02-4.239.02-6.487h-6.84l-2.755-5.441a11.315,11.315,0,0,1,3.823-5.072c-.106-2.436-.4-4.679-1.774-6.587l.261-.207.953-.2-.084,1.266,1-.717-.083,1.755c.584.262,1.349.3,2.113-.917l-1.2.28a2.723,2.723,0,0,1-.1-1.081c.045-.148.612-.134.942-.193Zm2.816,16.462V85.607c-4.115-.088-7.209,4.9-6.714,8.064Zm7.479-.006c.055-4.947-4.135-8.471-6.728-7.962v7.962ZM51.489,83.126c.883-.869.848-1.393-.183-1.723a8.447,8.447,0,0,0-2.687-.464c-2.276.05-4.552.209-6.82.414a1.451,1.451,0,0,0-.941.839c-.089.227.306.645.475.963C45.372,81.451,47.787,81.453,51.489,83.126Z"/>
    <path d="M64.789,154.75v9.344H61.715V138.085h3.056l.1,2.172a7.064,7.064,0,0,1,6.406-2.655c4.712.287,7.928,3.484,8.191,8.413a15.94,15.94,0,0,1-.725,5.992A8.142,8.142,0,0,1,65.2,154.975,2.786,2.786,0,0,0,64.789,154.75Zm-.243-6.939a24.47,24.47,0,0,0,1.32,4.112c1.091,2.136,3.112,2.732,5.4,2.547a4.647,4.647,0,0,0,4.159-3.1,9.675,9.675,0,0,0,.065-7.534,5.11,5.11,0,0,0-5.309-3.341,4.919,4.919,0,0,0-4.848,3.6A34.433,34.433,0,0,0,64.546,147.811Z"/>
    <path d="M249.827,192.824c.4,1.809.234,2.476-.82,2.646-1.953.316-3.382.356-4.113-2.357-.276.2-.534.358-.77.549a8.964,8.964,0,0,1-8.243,1.618,4.621,4.621,0,0,1-3.682-4.211c-.241-2.818.617-4.751,2.949-5.594a52.934,52.934,0,0,1,6.282-1.5c.526-.119,1.071-.165,1.587-.315.914-.266,1.73-.657,1.771-1.8a2.445,2.445,0,0,0-1.419-2.672,6.373,6.373,0,0,0-5.553.132c-.9.5-1.413,1.689-2.327,2.855h-2.424a5.178,5.178,0,0,1,2.991-5.336,11.66,11.66,0,0,1,9.107-.327,4.274,4.274,0,0,1,2.864,4.4c.026,3.247.008,6.5.013,9.742C248.042,192.594,248.045,192.594,249.827,192.824Zm-5.195-6.95c-1.877.311-3.754.605-5.623.943a7.26,7.26,0,0,0-1.658.507,2.841,2.841,0,0,0-1.789,3.1,2.646,2.646,0,0,0,2.6,2.262C242.192,193.041,245.752,191.366,244.632,185.874Z"/>
    <path d="M84.672,143.941H81.95a5.3,5.3,0,0,1,2.464-4.924,10.887,10.887,0,0,1,10.3-.478c1.692.719,2.321,2.308,2.328,4.105.015,3.289.005,6.579.01,9.868,0,1.858.008,1.858,1.938,2.058-.2.908.685,2.1-.805,2.622-2.067.725-3.355.011-4.335-2.4a8.888,8.888,0,0,1-7.553,2.521c-2.82-.261-4.775-1.9-5.071-4.314-.378-3.09.8-5.185,3.705-6.091,1.814-.565,3.729-.807,5.6-1.19.489-.1.989-.153,1.468-.285.867-.24,1.691-.577,1.8-1.643a2.432,2.432,0,0,0-1.252-2.757,6.242,6.242,0,0,0-5.983.2C85.745,141.731,85.355,142.916,84.672,143.941Zm8.958,3.7c-1.713.29-3.428.555-5.133.88a10.5,10.5,0,0,0-2.262.645,2.77,2.77,0,0,0-1.666,2.936,2.54,2.54,0,0,0,2.292,2.292C90.79,154.939,94.867,153.353,93.63,147.637Z"/>
    <path d="M203.032,186.73h-13.8a5.043,5.043,0,0,0,4.634,5.976c2.543.212,4.639-.406,5.6-3.094a.877.877,0,0,1,.6-.5c.85-.059,1.706-.024,2.574-.024a7.3,7.3,0,0,1-6.6,6.459c-7.741.764-10.627-4.662-10.428-10.5.129-3.794,1.754-6.867,5.353-8.5,5.2-2.364,10.531.613,11.782,6.5a14.955,14.955,0,0,1,.272,1.849C203.068,185.422,203.032,185.962,203.032,186.73Zm-3.5-2.983a5.1,5.1,0,0,0-5.648-5.009,4.895,4.895,0,0,0-4.719,5.009Z"/>
    <path d="M170.841,148.5H156.705a5.026,5.026,0,0,0,3.66,5.723c2.467.647,5.491.582,6.872-3.294h2.9c.01,3.018-2.9,5.921-6.327,6.352-6.094.768-10.287-2.762-10.616-8.905a11.6,11.6,0,0,1,1.009-5.833,8.568,8.568,0,0,1,8.143-4.959,7.734,7.734,0,0,1,7.537,5.835A42.277,42.277,0,0,1,170.841,148.5Zm-14.247-3.033h10.55c-.354-3.005-2.325-4.907-5.05-4.978C159.076,140.41,157.186,142.066,156.594,145.467Z"/>
    <path d="M59.414,148.506H45.242a5.171,5.171,0,0,0,4.559,5.945c2.541.254,4.883-.367,5.739-3.045a.99.99,0,0,1,.718-.527c.808-.068,1.627-.025,2.447-.025a7.2,7.2,0,0,1-6.431,6.434c-6.105.712-10.249-2.812-10.566-8.963a11.146,11.146,0,0,1,1.222-6.152,8.3,8.3,0,0,1,7.981-4.572,7.556,7.556,0,0,1,7.419,5.614A44.314,44.314,0,0,1,59.414,148.506ZM55.667,145.5a5.215,5.215,0,0,0-5.974-4.991,4.853,4.853,0,0,0-4.4,4.991Z"/>
    <path d="M60.617,185.9c-.091,3.562-1.177,6.767-4.646,8.649-6.267,3.4-13.371-.707-13.714-7.938a14.433,14.433,0,0,1,.352-3.954,8.576,8.576,0,0,1,9.384-6.844c4.9.407,8.136,3.558,8.539,8.324C60.577,184.679,60.585,185.221,60.617,185.9Zm-3.164.132a31.981,31.981,0,0,0-.9-3.782,5.2,5.2,0,0,0-5.2-3.53,5.255,5.255,0,0,0-5.073,3.545,9.185,9.185,0,0,0,.054,7.051,5.169,5.169,0,0,0,4.418,3.387,4.978,4.978,0,0,0,5.277-2.549A24.62,24.62,0,0,0,57.453,186.036Z"/>
    <path d="M240.033,147.555c.031,4.42-1.938,7.893-5.395,9.147-5.189,1.883-12.148.2-12.876-8.116a13.477,13.477,0,0,1,.338-4.2,8.519,8.519,0,0,1,9.532-6.769,8.7,8.7,0,0,1,8.4,8.441C240.065,146.555,240.033,147.056,240.033,147.555Zm-3.164-.129A28.4,28.4,0,0,0,236,143.95a5.145,5.145,0,0,0-5.111-3.463,5.234,5.234,0,0,0-5.11,3.487,9.156,9.156,0,0,0,.059,7.164,5.433,5.433,0,0,0,6.919,3.067C235.214,153.362,236.707,150.812,236.869,147.426Z"/>
    <path d="M204.423,189.219H207.4a5.856,5.856,0,0,0,8.335,2.942,2.239,2.239,0,0,0,.14-4.031,23.154,23.154,0,0,0-4-1.323c-1.388-.426-2.822-.729-4.168-1.257a4.34,4.34,0,0,1-2.951-4.105,4.636,4.636,0,0,1,2.695-4.57,10.452,10.452,0,0,1,9.168-.124,4.962,4.962,0,0,1,2.888,4.95h-2.927c-1.472-2.829-3.757-3.742-6.757-2.674a2.014,2.014,0,0,0-1.6,1.838,1.888,1.888,0,0,0,1.363,2.017c1.528.522,3.11.885,4.663,1.336a24.4,24.4,0,0,1,3.2,1.012,5.04,5.04,0,0,1,.81,8.835c-2.811,2.017-8.426,2.118-11.3.172A5.711,5.711,0,0,1,204.423,189.219Z"/>
    <path d="M188.722,156.888h-3.149c-.028-.534-.071-.979-.072-1.424,0-3.54,0-7.08,0-10.62,0-2.5-.666-3.669-2.348-4.186-2.124-.652-4.757.067-5.775,1.865a8.37,8.37,0,0,0-1.04,3.638c-.141,3.326-.05,6.661-.057,9.993a6.418,6.418,0,0,1-.091.718H173.13V138.09h2.918v2.795c2.275-3.216,5.214-3.757,8.481-3.035,2.557.565,4.01,2.274,4.144,5.4C188.866,147.729,188.722,152.228,188.722,156.888Z"/>
    <path d="M276.679,233.357h-3.11V214.578h2.949v2.8c2.042-2.916,4.66-3.63,7.722-3.205,2.695.374,4.486,1.935,4.764,4.657.265,2.6.212,5.235.255,7.855.036,2.194.007,4.389.007,6.68H286.06c-.028-.513-.072-.956-.073-1.4,0-3.542,0-7.083,0-10.624,0-2.508-.752-3.8-2.448-4.258-2.243-.6-4.809.219-5.81,2.107a8.2,8.2,0,0,0-.906,3.432c-.12,3.287-.043,6.581-.05,9.873C276.769,232.745,276.719,232.99,276.679,233.357Z"/>
    <path d="M252.068,176.27h2.886l.146,2.648a7.364,7.364,0,0,1,7.592-2.985c2.672.382,4.628,1.979,4.768,4.654.249,4.731.153,9.48.195,14.222,0,.069-.077.139-.176.308h-3.018V193.7q0-5.247,0-10.5c0-2.634-.805-3.979-2.614-4.385a5.109,5.109,0,0,0-5.993,2.686,8.643,8.643,0,0,0-.583,3.026c-.074,3.038-.026,6.079-.032,9.12,0,.448-.037.9-.062,1.45h-3.108Z"/>
    <path d="M158.206,195.139h-2.932c-.026-.5-.068-.941-.069-1.381-.005-3.537,0-7.074,0-10.612,0-2.584-.854-3.953-2.683-4.334-2.523-.525-5.021.5-5.9,2.627a9.358,9.358,0,0,0-.621,3.265c-.083,2.953-.026,5.909-.034,8.864,0,.486-.049.972-.08,1.549h-3.1V176.3h2.9l.145,2.441a2.443,2.443,0,0,0,.387-.29,7.69,7.69,0,0,1,8.943-2.042,4.527,4.527,0,0,1,2.99,4C158.314,185.255,158.206,190.114,158.206,195.139Z"/>
    <path d="M208.959,233.387h-3.15V214.574h2.9c.038.8.074,1.568.122,2.594a7.294,7.294,0,0,1,7.476-3c2.828.381,4.766,1.989,4.907,4.794.235,4.689.125,9.4.154,14.1,0,.071-.073.142-.166.311h-3v-1.425q0-5.246,0-10.49c0-2.608-.831-3.991-2.62-4.391a5.075,5.075,0,0,0-5.992,2.674,9.409,9.409,0,0,0-.6,3.27c-.081,2.912-.029,5.827-.029,8.741Z"/>
    <path d="M135.922,176.284h3.035v18.835h-2.884l-.123-2.373c-.177.108-.329.152-.4.253-2.073,2.864-5.909,3.027-8.5,2.205a4.712,4.712,0,0,1-3.482-4.449c-.177-4.774-.056-9.559-.056-14.438h2.981c.026.405.076.841.077,1.277q.011,5.185,0,10.372c0,3.169,1.022,4.612,3.359,4.755,3.215.2,5.586-1.54,5.763-4.544.2-3.363.1-6.743.147-10.115C135.845,177.489,135.891,176.916,135.922,176.284Z"/>
    <path d="M21.791,230.4H35.476v2.973H18.33V207.4h3.461Z"/>
    <path d="M156.9,214.537h3.506l5.258,15.551,5.114-15.548h3.272c-.113.425-.181.78-.3,1.115-2.024,5.547-4.1,11.077-6.051,16.649-.417,1.191-1.157,1.191-2.1,1.17s-1.763.114-2.221-1.182c-1.952-5.527-4.056-11-6.1-16.5C157.138,215.419,157.046,215.026,156.9,214.537Z"/>
    <path d="M214.436,156.866V140.925l-3.112-.151v-2.721l3.06-.143c.231-2.354-.571-5.012,1.977-6.591a6.908,6.908,0,0,1,5.3-.429v2.3c-1.261.321-2.843.269-3.53,1.027s-.443,2.315-.636,3.719h3.69v2.874H217.7v16.052Z"/>
    <path d="M200.408,154.143v2.96a41.329,41.329,0,0,1-4.98-.506c-1.631-.36-1.911-1.852-1.931-3.27-.049-3.664-.025-7.328-.03-10.993,0-.446,0-.892,0-1.5h-3.142v-2.768l3.092-.149v-5.453h3.322v5.489h3.619v2.875h-3.509c-.042.512-.1.907-.1,1.3q-.011,5,0,9.993c0,1.684.184,1.856,1.84,1.93C199.159,154.076,199.731,154.108,200.408,154.143Z"/>
    <path d="M114.752,132.412h3.294v5.544h3.673v2.878h-3.673v4.592c0,2.208,0,4.417,0,6.625,0,1.706.231,1.932,1.933,2,.571.023,1.142.059,1.76.091v2.746a11.475,11.475,0,0,1-5.27-.379,2.53,2.53,0,0,1-1.539-2.517c-.071-3.747-.1-7.5-.136-11.244-.006-.575,0-1.15,0-1.833l-3.054-.136v-2.726l3.011-.147Z"/>
    <path d="M177.221,192.385v2.922c-1.682-.133-3.3-.139-4.864-.422a2.43,2.43,0,0,1-1.926-2.6c-.082-3.824-.1-7.65-.147-11.475-.006-.527,0-1.055,0-1.728h-3.06v-2.8l3.027-.133V170.7h3.229v5.492h3.733v2.861h-3.669v3.327c0,2.662,0,5.325,0,7.987.005,1.616.252,1.86,1.875,1.933Z"/>
    <path d="M98.17,233.373h-3.1V207.386h3.1Z"/>
    <path d="M197.3,233.371h-3.142V214.555h2.912v3.315c1.687-2.463,3.773-3.922,6.9-3.791v3.332c-.362.04-.759.089-1.157.127-2.941.285-4.955,1.994-5.234,4.933-.286,3.012-.206,6.058-.281,9.089C197.287,232.132,197.3,232.7,197.3,233.371Z"/>
    <path d="M242.778,156.853V138.1h2.915v3.2c1.736-2.384,3.824-3.886,6.969-3.673v3.261c-.315.05-.591.114-.87.136-3.516.28-5.568,2.29-5.735,5.855-.13,2.784-.063,5.577-.083,8.366,0,.492,0,.985,0,1.607Z"/>
    <path d="M104.208,156.9h-3.143V138.094h2.873v3.21c1.737-2.39,3.825-3.891,6.971-3.677v3.262c-.338.053-.615.113-.9.137-3.539.306-5.55,2.29-5.715,5.866-.129,2.783-.069,5.574-.091,8.361C104.2,155.745,104.208,156.237,104.208,156.9Z"/>
    <path d="M162.2,176.3h3.036v18.828H162.2Z"/>
    <path d="M179.711,195.11V176.319h3V195.11Z"/>
    <path d="M35.8,96.917l3.521-.787a24.063,24.063,0,0,0,1.611,3.24c.41.6,1.251.916,1.888,1.372.329.235.818.44.922.76a2.237,2.237,0,0,0,1.718,1.434c2.09.647,4.189,1.266,6.438,1.943A4.809,4.809,0,0,1,48.25,106.5a48.056,48.056,0,0,1-5.325-1.1c-.462-.1-.95-.081-1.4-.2a2.52,2.52,0,0,1-1.293-.554,34.409,34.409,0,0,1-2.767-3.947A35.739,35.739,0,0,1,35.8,96.917Zm7.394,4.523c-1.163-.428-2.188.178-2.711,1.483-.338.844-.25,1.438.871,1.96-.806-1.3-.645-1.6.774-1.931C41.417,101.743,42.355,101.635,43.192,101.44Z"/>
    <path d="M40.686,95.225a34.8,34.8,0,0,1,3.977-.374c.33,0,.909.792.936,1.246.072,1.187-.118,2.387-.165,3.583-.03.785-.23,1.369-.832,1.391C42.543,99.39,40.533,97.927,40.686,95.225Zm1.331,1.416-.445.325,1.862,2.491L43.8,99.2Z"/>
    <path d="M44.939,108.775l.131-2.07,2.812.387.17,1.664c.167.077.452.118.572.281a2.8,2.8,0,0,1,.646,1.212c.041.41-.018.892-.838.892-.375,0-.763,1.025-1.123,1.6-.682,1.086-.834.965-1.694.041-.526-.565-.405-1.716-1.633-1.759-.5-.017-.45-1.432.093-1.834A4.913,4.913,0,0,1,44.939,108.775Zm-.736,1.187,1.8,2.265.344-1.338.24-.013.436,1.271,1.735-2.16c-.385-.624-.385-.624-1.865.542-.148-.864,1.118-1.992-.428-2.472-1.495.516-.292,1.621-.411,2.532C44.626,109.264,44.626,109.264,44.2,109.962Z"/>
    <path d="M162.2,169.146h3.056v3.772H162.2Z"/>
    <path d="M179.744,169.14h3V172.9h-3Z"/>
    <path d="M29.372,70.59l.647.978.9-.734v2.058l-4.381,1.775-2.063-1.823.194-.35,1.491.875-.188-1.417,1.095.772.737-1.094,1.209.408Z"/>
    <path d="M52.226,96.26H47.252l.667-.457-.5-.853.147-.16c.13.09.266.267.388.257.827-.068,1.657-.142,2.476-.278C51.969,94.513,52.5,94.969,52.226,96.26Z"/>
    <path d="M47.339,98.089l.506-.182-.283-.664,1.3-.467.573.667,1.157-.684c.715.334,1.5.595.97,1.543H47.425Z"/>
    <path d="M51,99.169c-.873,1.967-2.252,1.694-3.45,1.527V99.169Z"/>
    <path d="M46.9,67.639l.87-.288v1.336l-.881-.268.216.865H45.828l.186-.868-.916.291V67.343l.935.3L45.745,66.6l1.389-.1Z"/>
    <path d="M47.524,73.266c-.257-.186-.5-.515-.772-.533-.847-.057-1.638-.089-1.776-1.317h2.908l.437,1.734-.818.094Z"/>
    <path d="M74.509,104.243c-.075-.32-.314-.731-.2-.942.317-.566.709-1.343,1.219-1.479a2.014,2.014,0,0,1,1.725.713,1.8,1.8,0,0,1-.135,1.746,3.068,3.068,0,0,1-1.841.478c-.249.019-.527-.349-.792-.54Zm2.983-.932c-.766-.5-1.193-1-1.593-.98-.371.02-1.051.669-1,.905a1.633,1.633,0,0,0,1,1.1C76.253,104.4,76.72,103.841,77.492,103.311Z"/>
    <path d="M70.517,106.224c-.346.124-.749.423-1.027.334a7.233,7.233,0,0,1-1.462-.858c.251-.379.527-1.087.748-1.071a3.729,3.729,0,0,1,1.665.674c.157.1.043.62.053.947Z"/>
    <path d="M68.8,103.066c-.735.594-1.141,1.17-1.577,1.193-.325.017-.982-.7-.961-1.056.027-.465.58-.9.906-1.348Z"/>
    <path d="M60.465,81.814c.46.678.991,1.188.9,1.371a2.893,2.893,0,0,1-1.213,1.135c-.127.066-.919-.651-.861-.827A7.64,7.64,0,0,1,60.465,81.814Z"/>
    <path d="M38.966,77.067l-.261.207c-1.241-.37-.775-1.451-.851-2.242a2.048,2.048,0,0,1,.514-1.285c1.134.18.111.827.206,1.267C38.722,75.695,38.837,76.382,38.966,77.067Z"/>
    <path d="M27.647,71.386,26.3,70.148l.412-1.159.967.535.252,1.491Z"/>
    <path d="M43.33,77.209l-.827.047-.276-2.234C43.632,75.583,43.337,76.45,43.33,77.209Z"/>
    <path d="M50.357,77.485l-.658-.261c-.239-.78-.316-1.518.527-2.043C51.258,75.919,50.523,76.718,50.357,77.485Z"/>
    <path d="M54.274,77.261V74.882l.939.376c-.636.509.43,1.846-.966,1.985Z"/>
    <path d="M47.5,73.244l-.284,2.567c-.846-1.426-.651-2.34.3-2.545Z"/>
    <path d="M45.626,75.48V73.323a1.684,1.684,0,0,1,.417,2.186Z"/>
    <path d="M41.227,91.112l.086-1.537L42.75,89.3l.276.336a6.068,6.068,0,0,1,2.225-.231c.34.106.439.978.681,1.593l-2.5-.116.031-.152Z"/>
    <path d="M42.533,91.971l2.352-.578.713,1.661H40.405l-.011-.25.742-.159c-.2-.311-.394-.623-.591-.934l.178-.163.529.411.727-.585Z"/>
    <path d="M42.168,88.751a6.365,6.365,0,0,1,.9-1.248c1.081-.908,2.372-.3,2.633,1.248Z"/>
    <path d="M47.354,93.037V86.268a7.156,7.156,0,0,1,3.725,2.542,26.3,26.3,0,0,1,2,4.227Zm.653-2.777a6.545,6.545,0,0,0-.164,1.541c.037.313.381.822.617.84,1.178.087,2.366.039,3.606.039.123-1.989-1.155-3.116-2.065-4.417l-2.119-1.426c-.035.8-.088,1.231-.065,1.657C47.85,89.085,47.941,89.672,48.007,90.26Z"/>
    <path d="M47.986,90.239l.91-.171-.86-1.521.2-.17.321.249,1.455-.387c.39.883.8,1.759,1.163,2.652a11.312,11.312,0,0,1,.361,1.282l-.469.235-.611-1.057-1.517.689-.164-.242.677-1Z"/>
  </g>
</svg>
