<svg xmlns="http://www.w3.org/2000/svg" viewBox="0 0 300 300">
  <title>exp</title>
  <g>
    <path d="M107.436,180.908c0,1.963,1.738,2.681,3.439,2.681a4.07,4.07,0,0,0,2.568-.718,2.265,2.265,0,0,0,.791-2.078v-4.227l-2.871.946C109.7,178.039,107.436,178.832,107.436,180.908Z"/>
    <path d="M165.986,170.3c-3.7,0-4.759,3.624-4.759,6.685s1.018,6.831,4.759,6.831c3.662,0,4.677-3.664,4.677-6.683C170.663,174.15,169.648,170.3,165.986,170.3Z"/>
    <path d="M92.023,170.374a5.26,5.26,0,0,0-2.606.64,2.01,2.01,0,0,0-1.133,2.038v7.7c0,2.229,1.928,2.834,3.814,2.834a5.283,5.283,0,0,0,3.739-1.511c1.32-1.323,1.511-3.361,1.511-5.134C97.345,173.435,95.987,170.374,92.023,170.374Z"/>
    <path d="M128.807,170.374a5.252,5.252,0,0,0-2.6.64,2.006,2.006,0,0,0-1.131,2.038v7.7c0,2.229,1.924,2.834,3.809,2.834a5.292,5.292,0,0,0,3.742-1.511c1.321-1.323,1.51-3.361,1.51-5.134C134.13,173.435,132.772,170.374,128.807,170.374Z"/>
    <path d="M91.232,55c-38.49,132.936,2.414,168.66,2.416,168.66,55.872,61.205,131.475-28.788,131.622-27.979C198.1,94.515,91.232,55,91.232,55ZM92.74,186.723a7.185,7.185,0,0,1-3.208-.64,3.325,3.325,0,0,0-1.621-.606c0,.455.11.943-.532.943H84.245a.5.5,0,0,1-.491-.488V160.484a.5.5,0,0,1,.491-.492h3.549a.5.5,0,0,1,.49.492v7.926a3.133,3.133,0,0,0,1.548-.375,8.746,8.746,0,0,1,3.664-.793c5.434,0,8.379,4.567,8.379,9.627C101.875,182.344,98.478,186.723,92.74,186.723Zm26.023-.8a.5.5,0,0,1-.49.492h-3.136c-.605,0-.528-.527-.49-.943h-.338a4.421,4.421,0,0,0-1.813.566,7.415,7.415,0,0,1-3.472.755c-3.471,0-6.117-1.848-6.117-5.515,0-3.886,2.718-5.094,6.007-6.192l3.887-1.283c.792-.263,1.47-.34,1.47-1.358,0-1.7-1.886-2.079-3.243-2.079a13.541,13.541,0,0,0-5.968,1.551,1.672,1.672,0,0,1-.606.187c-.34,0-.412-.342-.412-.605v-2.078c0-.6.223-.753.753-.983a18.672,18.672,0,0,1,6.871-1.205c3.551,0,7.1,1.018,7.1,5.209Zm10.76.8a7.2,7.2,0,0,1-3.209-.64,3.3,3.3,0,0,0-1.621-.606c0,.455.113.943-.53.943h-3.136a.5.5,0,0,1-.49-.488V160.484a.5.5,0,0,1,.49-.492h3.551a.505.505,0,0,1,.493.492v7.926a3.128,3.128,0,0,0,1.544-.375,8.752,8.752,0,0,1,3.666-.793c5.434,0,8.38,4.567,8.38,9.627C138.661,182.344,135.263,186.723,129.523,186.723Zm26.334-2.078c0,.682-.069.757-.638,1.022a15.254,15.254,0,0,1-5.514,1.056c-6.005,0-9.324-3.7-9.324-9.589,0-5.74,3.582-9.967,9.474-9.967a15.3,15.3,0,0,1,4.154.566c.718.185,1.848.377,1.848,1.32v2.039c0,.229-.112.45-.377.45a1.6,1.6,0,0,1-.718-.223,9.4,9.4,0,0,0-4.154-1.02c-4.189,0-5.7,2.753-5.7,6.643,0,3.7,1.358,6.567,5.475,6.567a9.8,9.8,0,0,0,4.492-1.128,1.283,1.283,0,0,1,.642-.227C156.048,182.154,155.857,184.265,155.857,184.645Zm16.392.3c-1.848,1.658-3.925,2.036-6.34,2.036a8.589,8.589,0,0,1-6.268-2.036c-2.266-2.039-2.946-4.947-2.946-7.891,0-2.981.68-5.85,2.981-7.891,1.966-1.7,3.965-2,6.5-2,6.227,0,9.026,4.077,9.026,9.967C175.2,180.08,174.555,182.911,172.249,184.95Zm19.968-.3c0,.682-.077.757-.642,1.022a15.31,15.31,0,0,1-5.529,1.056c-6,0-9.328-3.7-9.328-9.589,0-5.74,3.586-9.967,9.481-9.967a15.366,15.366,0,0,1,4.168.566c.718.185,1.85.377,1.85,1.32v2.039c0,.229-.114.45-.379.45a1.615,1.615,0,0,1-.718-.223,9.406,9.406,0,0,0-4.166-1.02c-4.194,0-5.707,2.753-5.707,6.643,0,3.7,1.356,6.567,5.48,6.567a9.838,9.838,0,0,0,4.508-1.128,1.283,1.283,0,0,1,.64-.227C192.405,182.154,192.217,184.265,192.217,184.645Zm17.858,1.775h-4.041c-.643,0-.721-.15-1.056-.64l-5.477-7.966c-.228-.338-.566-.263-.943-.263v8.384a.5.5,0,0,1-.49.488h-3.55a.5.5,0,0,1-.49-.488V160.484a.5.5,0,0,1,.49-.492h3.55a.5.5,0,0,1,.49.492v14.309h.453a.689.689,0,0,0,.568-.263l5.7-6.418c.3-.34.453-.567.906-.567h3.471c.231,0,.531.15.531.417s-.263.53-.416.718L203.2,175.7l7.1,9.554a1.3,1.3,0,0,1,.378.79C210.678,186.345,210.3,186.42,210.075,186.42Z"/>
  </g>
</svg>
