<svg xmlns="http://www.w3.org/2000/svg" viewBox="0 0 300 300">
  <title>exp</title>
  <g>
    <path d="M49.268,105.779c1.976.969,4.167.962,6.271,1.318a36.208,36.208,0,0,1,4.885,1.142c1.376,3.724,3.585,7.2,4.681,11.232-1.575,1.382-3.54,1.828-5.3,3.081,2.429,1.552,5.433.609,7.922,2.32,1.934,4.208,4.09,8.59,5.744,13.245-2.815,2.469-6.268,3.618-8.948,5.837.3,1.045,1.089.823,1.711.851,2.171.1,4.344.16,6.517.207a8.844,8.844,0,0,1,4.456,1.039c2.287,5.172,4.629,10.468,7.044,15.931-3.3,2.394-6.426,4.672-9.563,6.931-8.712,6.272-17.447,12.513-26.134,18.821a13.539,13.539,0,0,1-7.271,2.566c-5.559.413-11.089,1.219-16.634,1.824-2.946.321-5.9.536-8.85.845-3.4.357-6.784.8-10.182,1.134A16.783,16.783,0,0,1,0,193.841L47.488,164.12c-5.833-.076-11.536.246-17.608.013.327-7.3,1.294-14.247,2.085-21.1,3.738-2.1,7.434-3.643,10.988-6.035-3.307-1.225-6.615-.715-10.123-1.171.084-5.446,1.041-10.681,1.491-16.128l13.729-6.084c.267-2.754-.852-5.238-.843-7.838Z"/>
    <path d="M300,142.187c-5.2,4.5-11.891,5.188-18.318,1.878a4.877,4.877,0,0,1-.234-2.672,4.045,4.045,0,0,1,.35-2.355c.994-.3,1.672.467,2.469.793a13.917,13.917,0,0,0,6.7.959c1.121-.107,2-.545,2.195-1.762a2.2,2.2,0,0,0-1.373-2.5,22.341,22.341,0,0,0-2.852-1.13,18.278,18.278,0,0,1-4.36-1.943,6.631,6.631,0,0,1-3.139-6.4,5.67,5.67,0,0,1,4.041-5.406,19.2,19.2,0,0,1,13.539.468c.243,2.737.243,2.737-.637,4.832-3.313-.511-6.8-2.9-9.933.291.321,1.968,1.654,2.468,2.909,2.984,1.157.475,2.376.794,3.547,1.238A10.649,10.649,0,0,1,300,135.317Z"/>
    <path d="M202.071,136.974c.9-3.265,1.57-5.678,2.23-8.095s1.312-4.833,1.987-7.32c1.99-.939,4.013-.431,6.138-.458,2.019,4.937,2.668,10.194,4.742,15.549,1.5-5.332,2.856-10.184,4.238-15.112,2.232-.967,4.479-.37,7.16-.489-2.392,8.393-5.192,16.278-7.827,24.369a38.54,38.54,0,0,1-7.071.02c-1.324-4.879-2.626-9.673-4.034-14.858-1.956,5-2.446,10.054-4.3,14.72a31.048,31.048,0,0,1-6.869.2c-2.754-7.933-5.415-15.873-7.835-24.06,2.4-.686,4.517-.393,6.9-.311C198.989,126.216,200.426,131.23,202.071,136.974Z"/>
    <path d="M159.79,121.293c.88,1.214.574,2.4.581,3.507.032,5.145.067,10.29-.009,15.433a45.267,45.267,0,0,1-.541,6.817c-.548,3.257-2.3,5.806-5.586,6.756a22.868,22.868,0,0,1-14.7-.453,13.584,13.584,0,0,1-.176-5.145c.94-.6,1.418.119,1.968.387A13.017,13.017,0,0,0,148,149.756c3.573-.221,4.826-1.631,4.923-5.5-.087-.306-.263-.381-.518-.212-5.576,3.695-13.792.19-15.447-7.1a15.067,15.067,0,0,1,.951-10.347c2.261-4.531,7.324-7.958,14.619-4.568C154.846,120.451,157.378,120.979,159.79,121.293Zm-6.855,6.018c-4.862-2.881-7.924-1.576-9.1,3.484a10.108,10.108,0,0,0,.1,4.721c1.128,4.849,4.855,6.186,9.006,3.031Z"/>
    <path d="M172.4,128v17.185a18.848,18.848,0,0,1-6.777.21v-33.86a24.071,24.071,0,0,1,6.727-.162v11.065a14.27,14.27,0,0,1,7.663-1.66,8.323,8.323,0,0,1,7.873,6.036,10.742,10.742,0,0,1,.661,3c.067,5.114.031,10.23.031,15.538a21.624,21.624,0,0,1-6.628-.018c-.437-3.552-.12-6.965-.221-10.364a23.816,23.816,0,0,0-.362-5.109c-.925-3.757-3.33-5.07-6.851-3.6A5.035,5.035,0,0,0,172.4,128Z"/>
    <path d="M120.181,145.276a23.71,23.71,0,0,1-6.312.193c-.878-.678-.668-1.532-.673-2.3-.021-3.314,0-6.628-.013-9.943a29.3,29.3,0,0,0-.082-3.082c-.378-3.463-3.027-5.214-6.335-4.18a4.187,4.187,0,0,0-2.544,1.829v17.446c-2.352.617-4.453.237-6.757.265v-33.9c2.048-.657,4.168-.325,6.449-.248.756,3.544-.054,7.091.525,10.84a18.61,18.61,0,0,1,6.881-1.48,8.465,8.465,0,0,1,8.527,7.428C120.667,133.775,120.066,139.491,120.181,145.276Z"/>
    <path d="M251.913,145.508c-2.689-.162-5.071.752-7.487-.961a12.041,12.041,0,0,1-8.919,1.062c-3.639-.972-5.813-3.407-5.939-7.058a7.46,7.46,0,0,1,5.156-7.666,17.751,17.751,0,0,1,6.037-1.068,13.637,13.637,0,0,0,4.009-.208c.092-2.854-.4-3.566-2.667-3.828a17.012,17.012,0,0,0-7.414.981,5.425,5.425,0,0,1-2.291.683c-.812-1.349-.166-2.921-.834-4.195,1.2-1.4,2.724-1.5,4.125-1.9a23.607,23.607,0,0,1,9.874-.321c3.626.528,6.162,2.943,6.287,6.266C252.074,133.222,251.913,139.16,251.913,145.508Zm-7.2-10.762c-2.1.017-4.216-.469-6.268.463-1.4.636-1.826,1.625-1.67,3.353.1,1.139.579,2.036,1.742,2.194,2.363.323,4.768.595,6.533-1.782,0-1.008.02-2.023-.012-3.036A6.352,6.352,0,0,0,244.711,134.746Z"/>
    <path d="M267.3,154.408h-7.016c1.081-3.09,2.086-5.963,3.174-9.075l-9.529-23.9c2.4-.719,4.609-.372,7.174-.227,1.827,5,3.677,10.069,5.765,15.785,2.033-5.622,3.845-10.63,5.662-15.651a21.078,21.078,0,0,1,6.3-.208,1.4,1.4,0,0,1,.44,1.773q-5.671,15.25-11.377,30.487A7.861,7.861,0,0,1,267.3,154.408Z"/>
    <path d="M156,162.12a4.172,4.172,0,0,1,3.943-.476c.128.227.333.421.335.617.058,6.968.431,13.94-.321,20.9-.472,4.364-2.954,6.868-7.32,7.136-3.073.188-6.184.361-8.926-1.472a3.627,3.627,0,0,1,.056-3c.907-.294,1.511.379,2.23.633a13.572,13.572,0,0,0,4.656,1.007c4.274-.038,5.817-1.668,5.729-6.464-5.12,2.382-9.813,2.13-13.169-2.788a12.136,12.136,0,0,1,.656-14.119C146.547,160.831,150.626,160.118,156,162.12Zm.448,4.178c-3.855-3.454-8.555-3.028-10.507.894a9.423,9.423,0,0,0-.744,6.976c.661,2.364,1.759,4.344,4.239,4.92,2.692.625,5.237.231,7.012-2.294Z"/>
    <path d="M232.847,162.3v-8.851a2.5,2.5,0,0,1,2.856-.583c.8.652.967,25,.261,29.24-1.427,1.074-2.533.07-3.642-.59a15.626,15.626,0,0,1-3.944,1.237c-6.148.491-9.327-2.887-10.587-7.621a12.842,12.842,0,0,1,.383-7.751c1.923-5.236,6.707-7.635,12.058-5.987C230.878,161.592,231.51,161.834,232.847,162.3Zm-.118,3.978a6.772,6.772,0,0,0-7.826-1.739c-2.853,1.116-3.8,3.772-3.878,6.712a13.244,13.244,0,0,0,.063,2.4c.438,2.773,1.655,4.989,4.561,5.843a6.343,6.343,0,0,0,7.08-2.113Z"/>
    <path d="M190.633,181.852a2.585,2.585,0,0,1-3.962-.551,10.871,10.871,0,0,1-7.151,1.447c-3.793-.3-6.331-2.5-6.644-5.712-.368-3.771,1.645-6.453,5.583-7.409a18.9,18.9,0,0,1,4.745-.573c1.224.017,2.5.274,3.664-.265.315-3.323-.427-4.393-3.339-4.633a19.691,19.691,0,0,0-4.1.064,36.863,36.863,0,0,0-4.073.978c-.711-.66-.509-1.545-.367-2.758a14.013,14.013,0,0,1,12-.593,5.825,5.825,0,0,1,3.594,5.429C190.766,172.166,190.633,177.068,190.633,181.852Zm-3.664-9.389a31.064,31.064,0,0,0-7.207.013,3.688,3.688,0,0,0-3.4,3.664c-.01,1.793.993,3.054,3.13,3.5a7.253,7.253,0,0,0,7.629-2.508A13.07,13.07,0,0,0,186.969,172.463Z"/>
    <path d="M114.994,173.1c-2.417.03-4.9.072-7.378.087-2.379.015-4.758,0-7.14,0,.249,6.284,5.087,8.157,12.633,5.172.867.669.672,1.582.542,2.739a11.828,11.828,0,0,1-11.634.655c-3.866-1.818-5.364-5.4-5.419-9.607a13.963,13.963,0,0,1,.731-5.052,9.232,9.232,0,0,1,8.9-6.3,8.975,8.975,0,0,1,8.581,6.629C115.385,169.21,115.416,169.934,114.994,173.1Zm-3.372-2.905c-.32-4.346-2.223-6.219-5.92-6.1-3.392.108-5.2,2.193-5.176,6.1Z"/>
    <path d="M195.77,161.6c1.4-.208,2.649-.722,3.516.819a40.305,40.305,0,0,1,4.047-1.389c4.836-1.126,9.68,1.924,10.036,6.714.354,4.752.078,9.55.078,14.253a2.394,2.394,0,0,1-3.094-.045c-.494-2.154-.164-4.435-.234-6.69-.056-1.825.024-3.655-.043-5.48-.182-4.959-4.016-7.238-8.571-5.119a9.343,9.343,0,0,0-1.181.685c-.477.312-.934.656-1.291.909v15.608a2.71,2.71,0,0,1-2.934.472C195.412,181.747,195.224,168.1,195.77,161.6Z"/>
    <path d="M122.8,166.8V181.9a2.425,2.425,0,0,1-2.973.253c-.622-.731-.806-12.451-.353-20.327,1.366-.649,2.67-.932,3.734.693,2.6-1.261,5.192-2.283,8.2-1.317,3.521,1.129,5.619,3.18,5.788,6.8.218,4.666.053,9.35.053,13.93-1.064.907-2,.612-3.016.214-.6-1.865-.278-3.7-.323-5.5-.058-2.287.032-4.579-.051-6.864-.175-4.847-3.735-7.094-8.278-5.267A5.959,5.959,0,0,0,122.8,166.8Z"/>
    <path d="M132.241,145.459a32.469,32.469,0,0,1-6.6-.079V121.3a20.035,20.035,0,0,1,6.6-.066Z"/>
    <path d="M168.719,182.109a2.54,2.54,0,0,1-2.757.049c-.717-.732-.872-24.488-.222-28.985a2.965,2.965,0,0,1,.855-.453,2.161,2.161,0,0,1,2.124.452Z"/>
    <path d="M128.857,118.231c-2.645-.025-3.994-1.231-3.952-3.533.041-2.228,1.536-3.468,4.14-3.434,2.554.033,4.031,1.386,3.955,3.622C132.922,117.185,131.6,118.256,128.857,118.231Z"/>
  </g>
</svg>
