<svg xmlns="http://www.w3.org/2000/svg" viewBox="0 0 300 300">
  <title>exp</title>
  <path d="M60.607,230.145l10.2-50.876H87.4l-10.14,50.876Zm50.069-16.651H121.22l-2.708-18.668-7.836,18.668ZM87.4,230.145l25.121-50.876h16.363L139.2,230.145H123.813l-.922-6.05H106.528l-2.593,6.05Zm67.066,0,5.7-38.257H145.65l2.477-12.849h44.6l-2.478,12.849H176.417l-5.588,38.257Zm55.774-16.651h10.543l-2.708-18.668-7.835,18.668Zm-23.22,16.651,25.063-50.876h16.364l10.313,50.876h-15.5l-.749-6.05H206.148l-2.593,6.05ZM275,121.768H196.929c-2.881,14.289-12.791,26.215-32.554,34.455,2.247,6.8,9.911,13.079,17.862,13.079h42.348c6.453,0,11.581-5.416,13.655-9.795H195.2c-2.651-.461-2.766-2.593-.116-2.823h42.291c5.474,0,10.429-4.667,13.31-9.738H201.423c-2.477-.4-2.477-2.477,0-2.881h49.666c5.013,0,9.564-5.819,11.466-9.737H208.049c-2.708-.346-2.708-2.881,0-2.938h55.485c4.322,0,8.528-4.725,11.466-9.622Zm-250,0h78.071c2.823,14.289,12.791,26.215,32.5,34.455-2.247,6.8-9.91,13.079-17.861,13.079H75.415c-6.453,0-11.581-5.416-13.655-9.795H104.8c2.593-.461,2.766-2.593.116-2.823H62.566c-5.473,0-10.428-4.667-13.252-9.738h49.32c2.478-.4,2.478-2.477,0-2.881H48.969c-5.013,0-9.565-5.819-11.466-9.737H92.009c2.708-.346,2.708-2.881,0-2.938H36.523c-4.378,0-8.585-4.725-11.523-9.622ZM124.677,78.9a34.846,34.846,0,0,0,9.565,6.049A54.431,54.431,0,0,1,146,69.855,42.18,42.18,0,0,0,124.677,78.9Zm-13.828,28.405h17.4a55.811,55.811,0,0,1,4.724-19.878,41.913,41.913,0,0,1-10.428-6.568,39.9,39.9,0,0,0-11.7,26.446ZM148.646,91v16.306h-17.4a48.118,48.118,0,0,1,4.321-18.9A42.182,42.182,0,0,0,148.646,91Zm26.677-12.1a34.846,34.846,0,0,1-9.565,6.049,54.625,54.625,0,0,0-11.811-15.038A41.6,41.6,0,0,1,175.323,78.9Zm13.77,28.405H171.75a53.073,53.073,0,0,0-4.609-19.878A44.452,44.452,0,0,0,177.4,80.86a38.831,38.831,0,0,1,11.7,26.446ZM151.469,91v16.306h17.285a45.981,45.981,0,0,0-4.321-18.9A41.807,41.807,0,0,1,151.469,91Zm-26.792,47.592c2.881-2.247,6.223-4.725,9.565-5.935A54.093,54.093,0,0,0,146,147.58a42.18,42.18,0,0,1-21.319-8.988Zm-13.828-28.463h17.4a56.737,56.737,0,0,0,4.724,20.051,43.383,43.383,0,0,0-10.428,6.51,40.247,40.247,0,0,1-11.7-26.561Zm37.8,16.363V110.129h-17.4a46.99,46.99,0,0,0,4.321,18.9,42.172,42.172,0,0,1,13.079-2.535Zm26.677,12.1a35.518,35.518,0,0,0-9.565-5.935,53.241,53.241,0,0,1-11.811,14.923,42.581,42.581,0,0,0,21.376-8.988Zm13.77-28.463H171.75a52.86,52.86,0,0,1-4.609,20.051,45.979,45.979,0,0,1,10.256,6.51,39.645,39.645,0,0,0,11.7-26.561Zm-37.624,16.363V110.129h17.285a45.563,45.563,0,0,1-4.321,18.9,41.789,41.789,0,0,0-12.964-2.535Zm-2.823-54.966a45.675,45.675,0,0,0-11.7,14.4,37,37,0,0,0,11.7,2.3V71.526Zm2.823,0a45,45,0,0,1,11.581,14.4,33.958,33.958,0,0,1-11.581,2.3V71.526Zm-2.823,74.441a44.058,44.058,0,0,1-11.7-14.462,35.221,35.221,0,0,1,11.7-2.074v16.536Zm2.823.115a46.975,46.975,0,0,0,11.581-14.577,38.311,38.311,0,0,0-11.581-2.074v16.651Z"/>
</svg>
