<svg xmlns="http://www.w3.org/2000/svg" viewBox="0 0 300 300">
  <title>exp</title>
  <g>
    <path d="M15.5,140.8l-6.753,5.647c-.441,2.128-.3,2.641,1.559,4.316,1.647-.581,3.41-1.137,4.587.926-1.95,2.751-4.948,2.075-7.505,2.677a36.125,36.125,0,0,0-2.537-4.751c-.456-.66-.221-1.905-.067-2.847a13.966,13.966,0,0,1,.913-2.531c2.731-.4,3.35-1.416,3.648-6.261-1.391,1.478-2.436,3.407-5.022,2.311l.768-.83-2.232-.815a7.263,7.263,0,0,0,.513-1.986c-.136-2.2.99-3.813,2.325-5.34,1.041-1.191,2.221-2.275,3.149-3.545a6.516,6.516,0,0,0,1.063-2.708c.166-1-.475-1.486-1.714-1.325.379,3.186-1.759,4.368-4.173,5.392A31.518,31.518,0,0,0,1,130.8v-1.5c1.8-.68,1.773-2.551,2.494-3.912a6.143,6.143,0,0,1,5.4-3.126,2.589,2.589,0,0,1,2.355,3.193,13.8,13.8,0,0,1-2.191,4.1c-1.018,1.408-2.4,2.553-3.441,3.946-1.3,1.737-1.329,3.355-.3,4.023,1.056.688,2.424.135,3.622-1.771,2.249-3.58,4.943-6.943,5.8-11.312l-.919-.4v-2.418l-1.033,1.324c-.965-1.26.02-3.007-1.489-4.255a16.782,16.782,0,0,0,.293-2.585,18.611,18.611,0,0,0-.552-2.925l2.55-1.276-.749-.644c-.546-.98-1.144-1.936-1.619-2.949-.322-.686-.073-1.142.787-1.029l.513,2.405.668-1.6,1.354.423.283-1.2H11.986c.052-.293,0-.682.173-.861.588-.616,1.252-1.159,2.14-1.957l2.221.791c.05.765-1.872,1.424-.481,2.159l2.657-1.078-2.215-1.05c.246-.292.477-.818.74-.835a1.8,1.8,0,0,1,1.94,1.542,13.986,13.986,0,0,1,.035,2.693l2.675.256c.868,1.2,2.293,2.325,2.137,3.143-.352,1.852,1.341,2.113,1.812,3.5-.055.078-.416.462-.36.538,1.162,1.574.37,3.492.951,5.189.423,1.236.922,2.1,2.543,2.151l1.234-1a11.613,11.613,0,0,0-.048-3.126,16.1,16.1,0,0,0-2.075-4.694c-1.405-1.894-1.151-3.59-.191-5.42a3.95,3.95,0,0,1,4.443-2.075c1.072.16,2.115.513,3.251.8,1.03-1.235,2.444-1.321,4.14-.14l3.213-.711.26.671-3.924,1.963-.669,2.443-.452-.033v-3.383l-1.555.434c-.077.071-.156.14-.235.208a15.176,15.176,0,0,1-2.284-.655c-3.428-1.578-6.717.844-5.435,4.607l2.746,1.925,1.646-3.5c.515,1.435,2.893,2.22,1.292,4.314l1.4.186.545-3.546H38.6c.532.949,1.824,1.887-.128,3.339l3.077.2-1.535-1.148,2.142-3.571c.821,1.731,1.944,3.041,1.127,4.993l.966.173c.053-.921-.038-1.527,1.032-2.23,2.2-1.449,2.149-2.841.6-5.649l.551-.431c1.763,1.329,2.448,4.143,1.214,5.74-1.484,1.923-2.889,3.773-2.281,6.44a1.566,1.566,0,0,1-.32,1.037l3.481,5.662c-.97.379-2.142.479-2.335,1.934l2.3-1.966,2.621-.748-1.886-2.449-2.414-.5c1.5-2.146,1.86-2.229,3.446-1.312.813.471,1.718.782,2.893,1.3l.884,1.857,1.37-2.99c.053-.075.109-.147.169-.218l.935-1.412-.039-.042c.213.43.312,1.059.659,1.259,2.5,1.442,5.04,2.8,7.569,4.178-2.05,2.838-2.05,2.838.061,5.73,1.069-.665,2.25-.984,3.046.442.612,1.094-.15,1.681-1.078,2.321l3.282,5.035c2.358-.813,2.945-1.653,2.063-3.318a16.37,16.37,0,0,0-2.956-3.625c-1.4-1.418-2.466-2.916-2.327-5.021a3.57,3.57,0,0,1,3.009-3.461c1.589-.161,3.9,1.2,4.3,2.6.452,1.617.72,3.3,2.456,4.641-4.825-1-5.854-1.982-6.459-5.812-2.082.747-2.715,2.2-1.65,4.156a8.5,8.5,0,0,0,1.9,2.277c2.256,1.959,3.9,4.106,2.975,7.342-.075.261.115.6.236,1.148l-2.428.63.461.925c-3.423.986-2.728-2.516-4.086-3.692-1.895,4.436-1.885,4.493,1.029,5.722l.222,3.029,1.994-.421c.684-2.231,1.4-2.935,2.716-2.63a1.908,1.908,0,0,1,1.587,2.2c-.1,1.34-1.118,1.874-2.955,1.774-.765.637-1.354,1.187-2.005,1.648a16.184,16.184,0,0,0-2.67,3.095c-.515,1.5-1.269,1.729-3.9,1l2.665-3.517c-1.027-.259-2.993.16-2.621-1.717.352-1.777,1.906-.876,3.15-.634l-.331-2.313-2.863-1.437-.09-.093-3.424-4.177c-1.625.049-1.734.285-1.054,3.676-2.438.99-4.7,2.559-7.693,2.689-1.094,1.651-1.173,1.673-3.779.83a5.548,5.548,0,0,1,4.54-3,8,8,0,0,0,4.448-1.609c-.691-1.793-2.4-3.272-1.365-5.331.975-1.939,2.865-2.044,4.891-2.236-1.009-2.419-4.12-1.8-5.13-3.965l-1.235.78.7,3.073-3.273-1.053c-.147,1.055-.327,2.009-.407,2.971a15.969,15.969,0,0,1-3.141,8.013c-1.371,1.933-3.034,3.037-5.493,2.392l-2.061-1.516,1.847-2.076H37.979l2.033,2.109-1.218.9,3.262.549,2.243.757c-2,2.493-4.624,2.53-7.35,2.27l.047.026c-1.876-.527-3.758-1.035-5.624-1.593a2.314,2.314,0,0,1-1.269-.684c-1.646-2.662-3.26-5.349-4.769-8.091-.28-.509-.04-1.3-.04-2.378l-1.657-.621.484-3.358c-1.459-1.37-3.409-1.651-5.684-1.084,5.2,5.107,4.238,4.147,1.125,8.235.988,2.7,2.216,3.466,4.911,3.13,1.612-.2,2.394.708,2.916,2.339H25.926l-.68,1.184c-4.546-.462-8.425-1.7-9.742-6.585,2.226-1.158,2.388-1.952.753-4.086Zm32.023-.477-1.214.27.319.573.857-.88,1.223-.326-.378-.5ZM28.5,139.312l-1.647-.191.16,1.677,1.437.121Zm15.472-10.967-1.21-1.776-.327.3,1.574,1.446,1.1,2.49.462-.277Zm-17.955-1.031L27.84,124.9l-.494-.3-1.356,2.691c-.492.776-1.726,1.409-.485,2.519,1.27,1.314,1.27,1.314,3.138.39l-3.176-.36Zm1.438.734v-.03c.132.832.567,1.543,1.405,1,.41-.268.363-1.233.523-1.882l-.7-.371Zm6.029-5.735c-.192,2.018,1.125,1.328,2.7,1.382l-1.263-2.241-1.471.9Zm-2.506,6.459c.351-.023.975.037,1.012-.082.675-2.2,2.705-2.508,4.167-3.312l.8,1.3.38-.146-.129-1.955c-2.866.5-5.085,1.535-6.185,4.228a5.681,5.681,0,0,0-1.417,5.339l1.377-2.694Zm3.385,14.9c.091.1.179.212.265.32l1.713,2.076c1.8-3.777.754-7.174,1-10.492-5.794-.492-7.323-.371-8.694.649C30.022,139.115,30.439,142.729,34.362,143.675Zm-3.383-22.97.5.315a36.659,36.659,0,0,1,6.511-1.1c2.074.006,4.145.757,6.217,1.18l.2-.535c-.293-.335-.528-.871-.887-.974a22.076,22.076,0,0,0-11.511-.081C31.6,119.614,31.321,120.294,30.979,120.705Zm12.558,21.51a8.936,8.936,0,0,0,2.542-6.675H41.125c4.3.351,4.3.351,3.808,2.4l-1.278-.217C45.852,139.168,43.622,140.5,43.537,142.215Zm-6.246-8.366v-5.736l-.2,0-.149,3.035-4.166.188.032.552h3.844Zm1.22,2.323-.151.014v6.35l.151-.026Zm35,8.708-.945.04-.495,2.1.512.378c.507-.251,1.36-.424,1.44-.774C74.14,146.108,73.707,145.467,73.509,144.88Zm-33.8-11.659,3.343-.26c-.477-1.906-1.886.195-2.64-.737l.461-1.287C39.153,131.043,39.452,132,39.712,133.221Zm2.1-9.761,1.986,1.39.746-1.166-1.95-1.192Zm-23.039-6.832c-.885,1.392-.419,2,.838,2.362C20.081,117.593,20.081,117.593,18.774,116.628Zm11.355,29.854.59.379,1.853-2.663-.465-.34Zm8.851-24.239-.416-.492-1.047,1.338-.706-1.506-.422.263,1.125,1.569Zm8.607,12.216L49.3,136.38l.522-1.822Zm2.2-5.777,1.437,2.13.835-1.9Zm-4.356,13.25-.371.66,1.918,1.127.415-.743Zm4.489-9.508-1.045-2.088-1.338,1.756Zm-.562,5.739c-.561-1.541-.927-1.63-2.328-.493Zm-5.017-12.417,1.228,1.756.931-2.147ZM29.853,143.6c-.928-1.475-.928-1.475-1.858-1.1ZM16.594,115.018c1.02.529,1.7,1.243,2.255-.034.043-.1-.112-.282-.25-.6ZM44.6,143.445l-.472.471,1.3,1.409.493-.456ZM38.2,133.427l.134-.112V130.7l-.134.008Zm.018-4.867.106,0v-2.633l-.106.009Zm28.054,8.673-.481-.339-.645.963.447.315Zm-25.022-10.44-1.974-.285,1.014,1.414Zm23.331,21.7-.114.7h1.219l.041-.406ZM42.392,137.957l-.215-.353-1.359.554.3.489.257.125ZM19.909,112.089l-.2-.408-.966.476.208.417ZM70.522,148.3l-.386-.348-.656.722.395.355Zm-6.649-7.641-.619-.11v1l.372.049Zm-22.382-.179-.562-.214-.109,1.012.4.066Zm11.271-10.463-.036.56h1l.05-.346Zm-21.808-6.107-.3-.315-.825.782.3.313Zm-15.209-9.853,0-.612-.9.15.012.38Z"/>
    <path d="M223.5,100.8c3.267,1.189,5.924,3.016,6.874,6.61a9.781,9.781,0,0,1,.136,1.211l-1.974.239c-.291-.274-.455-.362-.52-.5-1.952-4.057-4.481-5.765-8.022-5.4-3.821.39-6.428,2.769-7.508,6.938a13.57,13.57,0,0,0,.722,9.259c1.546,3.385,4.473,4.988,8.3,4.7q4.773-.359,6.434-5.7c.173-.553.357-1.1.556-1.717a4.929,4.929,0,0,1,.95-.2,9.12,9.12,0,0,1,1.207.128,3.023,3.023,0,0,1,.142.812c-.741,5.108-3.777,8.323-8.544,9.067a10.791,10.791,0,0,1-11.358-5.958,15.522,15.522,0,0,1,.018-13.728c1.335-2.891,3.837-4.474,6.59-5.756Z"/>
    <path d="M301,159.3c-.258.415-.552.813-.768,1.249-1.658,3.342-4.548,4.152-7.948,3.84a6.911,6.911,0,0,1-6.2-5.033,12.688,12.688,0,0,1,.019-8.57,7.229,7.229,0,0,1,6.668-5.139c3.693-.161,5.985,1.245,7.5,4.6.235.522.486,1.037.73,1.556v4l-12.8.135c-.05,3.243,1.381,5.525,3.648,6.178,2.84.819,4.507-.146,7.283-4.313H301Zm-12.772-5.783h10.065c.1-3.368-1.785-5.588-4.689-5.688C290.5,147.721,288.455,149.825,288.228,153.516Z"/>
    <path d="M30.494,153.283c1.029.992.473,1.785-.365,2.471-.624.511-1.327.925-2.433,1.682a30.324,30.324,0,0,0,19.9.031l-3.168-2.323a7.963,7.963,0,0,1,2.985-6.253c1.749-1.434,3.8-.736,5.636.232,1.1.582,2.165,1.239,3.2,1.927,2.974,1.968,5.849,4.117,9.557,4.749-3.555,4.159-5.29,3.182-8.208,1.488-2.011-1.167-3.9-2.549-5.888-3.754A10.22,10.22,0,0,0,49,152.555c2.08,1.712,1.86,3.494.454,5.346a1.465,1.465,0,0,0-.293.681c-.4,3.48-2.782,4.863-5.849,4.972a119.733,119.733,0,0,1-12.408-.219,4.557,4.557,0,0,1-4.561-4.186,5.592,5.592,0,0,0-.634-1.617c-1.335-2.71-1.342-2.706.542-5.146-1.3.629-2.655,1.178-3.9,1.906-1.506.88-2.892,1.961-4.382,2.87-3.8,2.318-4.925,2.162-8.593-1.305,4.737-.823,8.023-3.965,11.836-6.17,4.968-2.872,7.346-1.938,9.324,3.634l-2.252-.633c-3.1,1.954-3.233,2.3-1.591,3.972C29.974,154.688,29.974,154.688,30.494,153.283Zm21-3.5.038.041-1.5-1.013-.878,2.668C51.712,151.8,51.858,151.684,51.49,149.781Zm-9.509,12.54a1.142,1.142,0,0,0,0-2.019,1.566,1.566,0,0,0-1.5-.047c-.409.442-.837,1.356-.636,1.771.449.928,1.339,1.079,2.177.255Zm2.9-8.136,3.843,2.676,1.129-1.589C47.743,152.387,46.859,152.163,44.882,154.185Zm-8.732,7.564,2.789.413-.112-1.556H36.15Zm20.3-6.192a10.432,10.432,0,0,0,.864-2.273c.031-.249-.706-.882-.981-.823a10.535,10.535,0,0,0-2.214,1.1Zm-3.175-5.185-1.031,1.783,1.593.983C53.793,152.255,55.323,151.213,53.273,150.372Zm-37.7,6.945c1.392-.564,1.8-1.353,1.143-2.263-.725-1-1.52-.581-2.282.375Zm30.377,2.991-2.333-.237v2.235l.558-1.116,1.655.507Zm-22.792-7.625c2.142-.775,1.427-1.845.677-3.413v2.961l-1.587-1.417-.2.213Zm7.185,6.731H28.877l1.1,2.866.362-.155Zm-10.6-7.612-.394.529c.592.614.51,2.166,2.33,1.369Zm39.849,5.329L61.5,155.4l-1.095-.53Zm-26.15,2.79H32.13l.6,2.327Zm25.483-5.466-.367-.248-.9,1.531.311.186Z"/>
    <path d="M107.946,125.687h-2.71l-13.149-19.35-.375.043v19.16l-2.572.337V101.4a13.1,13.1,0,0,1,1.38-.2,10.735,10.735,0,0,1,1.35.109q6.563,9.655,13.146,19.342l.421-.086v-19.2l2.509-.117Z"/>
    <path d="M105.86,146.431a4.074,4.074,0,0,1-.939.325,7.8,7.8,0,0,1-1.259-.086c-.177-.453-.327-.83-.471-1.209a6.944,6.944,0,0,0-9.916-3.444A4.094,4.094,0,0,0,91.188,146a3.426,3.426,0,0,0,2.8,3.133c2,.565,4.028,1.016,6.03,1.569a21.965,21.965,0,0,1,3.061,1.049,5.639,5.639,0,0,1,3.7,5.425c.012,2.716-1.023,4.954-3.552,6.1a13.344,13.344,0,0,1-11.592-.078c-2.83-1.329-4-3.953-3.514-7.342h1.961a15.071,15.071,0,0,0,1.32,3.611c1.928,2.732,4.89,2.916,7.855,2.558a7.186,7.186,0,0,0,3.173-1.331,3.685,3.685,0,0,0-.52-6.51,37.145,37.145,0,0,0-5.449-1.725c-1.274-.377-2.581-.649-3.839-1.07-5.218-1.75-4.928-7.562-2.121-10.326,3.424-3.37,10.743-2.99,13.807.728A6.028,6.028,0,0,1,105.86,146.431Z"/>
    <path d="M79.856,101.333h2.068v62.218a2.077,2.077,0,0,1-.654.294,11.635,11.635,0,0,1-1.414-.1Z"/>
    <path d="M56.518,120.811l-.138-2.422-2.5-2.493c.551-2.467,3.391-2.793,4.806-4.881-.875-1.142-1.861-2.432-2.853-3.718q-1.506-1.954-3.024-3.9l.409-.439c1.121,1.064,2.263,2.106,3.355,3.2,1.114,1.116,2.178,2.282,3.382,3.552l1.135-.628c1.41.826,2.769,1.666,4.168,2.434,2.752,1.509,4.2,6.713,2.712,9.561a7.335,7.335,0,0,0-.493,2.006L65.5,125.331c-.967-.039-2.146.432-2.515-1.046l1.253-1.444-.322-.25-1.3.647.415,1.08a1.731,1.731,0,0,1-2.053-1.537l.865-.687-.63-.31-.186,1.036-1.824-.14.672-2.438-.463-.172-1.432,1.9-1.507-1.2Zm.781-2.269.377.642a12.183,12.183,0,0,0,4.507-2.611h-3.2c-.207.259-.494.635-.8,1C57.9,117.9,57.594,118.218,57.3,118.542Z"/>
    <path d="M228.748,154.475h2.132a5.148,5.148,0,0,1,.143,1.254c-.657,4.293-3.493,7.68-7.429,8.45-4.47.875-8.462-.122-11.373-3.908-3.658-4.759-3.533-12.811.208-17.516a11.062,11.062,0,0,1,14.841-1.991,7.759,7.759,0,0,1,3.42,6.02l-2.2.166c-.25-.492-.454-.844-.613-1.215a6.746,6.746,0,0,0-5.827-4.432c-3.224-.323-5.921.585-7.836,3.329-2.583,3.7-2.628,10.254-.058,13.966a7.8,7.8,0,0,0,7.763,3.517,7.094,7.094,0,0,0,6.078-5.216C228.233,156.2,228.436,155.479,228.748,154.475Z"/>
    <path d="M248.991,101.332h2.034v9.115c2.514-2.752,5.174-3.681,8.368-2.745,4.554,1.334,6.853,7.2,5.084,12.981-1.348,4.407-5.522,6.672-9.794,5.182a22.283,22.283,0,0,1-3.466-1.948l-.387,1.669-1.839.206Zm13.695,15.688a30.141,30.141,0,0,0-.994-4.235,4.8,4.8,0,0,0-4.584-3.251,5.034,5.034,0,0,0-4.887,2.842,9.521,9.521,0,0,0,.082,9.071,5.036,5.036,0,0,0,4.716,2.71,4.619,4.619,0,0,0,4.5-2.948A31.455,31.455,0,0,0,262.686,117.02Z"/>
    <path d="M180.271,113.615l-1.936-.206c.145-3.2,1.384-4.989,4.077-5.632a12.148,12.148,0,0,1,4.178-.305c3.543.427,4.9,1.924,5.2,5.522.138,1.652.086,3.322.1,4.983s0,3.312,0,4.716c.581,1.118,2.7,1.193,1.283,2.967-1.823.571-3.066-.229-3.862-2.134a7.6,7.6,0,0,1-8.438,2.387,4.656,4.656,0,0,1-3.473-4.369c-.174-2.488.612-4.217,2.819-5.009a32.043,32.043,0,0,1,6.051-1.3c2.255-.339,2.969-.748,3.087-2.19.133-1.624-.868-2.837-2.725-3.305C183.428,108.934,181.487,110.037,180.271,113.615Zm8.866,3.033c-2.415.51-4.836.934-7.2,1.556a2.525,2.525,0,0,0-1.984,2.784,2.79,2.79,0,0,0,2.045,2.794,6.172,6.172,0,0,0,2.651.26C188.176,123.446,189.688,120.979,189.137,116.648Z"/>
    <path d="M124.37,155.811H111.076c-.135,3.231,1.3,5.628,3.61,6.306,2.981.876,4.9-.23,7.065-4.169h1.821a2.648,2.648,0,0,1,.112.818c-.812,3.342-3.009,5.344-6.14,5.626-4.138.371-7-1.053-8.342-4.411a12.371,12.371,0,0,1,.2-10.164,7,7,0,0,1,7.023-4.2A6.743,6.743,0,0,1,123,150.076,38.515,38.515,0,0,1,124.37,155.811Zm-3.058-2.253c-.261-3.658-2.092-5.673-4.949-5.732-3.053-.063-5.015,2.006-5.331,5.732Z"/>
    <path d="M113.621,113.61l-1.95-.222c.2-3.176,1.472-5.007,4.135-5.609a12.588,12.588,0,0,1,4.428-.247c3.492.488,4.85,2.175,4.9,5.751.041,3.237.009,6.475.009,9.692l1.906,1.118-.13,1.253c-1.21,1.066-2.948.32-4.192-1.712-.556.462-1.064.958-1.641,1.353a7.518,7.518,0,0,1-6.908.9,4.53,4.53,0,0,1-3.36-4.443c-.135-2.537.664-4.2,2.886-4.973a45.688,45.688,0,0,1,5.826-1.252c.876-.181,1.752-.366,2.512-.525.948-2.836.487-4.155-1.543-4.838C117.343,108.8,114.9,110.036,113.621,113.61Zm8.852,3.105c-2.4.463-4.681.8-6.9,1.368a2.8,2.8,0,0,0-2.354,2.836,3.1,3.1,0,0,0,2.518,3.013,5.466,5.466,0,0,0,2.195.144C121.407,123.526,123.034,121.047,122.473,116.715Z"/>
    <path d="M282.5,117.488H269.455c-.408,3.15,1.094,5.633,3.69,6.45,2.728.858,4.836-.361,6.879-4.079h1.755c.1.2.257.357.232.475a6.932,6.932,0,0,1-6.671,5.978,7.4,7.4,0,0,1-7.846-4.546,12.464,12.464,0,0,1-.342-8.792,7.629,7.629,0,0,1,7.387-5.659,7.414,7.414,0,0,1,7.245,5.777A39.634,39.634,0,0,1,282.5,117.488Zm-13.228-2.4c3.363.526,8.731.388,10.415-.235-.667-3.463-2.554-5.4-5.2-5.34C271.805,109.573,270.031,111.431,269.268,115.089Z"/>
    <path d="M246.14,157.872l1.711.082c.083.372.226.626.174.832-.844,3.368-3.036,5.343-6.185,5.607-4.149.349-6.984-1.114-8.348-4.47a12.38,12.38,0,0,1,.041-9.732,7.168,7.168,0,0,1,7.331-4.553,6.831,6.831,0,0,1,6.709,5.006,40.909,40.909,0,0,1,.985,5.183h-13.3c.12,3.493,1.606,5.755,3.933,6.322C242.2,162.883,243.913,161.871,246.14,157.872Zm-10.849-4.41h10.486c-.673-3.945-2.356-5.674-5.313-5.636C237.573,147.863,235.842,149.726,235.291,153.462Z"/>
    <path d="M158.807,116.9c-.262,4.826-2.691,8.369-6.809,9.133a10.248,10.248,0,0,1-4.868-.364c-3.659-1.205-5.58-5.168-5.214-10.075.3-4.057,2.748-7.117,6.386-7.99a7.82,7.82,0,0,1,9.346,4.746A34.846,34.846,0,0,1,158.807,116.9Zm-2.625.2a28.646,28.646,0,0,0-.729-3.528,5.417,5.417,0,0,0-10.489-.019,9.423,9.423,0,0,0,.276,7.258,5.3,5.3,0,0,0,4.847,3.336,5.193,5.193,0,0,0,5.083-3.333A22.978,22.978,0,0,0,156.182,117.1Z"/>
    <path d="M253,163.727l-2.393.157V146.456c1.475-.636,2.357-.317,2.572,1.512a7.361,7.361,0,0,1,6.969-2.246c2.358.339,4.191,1.816,4.37,4.134.35,4.535.386,9.094.557,13.778l-2.552.329c-.049-.969-.12-1.766-.125-2.563-.015-2.911.039-5.824-.023-8.735-.068-3.217-1.293-4.706-3.823-4.835-3-.154-5.2,1.58-5.428,4.6-.206,2.732-.1,5.487-.123,8.232C252.988,161.638,253,162.614,253,163.727Z"/>
    <path d="M231.719,108.008h2.492l5.54,14.39c1.824-5.055,3.47-9.62,5.168-14.328h2.232a15.545,15.545,0,0,1-.388,1.637q-3.4,9.24-6.827,18.467a13.023,13.023,0,0,1-.728,1.584c-1.225,2.3-2.4,2.792-5.509,2.285a5.09,5.09,0,0,1-.279-.827,3.389,3.389,0,0,1,.058-.8,1.991,1.991,0,0,1,.618-.283,4.291,4.291,0,0,0,3.86-5.938c-1.716-4.5-3.516-8.973-5.271-13.46C232.388,109.978,232.14,109.2,231.719,108.008Z"/>
    <path d="M186.066,170.086v-1.568a4.249,4.249,0,0,1,.769-.249,4.255,4.255,0,0,0,3.67-5.852c-1.589-4.194-3.281-8.349-4.919-12.524-.421-1.073-.8-2.162-1.3-3.52l2.444-.245c1.829,4.755,3.611,9.389,5.567,14.473,1.808-5.014,3.477-9.639,5.168-14.328h2.063a2.3,2.3,0,0,1,.055.8c-2.472,6.7-4.892,13.42-7.477,20.076C190.873,170.306,189.724,170.759,186.066,170.086Z"/>
    <path d="M157.062,163.762l-1.873.095-.453-2.007a7.587,7.587,0,0,1-5.852,2.586c-3.525-.1-5.764-1.913-5.912-5.394-.175-4.14-.041-8.294-.041-12.7l2.459-.132c0,2.571-.012,4.882,0,7.193.011,1.662-.015,3.329.106,4.984.166,2.275.986,3.361,2.63,3.763,2.33.568,4.509-.036,5.4-2.015a16.739,16.739,0,0,0,1.274-5.5c.206-2.708.053-5.443.053-8.293h2.207Z"/>
    <path d="M140.639,151.78h-2.057c-.237-.44-.47-.869-.7-1.3a4.916,4.916,0,0,0-7.963-1.229c-2.8,2.717-2.87,8.6-.136,11.433a4.875,4.875,0,0,0,8.12-1.239c.292-.591.5-1.223.8-1.977h1.782c.125.246.279.4.26.533-.474,3.329-2.391,5.625-5.223,6.283a8.116,8.116,0,0,1-8.581-3.246,11.743,11.743,0,0,1,.061-12.083,8.174,8.174,0,0,1,10.25-2.586A5.862,5.862,0,0,1,140.639,151.78Z"/>
    <path d="M175.016,125.8l-2.25-.214c0-2.518.021-4.913-.007-7.306a46.419,46.419,0,0,0-.19-4.736c-.3-2.588-1.259-3.639-3.37-3.981a4.623,4.623,0,0,0-5,2.53,14.978,14.978,0,0,0-.961,4.83c-.149,2.814-.041,5.641-.041,8.656l-2.173.164V108.129c1.6-.61,2.288-.08,2.188,1.813,2.331-2.072,4.7-3.125,7.656-2.344,2.39.631,3.971,2.094,4.083,4.452C175.167,116.515,175.016,121,175.016,125.8Z"/>
    <path d="M180.181,161.7l2.994.562c.5,1.01.259,1.616-.8,1.9-2.711.712-4.856-.805-4.939-3.641-.088-2.988-.03-5.98-.035-8.971,0-.975,0-1.949,0-2.992l-2.787-.452-.1-1.788,2.749-.349c.081-1.6.16-3.148.252-4.963l2.253-.217c.134,1.858.249,3.47.373,5.189l3.048.3v1.842l-3.009.4Z"/>
    <path d="M271.587,145.958l3.078.347v1.763l-3,.465v13.18l2.9.5c.57,1.092.348,1.895-1.036,1.964-2.778.14-4.663-.6-4.632-3.738.03-3.077,0-6.155,0-9.232,0-.82,0-1.64,0-2.59l-2.673-.535-.316-1.652,2.877-.557c.072-1.566.142-3.115.225-4.925l2.254-.1C271.372,142.648,271.473,144.2,271.587,145.958Z"/>
    <path d="M131.795,102.884c.115,1.6.221,3.066.314,4.352.95,1.155,3.5-.346,3.194,2.482l-3.1.456v13.241l3.037.6v1.71c-.568.071-1.045.17-1.526.184-3.2.094-4.246-.866-4.29-4.042-.042-3-.011-6-.011-9,0-.826,0-1.652,0-2.6l-2.826-.558v-1.577l2.7-.629c.082-1.5.161-2.965.251-4.621Z"/>
    <path d="M215.02,190.712l1.379,1.751-.289.542-2.383-.961,0,.36a31.16,31.16,0,0,1-5.825-.068c-2.925-.566-4.767-3.352-4.935-6.732-.17-3.43,1.544-6.382,4.337-7.468a6.623,6.623,0,0,1,7.71,1.871c2.054,2.587,2.093,5.513,1.091,8.515A18.187,18.187,0,0,1,215.02,190.712Zm-1.566-1.082c2.169-2.893,2.083-7.055-.1-9.21a5.242,5.242,0,0,0-6.43-.469c-2.347,1.712-3.012,6.016-1.371,8.866,1.312,2.277,3.488,2.943,6.112,1.869l-1.017-2.378Z"/>
    <path d="M172.9,192.274l-.744-1.526c-2.934,2.431-6.044,2.777-9.163.26-1.668-1.345-2.187-3.305-2.38-5.328-.372-3.9,2.208-7.45,5.683-7.919,3.783-.511,6.312,1.139,7.115,5.187-.792-.536-1.391-.726-1.609-1.125a4.707,4.707,0,0,0-5.388-2.637c-2.244.408-3.559,2.065-4.012,4.806-.463,2.8.53,5.412,2.467,6.612,2.564,1.589,7.476.33,7.207-4.047l-4.892-.52c1.643-1.373,3.009-1.5,6.309-.811v6.914Z"/>
    <path d="M285.288,148.139c-4.729.982-6.178,2.755-6.2,7.421-.01,2.651,0,5.3,0,8.15H276.7V146.35l1.942-.154c.195.863.369,1.634.593,2.623a7,7,0,0,1,6.05-2.95Z"/>
    <path d="M286.793,125.705h-2.145V108.12l1.838-.191c.117,1.017.209,1.821.333,2.9,1.748-1.813,3.46-3.507,6.348-2.989v2.1c-.614.153-1.087.277-1.562.389a5.416,5.416,0,0,0-4.552,5.428c-.1,2.569-.034,5.144-.066,7.717C286.979,124.121,286.878,124.768,286.793,125.705Z"/>
    <path d="M169.035,145.945v2.19c-.664.135-1.23.21-1.772.366a5.454,5.454,0,0,0-4.27,5.206c-.147,2.322-.066,4.659-.109,6.989-.018.983-.095,1.965-.151,3.074h-2.16c-.068-.667-.174-1.23-.175-1.794-.013-5.146-.008-10.292-.008-15.613h2.1l.2,2.864C164.328,147.182,166.1,145.67,169.035,145.945Z"/>
    <path d="M191.871,184.1h7.286c.986-1.949-.278-4.3,1.128-6.415,1.538,1.7.761,3.419.894,4.953.136,1.568.03,3.157.03,4.736v5.055c-2.373-.567-1.482-2.1-1.621-3.126a28.179,28.179,0,0,1-.035-3.608h-7.935c-.059,1.262-.08,2.472-.182,3.676-.087,1.032.415,2.294-.9,3.056-1.009-1.963-1.033-12.456.006-14.6C192.352,179.67,190.784,182.067,191.871,184.1Z"/>
    <path d="M102.981,191.442V196.4c-.685-.553-1.278-.8-1.281-1.066-.057-4.433-.041-8.866-.041-13.767l1.73,1.13c2.774-1.525,5.022-1.432,6.563.359,1.626,1.889,1.69,5.909.127,7.932C108.557,192.954,106.5,193.123,102.981,191.442Zm3.4-8.585c-2,.037-3.305,1.719-3.27,4.213.036,2.642,1.438,4.331,3.526,4.249,1.941-.075,3.192-1.816,3.124-4.348C109.687,184.386,108.4,182.82,106.376,182.857Z"/>
    <path d="M186.917,182.566a9.705,9.705,0,0,1-1.155-1.315,4.335,4.335,0,0,0-4.448-2.152,4.638,4.638,0,0,0-3.945,3.053,7.654,7.654,0,0,0,.007,6.073,4.553,4.553,0,0,0,4.457,3.025,4.217,4.217,0,0,0,4.194-2.927,14.529,14.529,0,0,1,1.45-2.126c.378,3.149-.986,5.281-3.418,6.134-4.232,1.483-8.149-1.209-8.884-6.106-.76-5.065,3.01-9.151,7.816-8.471C185.608,178.124,187.219,179.754,186.917,182.566Z"/>
    <path d="M197.461,125.785l-2.037-.171v-24.19l2.037-.19Z"/>
    <path d="M94.855,192.453l-1.8-.71a29.99,29.99,0,0,1-5.072.738,2.631,2.631,0,0,1-2.476-2.679,2.685,2.685,0,0,1,2.039-3.033c1.493-.445,3.048-.68,5.045-1.108-.289-.882-.363-2.126-.818-2.286a5.423,5.423,0,0,0-3.264-.087c-.769.248-1.292,1.257-2.022,2.031-.245-.47-.475-.7-.443-.882.349-2.013,1.916-2.974,4.545-2.827,2.205.123,3.328,1.079,3.479,3.09.087,1.156-.058,2.33.053,3.482C94.24,189.43,94.537,190.661,94.855,192.453ZM92.23,187.2a25.642,25.642,0,0,0-3.989.842,2.039,2.039,0,0,0-1.04,1.655,2.281,2.281,0,0,0,1.35,1.5C90.79,191.955,92.519,190.251,92.23,187.2Z"/>
    <path d="M120.06,185.614c-.746-1.193-1.052-2.3-1.633-2.471a4.99,4.99,0,0,0-3.059.227c-.7.282-1.148,1.2-1.708,1.842l-.484-.184a4.332,4.332,0,0,1,.124-1.458c.777-1.664,2.812-2.354,5.2-1.855,1.72.36,2.509,1.374,2.587,3.4.041,1.078-.068,2.165.032,3.234.109,1.168.38,2.32.594,3.555-.857.373-.857.373-1.93-.485a18.881,18.881,0,0,1-3.256,1.226,3.363,3.363,0,0,1-3.992-2.523c-.331-1.669.613-3.042,2.639-3.588C116.505,186.179,117.891,186.015,120.06,185.614Zm-.729,1.591a26.328,26.328,0,0,0-4,.794c-.535.191-1.243,1.145-1.14,1.579a2.588,2.588,0,0,0,1.5,1.624C117.876,191.851,119.424,190.294,119.331,187.205Z"/>
    <path d="M139.446,125.785l-2.135-.138v-17.6h2.135Z"/>
    <path d="M124.138,192.377c-1.276-1.262-1.558-7.548-.525-10.606l1.121.922,4.818-1.347c.164-.634.4-1.534.631-2.433l.613-.051.664,2.631,2.111.939-2.357,1.394c0,1.667-.016,3.407.009,5.146.008.572.119,1.143.192,1.8l1.945,1.041c-2.23,1.031-3.263.628-3.475-1.316-.152-1.4-.077-2.823-.093-4.237-.01-.893,0-1.787,0-2.612-3.4-.72-5.008.4-5.177,3.4-.088,1.575-.068,3.157-.117,4.735C124.492,191.922,124.335,192.058,124.138,192.377Z"/>
    <path d="M172.879,163.9l-2.2-.181c-.074-.715-.183-1.281-.184-1.848-.013-5.072-.008-10.144-.008-15.463l2.4-.244Z"/>
    <path d="M149.531,187.058c.017,3.218-2.143,5.649-5.023,5.655s-5.06-2.435-5.039-5.638c.022-3.178,2.018-5.406,4.9-5.469C147.383,181.54,149.514,183.791,149.531,187.058Zm-8.94.08a18.411,18.411,0,0,0,1.968,3.511c1.025,1.139,3.188.871,4.256-.257a5.241,5.241,0,0,0-.068-6.613,2.959,2.959,0,0,0-4.229-.164A18.233,18.233,0,0,0,140.591,187.138Z"/>
    <path d="M36.949,150.282l2.128.676,2.107,4.01-3.5,4.179A26.77,26.77,0,0,1,34.4,155.2c-.291-.516.554-1.674,1.084-2.477.733-.716-.277-2.3,1.517-2.413Zm.54,5,.525,0,.376,1.529,1.889-2.572-.292-.312-2.01,1.4c-.292-.993,1.3-2.126-.3-3.1-1.721.953-.143,2.086-.153,3.1L35.356,154l-.2.317,1.776,2.521Z"/>
    <path d="M153.4,181.482l1.916.95-2.282,1.532v8.777c-1.837-1.6-1.1-3.16-1.216-4.5-.131-1.475-.03-2.971-.03-4.472l-1.964-1.153,1.731-1.169c.756-3.464,1.721-4.187,3.952-2.755C154.632,179.412,152.859,179.377,153.4,181.482Z"/>
    <path d="M36.57,104.266c-1.037-1.927-.865-2.316,1.69-3.172l1.23,1.849-.774,1.491.768,1.667-.266.412-1.71-.766-1.117.883-.511-.335Z"/>
    <path d="M170.647,139.34l2.25.138V142.9h-2.25Z"/>
    <path d="M137.305,104.663v-3.326h2.159v3.506Z"/>
    <path d="M55.414,122.441l-2.127.575c-.693-1.524-.231-2.4.927-2.6,1.278-.219,1.446.79,1.369,1.8C55.523,122.294,55.467,122.366,55.414,122.441Z"/>
    <path d="M63.529,144.326c.136.475.48,1.014.36,1.413a3.889,3.889,0,0,1-1.105,1.68c-.157.14-1.146-.221-1.2-.476a3.039,3.039,0,0,1,.115-2.059c.256-.417,1.138-.448,1.743-.651Zm-.766,1.185-.573.053.261,1.03.312-.057Z"/>
    <path d="M36.581,109.218c1.437.832.974,1.859.638,2.873l-.6.073-.272-2.738C36.425,109.358,36.5,109.289,36.581,109.218Z"/>
    <path d="M46.437,108.434l-.551.431c-.989-.137-1.173-.611-.534-1.74Z"/>
    <path d="M44.114,108.568c-.353-.491-.608-.707-.659-.964-.033-.169.229-.395.359-.6.246.159.614.27.7.492C44.589,107.689,44.342,108.005,44.114,108.568Z"/>
    <path d="M27.454,128.048l1.415-.866v1.844l-1.414-1.008Z"/>
    <path d="M34.362,143.675c-.1-.294-.123-.752-.326-.858-2.722-1.427-3.791-3.806-3.917-6.738l5.918-.29c.2.341.713.813.717,1.289.016,1.735-.091,3.475-.244,5.2-.095,1.074-.5,1.97-1.883,1.713C34.541,143.887,34.453,143.78,34.362,143.675Zm-1.949-4.557-.3.177a4.748,4.748,0,0,0,.459.954,5.72,5.72,0,0,0,.855.75l.222-.268Z"/>
    <path d="M33.452,122.357c.95-.595,1.756-.919,1.214,1.08l-1.183-1.124Z"/>
    <path d="M26.98,140.822c-.164-1.193.292-1.765,1.542-1.543C28.558,140.343,28.017,140.831,26.98,140.822Z"/>
    <path d="M56.853,154.273l-1.379-.183.2-1.1,1.362.375Z"/>
    <path d="M42.021,162.281c-.321.009-.736.146-.94,0a2.237,2.237,0,0,1-.71-1.032c-.041-.116.466-.614.6-.569a2.156,2.156,0,0,1,1.032.707c.146.2-.005.618-.022.938Z"/>
    <path d="M51.49,149.781l-.85,1.638c-.907-1.525-.19-1.724.888-1.6Z"/>
    <path d="M15.946,156.921l-1.128-1.865,1.624.431Z"/>
  </g>
</svg>
