<svg xmlns="http://www.w3.org/2000/svg" viewBox="0 0 300 300">
  <title>exp</title>
  <path d="M52.165,100.719v0c-9.123,0-12.436,6.2-13.265,9.314-1.658,5.8-1.625,7.7-2.869,8.734C32.922,121.461,30,122.275,30,125.8c0,5.182,7.86,3.32,7.86,13.268V167.26c0,5.388,2.513,7.237,8.111,7.237,5.386,0,7.654-2.469,7.654-7.237V138.025c0-2.9,1.041-5.159,2.493-6.2,1.658-1.245,6.861-2.5,6.861-6.237a5.184,5.184,0,0,0-3.324-4.574c-3.108-1.453-3.743-2.248-3.743-3.91,0-1.45,1.052-2.5,4.367-4.367,3.523-1.868,3.076-4.336,3.076-6.613,0-2.906-3.091-5.408-7.237-5.408Zm22.374.291v0c-3.729,0-6.2,2.927-6.2,6.654v59.261c0,5.389,2.265,7.691,8.483,7.691,5.182,0,7.7-2.3,7.7-6.654V108.7c0-5.177-2.3-7.694-6.655-7.694Zm71.4,2.7c-3.525,0-5.157,2.714-5.157,6.447V166.3c0,6.635,1.639,8.318,7.03,8.318,4.764,0,4.342-1.454,9.314-1.454s5.43,2.7,13.1,2.7c12.847,0,22.791-9.542,22.791-29.026,0-16.787-9.359-25.911-22.209-25.911-5.808,0-8.7,2.29-12.02,2.29-2.9,0-4.324-3.338-4.324-6.237v-6.824c0-4.352-2.3-6.444-5.2-6.444Zm77.936,15.47c-13.472,0-26.325,8.053-26.325,29.195,0,17.618,11.4,26.949,26.531,26.949,15.547,0,23-9.327,23-12.643,0-2.489-3.716-5.364-7.027-5.364-5.388,0-6.852,7.237-15.761,7.237-5.391,0-10.771-4.964-10.771-9.524,0-3.523,2.468-5.407,7.237-5.407h21.582c4.978,0,7.03-1.22,7.03-5.987,0-4.144-2.9-24.453-25.5-24.455ZM93.916,121.017c-2.9,0-6.231,1.065-3.744,9.357.621,2.281,13.681,40.808,13.681,44.333,0,2.9-2.049,5.619-5.987,6.444-3.733.831-6.03,2.467-6.03,5.78a5.252,5.252,0,0,0,5.614,5.617h5.159c6.007,0,12.654-1.872,16.8-14.724L135.8,128.086a13.02,13.02,0,0,0,.414-3.327c0-2.074-2.083-3.74-4.574-3.74H128.1c-3.937,0-6.409,1.881-7.237,5.407L116.5,146.511c-.621,3.111-1.879,6.447-3.951,6.447-1.657,0-3.077-1.06-4.116-6.24l-4.161-19.046c-1.033-4.352-3.088-6.654-6.613-6.654Zm129.964,8.941c4.976,0,9.357,3.709,9.357,7.027,0,2.9-3.563,4.367-10.4,4.367-5.6,0-8.484-1.675-8.484-4.781,0-3.73,5.385-6.613,9.527-6.613Zm-56.767.705c8.287,0,12.02,8.1,12.02,18.671,0,11.195-5.8,16.554-12.434,16.554-7.048,0-12.021-5.989-12.021-18.007S160.685,130.663,167.113,130.663Zm93.074,25.62c-7.05,0-9.11,2.683-9.11,9.731,0,4.558.817,9.314,9.317,9.314,6.008,0,9.15-2.064,9.15-9.731,0-4.978-.859-9.314-9.357-9.314ZM148.565,180.152c-7.06,0-9.151,2.707-9.151,9.771,0,4.569.841,9.358,9.358,9.358,6.022,0,9.1-2.081,9.1-9.771C157.879,184.526,157.084,180.152,148.565,180.152Zm22.416,0c-7.063,0-9.151,2.707-9.151,9.771,0,4.569.836,9.358,9.355,9.358,6.022,0,9.11-2.081,9.11-9.771C180.3,184.526,179.5,180.152,170.981,180.152Zm22.748,0c-7.06,0-9.107,2.707-9.107,9.771,0,4.569.795,9.358,9.314,9.358,6.022,0,9.151-2.081,9.151-9.771C203.087,184.526,202.248,180.152,193.729,180.152Zm22.416,0c-7.063,0-9.148,2.707-9.148,9.771,0,4.569.836,9.358,9.355,9.358,6.022,0,9.148-2.081,9.148-9.771,0-4.984-.834-9.358-9.355-9.358Zm22.416,0c-7.06,0-9.151,2.707-9.151,9.771,0,4.569.841,9.358,9.358,9.358,6.022,0,9.148-2.081,9.148-9.771,0-4.984-.833-9.358-9.355-9.358Zm22.084,0c-7.06,0-9.151,2.707-9.151,9.771,0,4.569.839,9.358,9.358,9.358,6.023,0,9.148-2.081,9.148-9.771C270,184.526,269.164,180.152,260.645,180.152Z"/>
</svg>
