<svg xmlns="http://www.w3.org/2000/svg" viewBox="0 0 300 300">
  <title>exp</title>
  <g>
    <path d="M41.079,77.738c1.432,1.372,3.619,2.2,3.458,4.747,0,.006.487.036.745.066,1.8.217,3.614-.088,5.366,1.019,1.068.675,1.979,1.194,2.386,2.428.115.349.529.893.753.868,1.673-.183,2.108,1.09,2.984,2.076.8.9,1.789,1.421,1.592,2.883-.135,1,.546,1.618,1.556,1.757,1.186.164,1.632.875,1.737,2.014a1.9,1.9,0,0,0,.731,1.264c1.408.92,1.434,2.075.784,3.42-.373.771-.447,1.65.338,2.045a2.523,2.523,0,0,1,1.413,2.955,2.065,2.065,0,0,0,.16,1.266c.946,1.474.355,2.791-.451,3.973-.915,1.344-1.793,2.494-.057,3.894.269.217.059,1.193-.116,1.76-.3.988-1.246,1.792-.37,3.035.218.31-.361,1.379-.807,1.9-.4.465-1.168.587-1.682.979-.782.6-1.507,1.28-.556,2.345a2.058,2.058,0,0,1,.4.822c-2,1.31-.929,4.761-3.835,5.479-.513.127-.891.828-1.315,1.279-.294.313-.546.666-.842.977-.891.935-2.133-.531-3.027.432.8,1.48-.557,1.8-1.315,2.439-.887.753-1.793,1.486-2.63,2.291-.238.23-.467.828-.344,1,.215.3.869.641,1.055.522.961-.616,1.495-.5,2.052.559.237.453,1.053.62,1.624.877,1.378.618,2.773,1.2,4.138,1.843.117.055.061.476.086.727-1.466-.119-2.9.678-4.369.165a5.063,5.063,0,0,1-1.074-.716l.01.008c-.616-.79-1.251-.919-1.912-.052l-.146.113-4.522-.747c.466-1.179,1.505-.444,2.255-.674.2-.063.409-.113.613-.168-.178-.181-.344-.376-.537-.539-.433-.363-.879-.71-1.321-1.064,1.306-.566-.053-1.471.276-2.161.471-.159.955-.29,1.407-.492.158-.072.238-.319.353-.487-.268-.054-.649-.247-.782-.138a7.754,7.754,0,0,0-.97,1.126c-2.524-.06-2.53,2.49-3.8,3.733-.1.1.219.752.459,1.057.7.9,1.322-.121,1.992-.146.437,1.7,2.4,1.847,3.236,3.179.265.424.891.607,1.295.964.58.513,1.109,1.084,1.66,1.631a9.768,9.768,0,0,1-2.59.085,12.714,12.714,0,0,1-3.281-1.321c-.626-.351-1.064-.634-1.764-.205-.561.344-.81.363-.813-.591-.006-1.675-.9-2.237-2.224-1.406-.876.549-1.236.752-2.161.034-1.031-.8-1.46-.439-1.925,1.011a4.79,4.79,0,0,1-.533.918c-1.558-1.015-2.33.7-3.507.989a37.6,37.6,0,0,1-3.822.617c-.144.02-.457-.206-.454-.313a.823.823,0,0,1,.312-.539,11.056,11.056,0,0,1,2.886-2.111c1.064-.358.52-2.254,2.07-1.843.034.009.28-.423.223-.5-.165-.228-.424-.521-.663-.538a3.589,3.589,0,0,0-3.646,1.713c-.588,1.046-.98.53-1.772.274a31.2,31.2,0,0,0-4.567-.761,3.356,3.356,0,0,1-.793-.354c.192-.257.329-.63.585-.751,1.18-.555,2.385-1.062,3.6-1.54.4-.156.95-.047,1.25-.286.49-.392.738-1.151,1.261-1.417.478-.244,1.213.074,1.782-.069s1.347-.338.156-1.054a28.54,28.54,0,0,1-3.841-3.036c-.463-.4-1.528-.916-.191-1.609-.3-.147-.6-.422-.9-.42-1.288.009-2.5-.066-2.692-1.7-.113-.954-.793-.879-1.445-.929-1-.075-2.059-.755-1.731-1.546.76-1.833-.485-2.213-1.5-2.981a1.415,1.415,0,0,1-.2-1.37c1.23-1.336.593-2.121-.669-2.779-1-.519-2.359-1.333-2.112-2.235.439-1.606-.389-2.592-.832-3.843a1.953,1.953,0,0,1,.5-1.714c1.119-.957.883-1.863.237-2.885a11.511,11.511,0,0,1-1.169-1.963c-.22-.581-.427-1.677-.179-1.839,1.3-.848.7-1.927.387-2.8a1.294,1.294,0,0,1,.689-1.839,2.145,2.145,0,0,0,.973-3c-.555-1.428,1.134-5.493,2.585-5.8a1.938,1.938,0,0,0,1.784-2.095c.031-1.481.977-2.005,1.924-2.784.753-.619.766-2.066,2.324-1.813.37.06,1.017-.437,1.248-.843,1.512-2.65,3.929-3.484,6.764-3.485,1,0,1.562-.15,1.766-1.356.308-1.832,1.834-2.859,3.233-3.9ZM27.206,88.308c-.976-.8-.983-.8-1.312.665l-1.324.658c-.556.4-1.21,1.234-1.652,1.134-1.574-.357-.826.762-.952,1.289-.041.172.129.394.2.594.281-.259.525-.632.856-.739.24-.079.594.193.9.308.007.214.022.429.02.643-.007.669,0,1.361.93,1.329.9-.031,1.033-.524.7-1.3-.058-.134.225-.6.357-.606,2.2-.042,1.43-1.5,1.292-2.652C28.042,89.185,27.982,88.743,27.206,88.308Zm1.985,54.161a7.131,7.131,0,0,0-1.272.117c-.139.036-.29.4-.262.583.023.147.427.388.464.357.379-.327.718-.7,1.068-1.059l1.332-.647c1.328,0,2.714-.783,3.964.336.426.381.8,1.143,1.549.321.623-.686.175-1.185-.182-1.714a16.471,16.471,0,0,0-1.638-2.274c-.29-.3-.933-.262-1.416-.378-.076.408-.349.928-.192,1.2.462.807.15,1.081-.565,1.4A9.4,9.4,0,0,0,30.5,141.8Zm29.1-44.9-.725-1.2-1.606,1.11.978.735c.178.671.86,1.148.449,2.088-.133.306.842,1.506,1.449,1.632.909.189.649-.857.713-1.433a15.474,15.474,0,0,0,.021-1.627c.367.145.818.5,1.085.4,1.189-.472.77.471.9.93a3.013,3.013,0,0,0-.55.582c-.05.09.138.313.217.475a2.33,2.33,0,0,0,.276-.478,2.737,2.737,0,0,0,.051-.584c.819-1.7.778-1.756-1.253-2.245-.985-.237-.536.58-.721.932l-1.315-.67C58.832,98.018,58.955,97.808,58.29,97.566ZM20.611,94.918c-.381.139-.815.469-1.133.381-.956-.266-.846.175-.614.761.115.291.283.561.427.84-.776.421-1.01,1.482-2.193,1.543-.576.03-.4.8.208,1.086a4.242,4.242,0,0,0,.2.942c.066.145.345.192.528.284.021-.234.146-.551.04-.685a3.036,3.036,0,0,0-.784-.531c.66-1.365,1.324-.051,1.987,0,.212.22.428.63.635.625.871-.021-.279,1.726,1.061,1.17,1.043-.434.55-1.15.321-1.827a2.422,2.422,0,0,1-.042-.636l1.326-.656c.154-.342.532-.8.427-1.006-.615-1.217-1.517-.893-2.414-.3V94.906l.592-.66-.364-.261Zm38.309.647c.036.628.006,1.428.955,1.123.367-.118.877-.87.783-1.151-.34-1.011-.943-.236-1.45-.048-.1.036-.2.061-.3.091a3.569,3.569,0,0,0-.19-.948c-.331-.658-.815-1.023-1.511-.42-.3.256-.548.562-.82.845a5.721,5.721,0,0,1,1.394-.066A4.489,4.489,0,0,1,58.92,95.565ZM29.855,85.008a14.5,14.5,0,0,0-1.411.36,3.521,3.521,0,0,0-.94.543.684.684,0,0,0,.2.515c.351.19,1.008.492,1.086.392A13.032,13.032,0,0,0,29.846,85a4.58,4.58,0,0,0,1.477.508c.31,0,.615-.5.922-.777-.255-.155-.52-.3-.764-.467C30.509,83.585,30.186,84.3,29.855,85.008Zm-7.936,40.941c.188-.212.58-.494.534-.627-.476-1.4-1.286-1.578-2.617-.565-.2.152-.244.509-.36.771l1.133.42,1.323.66a4.493,4.493,0,0,1-.257,1.246c-.613,1.156-.547,1.532.555,1.851a15.906,15.906,0,0,1,1.6.267c.288.118.683.706.6.876-.518,1.072.182,1.04.857,1.047,1.886.019.142-.936.245-1.018,1.8-1.42.765-1.592-.674-1.617a9.561,9.561,0,0,1-1.313-.029c-.206-.033-.379-.272-.567-.418.2-.071.392-.144.59-.211.442-.151.885-.3,1.328-.447-.275-.334-.487-.816-.84-.968a13.717,13.717,0,0,0-2.141-.564ZM42.4,130.581l.2.928.37-.244-.565-.689c-.078-.311-.092-.856-.243-.9a21.177,21.177,0,0,0-3-.581c-.206-.024-.527.331-.661.583-.051.1.252.549.429.572C40.082,130.4,41.241,130.48,42.4,130.581Zm-23.781-15.2,1.316,1.336a7.314,7.314,0,0,0,.492,2.46c.938,1.52,1.424,1.384,2.282-.172.608-1.1.449-1.545-.833-1.7-.253-.031-.413-.819-.615-1.257.8-.725.959-1.4-.194-1.911-.587-.263-1.194-.482-1.791-.72a1.126,1.126,0,0,1,.1-.3c.86-1.256-.616-.931-.934-1.387l-1.623,1.164a11.964,11.964,0,0,1,1.3.129,10.03,10.03,0,0,1,1.172.385l-.661,2c-.354-.366-.692-1.011-1.065-1.032a5.282,5.282,0,0,0-1.8.562l.888,1.776c.7.865,1.395,1.731.1,2.671l.559.645L17.294,120a19.7,19.7,0,0,0,1.671,1.252c.117.073.65-.2.677-.363.272-1.624-1.035-3.4-3.011-4.178Zm33.7,9.247c0,.754-.029,1.511.019,2.262a2.324,2.324,0,0,0,.35.755c.183-.1.452-.163.534-.321a7.141,7.141,0,0,0,.993-2.233c.059-.474-.55-1.032-.86-1.552l-1.05,1.105c-.5-.851-.939-.836-1.246.121-.245.762.4,2.328-1.485,1.554-.091-.038-.506.333-.5.5a8.83,8.83,0,0,0,.27,1.467c.681-1.216.959-.392,1.315.241.1.17.445.4.49.361a1.308,1.308,0,0,0,.474-.622C51.917,127.069,51.062,125.65,52.315,124.627Zm10.568-18.48c-1.172.67-2.005,1.4-.579,2.659a.8.8,0,0,1,.111.735c-.243.524-1.155.808-.532,1.622a10.659,10.659,0,0,0,1.254-1.011c1.163-1.258,1.132-1.262-.167-3.052-.164-.226-.073-.639-.1-.965a7.975,7.975,0,0,0,.985-1.528c.07-.184-.407-.818-.656-.832a2.787,2.787,0,0,0-1.548.408c-.14.087-.4,1.087.577.942S62.714,105.774,62.883,106.147Zm-5.946,19.814-.011-.012,0,.666a2.587,2.587,0,0,0-2.575.98,4.513,4.513,0,0,0-.371.784c.2.067.393.138.593.2.454.139.911.272,1.366.407a10.711,10.711,0,0,1-1.212.266c-.533.058-1.085-.009-1.606.091-.235.045-.577.364-.579.561,0,.219.329.441.513.663s.385.474.577.71l-1.063.292,1.055.31c.387-.137,1.1-.257,1.109-.414.067-1.28.776-1.5,1.91-1.674,1.638-.249,1.646-.535.462-2.219-.17-.24-.124-.633-.178-.955,2.477-.427,2.109-.439,2.194-2.92.066-1.926-1.041-.728-1.541-1.036-.078-.428,1.116-1.223-.3-1.237a15.462,15.462,0,0,0-1.817.467,8.739,8.739,0,0,1-1.67-.1c.287.542.605,1.069.848,1.629.166.384.1.977.369,1.178s.819.049,1.246.05ZM53.64,90.3c.429.018,1.067-.937,1.225-.024a3.564,3.564,0,0,0,1.584,2.342.837.837,0,0,0,.81,0,.976.976,0,0,0,.188-.878,1.4,1.4,0,0,0-.843-.752c-.881-.1-.985-.645-1.065-1.344-.044-.389-.207-1.026-.435-1.083a6.719,6.719,0,0,0-1.8,0l.309,1.71c-.5.156-1.017.286-1.506.479a5.39,5.39,0,0,0-.821.5,4.443,4.443,0,0,0,.842.861c.487.283,1.488-.07,1.375.907-.075.658-.5,1.284.63,1.188a8.675,8.675,0,0,0,1.215-.272,8.9,8.9,0,0,0-.713-1.609c-.224-.325-.836-.412-1-.742S53.626,90.736,53.64,90.3ZM23.24,122c-.157-.34-.326-.973-.467-.967a2.662,2.662,0,0,0-1.494.448,4.034,4.034,0,0,0-1.023,1.426c.876.819.8-.46,1.255-.622a9.583,9.583,0,0,1,1.741-.3c0,.754.006,1.509.013,2.264.008.878.6,1.033,1.306,1.05l-.009-.008a4.412,4.412,0,0,0,.582,1.472c.417.449,1.211,1.987,1.479-.149a2.112,2.112,0,0,1,.521,0c.056.546.014,1.108.115,1.642.157.822.522,1.225,1.223.363.122-.151.252-.387.4-.408,1.458-.2,1.76-.353,1.46-1.531-.306-1.2-.84-.461-1.241.1-.022.031-.544-.162-.562-.289a13.086,13.086,0,0,0-.155-1.961c-.274-.9-.658-1.281-1.471-.218-.446.584-.851-.055-1.018-.646C25.318,121.61,25.3,121.614,23.24,122Zm-3.3-11.9c.2-.439.678-1.149.557-1.271-.718-.73-1.091-1.165-.252-2.252,1.173-1.518.637-2.464-1.627-3.731-.106-.156-.2-.429-.322-.445a2.518,2.518,0,0,0-.763.131,2.621,2.621,0,0,0,.506.257,2.961,2.961,0,0,0,.591.043c.066.482.342,1.077.155,1.421-.424.78-.872.162-1.263-.185-.082-.073-.158-.2-.247-.211-.512-.059-1.171-.3-1.5-.067a1.519,1.519,0,0,0-.177,1.418c.483,1.053,1.031,1.836-.142,2.978-.663.647.388,2.485,1.426,2.942.127.055.4-.1.539-.229s.312-.428.254-.533a2.89,2.89,0,0,0-.653-.72,9.237,9.237,0,0,0-.778-.559c.293-.1.648-.354.87-.268.965.376,1.892.851,2.833,1.29l-.934.189.259.373Zm39,5.926c.415-.08.919.913,1.233-.063.129-.4-.065-.9.068-1.3a6.507,6.507,0,0,1,.8-1.551c1.084.453-.057.938-.014,1.428a2.369,2.369,0,0,0,.448,1.388c.36.359.661.387.062.839A7.449,7.449,0,0,0,60.1,118.44a1.047,1.047,0,0,0-.018.769c.981.259,2.45.405.063.919-.185.04-.281.489-.419.748.283.092.626.332.837.246a5.952,5.952,0,0,0,1.687-.97,1.628,1.628,0,0,0,.337-1.069c-1.8-.987-.359-1.574.193-2.372.431-.624,1.289-1.441-.14-2.085-.263-.119-.443-.746-.419-1.122.085-1.3-.727-1.414-1.677-1.408-1.265.006-3.116,2.3-2.83,3.8.194,1.016.423,1.669-.972,1.651-.127,0-.494.875-.356,1.082.673,1.008.476-.536.9-.358a1.5,1.5,0,0,1,.552.339c.742.846,1.154.308,1.245-.4a9.532,9.532,0,0,0-.2-2.143Zm-1.463-11.48a1.7,1.7,0,0,0-.429-2.6,2.917,2.917,0,0,1-.79-1.372c-.505-1.5-.907-3.038-1.43-4.533-.129-.368-.541-.857-.87-.895-1.16-.137-1.563-.8-1.951-1.82-.276-.723-1.537-1.19-1.606-1.85-.184-1.765-1.361-.224-1.93-.763-1.5-1.416-3.183-2.632-4.636-4.085-.474-.474-.3-.649-.923-.09-1.2,1.085-2.673,1.846-4.422,1.173-.871-.336-1.84-1.109-2.574-.925-.822.206-1.4,1.307-2.139,1.952a10.368,10.368,0,0,1-1.623,1.086,17,17,0,0,0-2.768,1.58,10.877,10.877,0,0,0-2.132,2.7c-.639,1.095-1.868,1.042-2.636,1.641-.736.574.322,2.044-.745,3.084-.764.743-.707,2.3-1.445,3.105-.809.878-.458,1.6-.552,2.5-.219,2.09.583,4.246-.458,6.3a1.319,1.319,0,0,0,.561,1.972c1.471.581,1.082,1.981,1.471,3.052s1.515,1.956.666,3.3c-.1.159.189.8.25.79,1.817-.2,2.072,1.733,3.283,2.365a16.967,16.967,0,0,1,3.792,3.381c1.274,1.254,3.189,1.807,4.792,2.727.3.172,1.071.141,1.149-.022.7-1.466,1.856-.271,2.688-.558,1.212-.417,1.637,1.5,2.78.792.91-.564,1.68-1.565,2.645-1.783A6.105,6.105,0,0,0,48.712,125c1.559-1.507,3.566-2.549,4.8-4.464a1.234,1.234,0,0,1,1.126-.332c1.306.48,1.05-.566.825-.973-.689-1.244-.394-2.092.38-3.255.72-1.082.678-2.626,2.077-3.405.25-.139.312-1.1.1-1.5C56.9,108.9,58.316,106.6,57.474,104.544Zm-6.11,26.161c.035.121-.024-.531-.187-.558a2.045,2.045,0,0,0-1.493.185c-1.072.938-1.436.726-1.388-.635.045-1.269-.91-1.74-1.867-1.916-.408-.075-.95.561-1.427.881-1.061.71-.163,1.387.132,1.951.49.937.374,1.254-.712,1.454-.455.085-1.186.934-1.106,1.274a2.161,2.161,0,0,0,3.467,1.1c.628-.5.911-1.323,2.145-1.028C50.7,133.836,51.119,133.292,51.364,130.705Zm-22.629-.65c-.2.066-.558.125-.56.2a9.337,9.337,0,0,0,.061,2.794,1.758,1.758,0,0,0,1.59.663c1.3-.652,1.953-.163,2.515.938a1.306,1.306,0,0,0,.7.656,1.9,1.9,0,0,0,1.324-.04c.421-.276.637-.853.977-1.271.555-.683.421-1.157-.381-1.478-.1-.04-.184-.121-.285-.157-1.069-.38-1.545-.66-.586-1.928.94-1.242-.135-2.51-1.727-2.452a1.619,1.619,0,0,0-1.607,1.707c.227,2.068-.369,1.727-1.464.695A2.7,2.7,0,0,0,28.735,130.055Zm21.83-43.014c.379-.432.872-.734.911-1.086.121-1.105-.566-.417-.984-.375-.194.019-.563-.072-.58-.163-.358-1.925-2.085-.859-3.055-1.419a.99.99,0,0,0-1.542.651,6.685,6.685,0,0,0,.137,2.131c1.23-.171,1.118,1.829,2.509,1.513.672-.153.985.271.656.968.17.078.466.251.491.218.315-.411.591-.853.876-1.287a5.307,5.307,0,0,0-.906-.533c-1.118-.394-1.715-1.784-3.122-1.645a.975.975,0,0,1-.109-.578.8.8,0,0,1,.478-.326c.882.835,2.56-.381,3.163,1.25C49.6,86.662,50.161,86.8,50.565,87.041ZM34.558,85.65c-.381-.179-.687-.335-1.006-.459-.039-.015-.136.159-.223.22a16.765,16.765,0,0,1-3.264,2.171c-1.213.462.039,1.352-.579,1.776.2.031.5.162.587.077A14.154,14.154,0,0,1,34.057,86.7C34.268,86.6,34.321,86.172,34.558,85.65Zm4.663,58.43c1.079-.161,1.831-.252,2.568-.413a.828.828,0,0,0,.063-.673c-.469-.5-.881-1.48-1.762-.483-.458.518-.848.551-1.3-.013-.624-.782-1.124-.318-1.565.225a5.922,5.922,0,0,0-.475.806c.426.072.857.123,1.277.222C38.546,143.872,39.055,144.033,39.221,144.08Zm20.733-37.057a7.5,7.5,0,0,1-1.081,1.161,1.089,1.089,0,0,0-.338,1.653,8.868,8.868,0,0,0,1.362,1.317,6.691,6.691,0,0,0,.878-1.671,4.408,4.408,0,0,0-.167-1.87C60.547,107.365,60.16,107.2,59.954,107.023Zm-.506-1.343c.6-.131,2.023.907,1.078-1.045a5.561,5.561,0,0,1-.066-2.171q-.771,1-1.543,2.01c-.066.086-.176.148-.217.242-.124.289-.223.588-.333.884ZM40.421,79.464c-.471-.411-.692-.755-.931-.769s-.483.31-.69.521c-.028.028.161.389.254.391A11.126,11.126,0,0,0,40.421,79.464Zm1.364,3.7L41.42,82a2.747,2.747,0,0,0-.278.845,6.452,6.452,0,0,0,.226,1.2ZM38.85,133.4c-.167.286-.361.465-.351.633a4.162,4.162,0,0,0,.244.9c.1-.177.293-.353.3-.533A4.993,4.993,0,0,0,38.85,133.4Zm3.059-48.147-.57.757c.192.046.416.175.568.117a.717.717,0,0,0,.33-.473C42.258,85.566,42.055,85.424,41.909,85.255ZM22,95.117l.685.357c.066-.142.224-.365.182-.413a4.9,4.9,0,0,0-.645-.552Zm17.381,42.446a3.157,3.157,0,0,0,.53.183c.059.01.141-.119.213-.185-.13-.092-.255-.245-.392-.256C39.629,137.3,39.509,137.465,39.384,137.563Zm-7.836-.755a3.076,3.076,0,0,0-.5-.2c-.055-.013-.14.109-.211.169.107.1.218.288.321.284C31.291,137.06,31.418,136.9,31.548,136.808Zm4.624-5.959c-.08.065-.234.141-.226.191a3.679,3.679,0,0,0,.181.575c.082-.069.242-.15.233-.2A3.144,3.144,0,0,0,36.172,130.849Zm1.3.081a3.118,3.118,0,0,0,.2-.5c.013-.053-.108-.138-.167-.208-.1.1-.291.214-.287.314C37.227,130.671,37.382,130.8,37.474,130.93Zm-2.8,14.286-.565.233c.076.075.168.225.224.212a3.451,3.451,0,0,0,.563-.223C34.826,145.364,34.753,145.29,34.678,145.216Zm3.505-59.209a3.332,3.332,0,0,0-.561-.244c-.063-.016-.165.126-.25.2a3.3,3.3,0,0,0,.562.243C38,86.218,38.1,86.077,38.183,86.007Zm1.363-1.386-.619-.13a1.408,1.408,0,0,0-.018.359c.005.029.182.066.254.036A2.195,2.195,0,0,0,39.546,84.621Zm-.718-3.251c-.07-.08-.154-.236-.21-.226a3.613,3.613,0,0,0-.582.194c.073.08.159.238.216.228A3.235,3.235,0,0,0,38.828,81.37Zm-2.749-.046a3.238,3.238,0,0,0-.182.533c-.01.061.115.144.178.216.087-.13.232-.256.243-.393C36.326,81.572,36.171,81.451,36.079,81.324Zm6.658-.658c-.079.071-.232.154-.222.21a3.76,3.76,0,0,0,.192.59c.079-.075.233-.162.223-.222A3.353,3.353,0,0,0,42.737,80.666Z"/>
    <path d="M2.77,77.738c.024,1.1.068,2.194.068,3.292q.006,65.088,0,130.177c0,.549.01,1.1,0,1.648-.046,2.232-.049,2.232-2.711,2.269V80.38c0-.881-.344-2.1.1-2.546S1.889,77.738,2.77,77.738Z"/>
    <path d="M105.81,222.39a21.789,21.789,0,0,1-1.839-1.245,7.675,7.675,0,0,1-1.543-1.581c-.461-.693-1.107-1.546-.178-2.315a2.375,2.375,0,0,1,2.875.57,4.023,4.023,0,0,0,2.955,1.836c2.573.366,5.354-.358,5.668-4.261.04-.5.094-.992.142-1.487-.371.2-.756.378-1.112.6a7.414,7.414,0,0,1-11.623-6.025,14.181,14.181,0,0,1,.957-6.713c1.625-3.661,7.789-5.835,11.277-2.576,1.03.963.828-.134,1.027-.6.418-.982,1.3-.765,1.96-.532a1.6,1.6,0,0,1,.693,1.26c.039,5.594.1,11.192-.057,16.783a6.686,6.686,0,0,1-1.485,3.5,20.489,20.489,0,0,1-3.112,2.785Zm7.874-15.732h.026c0-.549.031-1.1,0-1.648-.161-2.381-1.314-3.88-3.3-4.328a4.625,4.625,0,0,0-5.062,2.172c-1.32,2.018-1.062,6.281.4,8.45a2.865,2.865,0,0,0,.964.881,4.751,4.751,0,0,0,6.967-3.551A15.138,15.138,0,0,0,113.684,206.658Z"/>
    <path d="M148.082,222.39c-.026-7.453-.069-14.9-.067-22.357,0-2.193,1.192-2.933,3.107-1.664a1.422,1.422,0,0,0,1.536.215,14.216,14.216,0,0,1,4.033-.9c4.164.113,6.206,1.825,7.463,5.978A9.929,9.929,0,0,1,163.1,212.4a7.778,7.778,0,0,1-10.271,2.6c-1.117-.587-1.387-.49-1.427.635-.05,1.423.06,2.855-.047,4.272a13.973,13.973,0,0,1-.634,2.475Zm13.345-15.364c-.4-1.338-.7-2.605-1.17-3.807a4.031,4.031,0,0,0-4.135-2.6,4.208,4.208,0,0,0-4.413,2.692,9.44,9.44,0,0,0-.715,2.16c-.391,2.77.726,6.268,3.6,7.28,1.76.621,4.464.046,5.244-1.464A36.039,36.039,0,0,0,161.427,207.026Z"/>
    <path d="M300,211.822a14.676,14.676,0,0,1-2.417,2.543,9.189,9.189,0,0,1-9.057.731c-2.323-.994-3.375-2.955-4.043-5.223-1.062-3.61-.336-8.931,4.054-11.395a7.887,7.887,0,0,1,8.937,1.165c.9.916,1.688,1.951,2.526,2.932v5.284c-1.43.007-2.859.019-4.289.022-2.309,0-4.62-.029-6.928.02-1.2.025-1.506.577-1.077,1.708,1.4,3.679,5.776,4.87,8.114,1.873,1.3-1.664,2.528-1.762,4.18-1.642Zm-8.245-6.7v.014c1.088,0,2.177.03,3.264-.006,1.821-.061,2.118-.547,1.111-2.177a5.219,5.219,0,0,0-2.029-1.924c-2.6-1.238-5.442.2-6.4,3.089-.248.744.163.985.793,1C289.578,205.136,290.667,205.12,291.755,205.12Z"/>
    <path d="M39.1,222.39c-.017-.658-.059-1.317-.043-1.974.021-.877.212-1.635,1.344-1.017.922.5,1.483-.072,1.965-.652a5.263,5.263,0,0,0,.891-5.8c-1.56-3.709-3.054-7.446-4.562-11.177a9.021,9.021,0,0,1-.6-1.856c-.1-.575-.231-1.39.07-1.731.561-.636,2.492-.3,2.9.393a10.57,10.57,0,0,1,.743,1.807c1.122,3.172,2.219,6.353,3.366,9.517.134.369.522.647.793.967.146-.37.3-.736.435-1.112q1.6-4.615,3.2-9.233a12.868,12.868,0,0,1,.7-1.821,2.447,2.447,0,0,1,2.885-.621c.859.586.321,1.313.043,2.03-2.08,5.368-4.1,10.761-6.2,16.119-.905,2.3-1.7,4.713-3.962,6.16Z"/>
    <path d="M239.3,203.4c.235,5.854-1.961,9.956-7.04,11.825-4.146,1.526-8.539,1.263-12.006-1.8a9.652,9.652,0,0,1-3.531-7.142,32.691,32.691,0,0,1-.1-5.087c1.01-7.024,5.537-10.229,10.985-10.431a11.309,11.309,0,0,1,11.678,10.469C239.356,202.112,239.3,203,239.3,203.4Zm-19.167.142a8.246,8.246,0,0,0,1.386,5.841c3.371,5.131,9.7,4.841,12.8.119,2.447-3.725,2.285-7.962.09-11.82-2.424-4.262-8.749-5.154-11.958-1.161A9.292,9.292,0,0,0,220.128,203.545Z"/>
    <path d="M179.139,172.588c0,1.976.089,3.958-.027,5.928a17.052,17.052,0,0,1-.744,4.8,6.746,6.746,0,0,1-2.37,2.957c-2.769,1.962-5.934,1.866-9,.906a5.873,5.873,0,0,1-2.626-2.29c-.444-.632-1.621-1.574-.334-2.5.9-.648,1.915-.429,2.715.725a4.662,4.662,0,0,0,4.554,1.853c2.978-.2,4.592-2.217,4.466-5.3-.029-.727-.337-.62-.787-.279-2.9,2.2-5.887,2.017-8.841.163a5.7,5.7,0,0,1-1.747-1.822,10.826,10.826,0,0,1-1.022-9.685c1.8-4.971,7.572-6.471,10.98-4.167.869.588,1.277.867,1.925-.135.155-.239.812-.178,1.242-.209,1.049-.077,1.643.3,1.624,1.48-.041,2.525-.013,5.051-.013,7.577Zm-12.537-.977c0,.9-.059,1.67.012,2.429a4.168,4.168,0,0,0,3.267,3.982,4.717,4.717,0,0,0,4.919-2.361,8.55,8.55,0,0,0,.211-7.539c-.807-2.048-3.854-2.892-5.832-1.85A4.64,4.64,0,0,0,166.6,171.611Z"/>
    <path d="M118.351,168.916c0-3.41-.029-6.821.013-10.23.021-1.676.178-1.76,2-1.756,1.779,0,1.936.1,1.966,1.786.043,2.529.005,5.06.022,7.59a4.708,4.708,0,0,0,.2.942,3.18,3.18,0,0,0,.8-.418c1.5-1.455,2.946-2.968,4.47-4.4,1.675-1.571,3.382-3.112,5.147-4.58a3.91,3.91,0,0,1,2-.878,15.611,15.611,0,0,1,2.9.23c-.656.654-1.305,1.315-1.968,1.962-2.28,2.228-4.547,4.472-6.861,6.664-.68.644-.381,1.008.064,1.61,2.85,3.863,5.649,7.763,8.449,11.662a6.835,6.835,0,0,1,.536,1.128,6.448,6.448,0,0,1-1.359.568,3.574,3.574,0,0,1-3.844-1.846c-2.012-2.982-4.277-5.8-6.236-8.812-.769-1.184-1.02-.791-1.831-.147a6.121,6.121,0,0,0-2.5,6,29.241,29.241,0,0,1,.019,3.627c0,.831-.462,1.172-1.234,1.187-2.643.054-2.793.053-2.757-2.325C118.387,175.3,118.351,172.106,118.351,168.916Z"/>
    <path d="M219.346,172.109c0-2.31-.035-4.62.012-6.928.032-1.533,1.151-2.317,2.3-1.382.832.678,1.228.8,2.058.3,2.8-1.7,5.558-1.913,8.168.382.688.606,1.167.276,1.687-.2,1.6-1.48,3.581-1.52,5.573-1.354a4.854,4.854,0,0,1,4.687,4.648c.135,3.955.021,7.917.042,11.876.007,1.245-.737,1.382-1.723,1.387-1.03.006-1.672-.246-1.66-1.454.032-3.3.037-6.6-.006-9.9-.028-2.107-.689-3.143-2.15-3.643a3.887,3.887,0,0,0-5,3.307c-.112,3.3-.012,6.6-.054,9.9-.02,1.62-.36,1.837-1.966,1.788-.959-.03-1.4-.42-1.392-1.38.011-2.749,0-5.5,0-8.248,0-.769.047-1.543-.015-2.308a3.3,3.3,0,0,0-2.383-3.165c-1.036-.234-3.577.71-4.007,1.7a8.8,8.8,0,0,0-.764,3.121c-.1,2.855-.007,5.717-.049,8.576a1.721,1.721,0,0,1-2.676,1.567,1.743,1.743,0,0,1-.647-1.321c-.063-2.417-.029-4.838-.029-7.257Z"/>
    <path d="M16.589,202.919c0-3.3-.031-6.6.012-9.894.02-1.531.258-1.7,1.729-1.687,1.446.012,1.645.167,1.678,1.746.047,2.2.044,4.4,0,6.6-.019,1.065.277,1.618,1.475,1.6,3.187-.053,6.376-.039,9.564-.008.985.01,1.376-.4,1.367-1.361-.022-2.308-.04-4.618.014-6.925.035-1.5.28-1.67,1.774-1.646,1.435.022,1.632.161,1.638,1.78q.04,10.224,0,20.447c-.007,1.5-.262,1.664-1.764,1.641-1.447-.021-1.621-.154-1.65-1.756q-.064-3.627,0-7.255c.018-1.062-.24-1.619-1.466-1.594-3.187.065-6.376.041-9.564.011-.964-.009-1.391.339-1.38,1.334.03,2.528.039,5.057-.008,7.585-.029,1.528-.254,1.691-1.728,1.676-1.454-.015-1.659-.163-1.677-1.735C16.563,209.955,16.59,206.437,16.589,202.919Z"/>
    <path d="M105.8,168.77c0,3.179-.013,6.358.008,9.537.007,1.034-.039,2.1-1.2,2.414-.785.214-1.746.383-2.277-.721-.076-.16-.931-.139-1.283.057a7.673,7.673,0,0,1-9.041-.551,6.135,6.135,0,0,1-1.5-1.626,10.75,10.75,0,0,1-1.025-9.964c1.372-3.445,4.735-6.535,10.449-4.393.793.3,1.534.732,2.3,1.1.066-.973.158-1.945.191-2.919s-.018-1.974.014-2.959c.053-1.641.2-1.791,1.582-1.816,1.556-.028,1.754.141,1.773,1.971C105.827,162.192,105.8,165.481,105.8,168.77Zm-8.123,9.357a3.525,3.525,0,0,0,3.419-1.615,7.756,7.756,0,0,0,.123-8.561c-1.361-1.792-3.441-2.649-5.1-2.1a5,5,0,0,0-3.5,4.649,24.885,24.885,0,0,0,0,3.277A4.916,4.916,0,0,0,97.68,178.127Z"/>
    <path d="M70.205,203.477c0,3.292.026,6.584-.009,9.876-.017,1.708-.319,2.081-1.872,1.807a9.912,9.912,0,0,0-3.944.432c-5.475,1.138-10.011-.834-10.757-7.641a11.425,11.425,0,0,1,.311-4.539c1.541-4.907,6.005-7.112,11.134-5.038,1.726.7,1.742.677,1.764-1.272.015-1.317-.085-2.643.049-3.946a2.417,2.417,0,0,1,.908-1.587c1.189-.792,2.381-.1,2.4,1.373C70.235,196.453,70.2,199.965,70.205,203.477Zm-3.1,3.408-.3-.077c0-.656.042-1.315-.008-1.968a5.988,5.988,0,0,0-3.273-4.142,5.646,5.646,0,0,0-5.565,1.938c-1.432,2.213-1.466,6.279.311,8.339,2.473,2.864,5.592,2.871,7.637-.126C66.657,209.762,66.731,208.219,67.109,206.885Z"/>
    <path d="M197.7,169.1c0,3.185.026,6.371-.007,9.557-.024,2.245-.861,2.823-2.746,1.673a1.556,1.556,0,0,0-1.874-.029c-5.371,2.39-11.015-.011-11.938-6.712a11.8,11.8,0,0,1,.53-5.5,7.712,7.712,0,0,1,10.306-4.694c.2.081.413.146.616.229,1.681.695,1.7.7,1.737-1.23.028-1.318-.032-2.638.021-3.954.054-1.345.385-1.515,1.9-1.531,1.207-.014,1.469.6,1.462,1.64C197.679,162.071,197.694,165.586,197.7,169.1Zm-3.378,2.858h-.033a21.158,21.158,0,0,0-.013-2.3c-.306-2.783-3.846-4.568-6.421-3.5-2.8,1.163-4.476,6.123-2.484,9.329a4.907,4.907,0,0,0,5.448,2.571c2.185-.421,3.348-1.9,3.5-4.466C194.344,173.056,194.317,172.507,194.317,171.96Z"/>
    <path d="M35.864,166.177c0,2.087-.081,4.178.017,6.26.223,4.708-2.6,7.751-6.751,8.728a12.194,12.194,0,0,1-8.846-1.229,6.939,6.939,0,0,1-3.677-6.2c-.072-5.052-.051-10.106-.02-15.158.009-1.516.246-1.668,1.749-1.649,1.457.018,1.649.152,1.662,1.739.036,4.284.1,8.57-.007,12.852-.151,6.136,4.93,7.385,8.936,6.332,2.617-.688,3.36-2.95,3.478-5.354s.027-4.832.027-7.249c0-2.2-.045-4.4.034-6.59.02-.556.315-1.431.7-1.571a3.537,3.537,0,0,1,2.217.079c.29.1.451.929.46,1.43C35.887,161.123,35.863,163.65,35.864,166.177Z"/>
    <path d="M137.744,200.642c-1.8-.143-3.292.346-3.963,2.174-.394,1.075-1.172,1.144-2.091,1.106-1.372-.058-1.689-.545-1.173-1.9a6.253,6.253,0,0,1,5.217-4.275,16.947,16.947,0,0,1,5.42.237c1.917.237,3.531,2.573,3.6,4.921.076,2.527-.012,5.058.033,7.586.018,1.021-.4,2.186.99,2.86.31.151.439,1.3.2,1.761-.214.411-1.031.63-1.61.7a3.841,3.841,0,0,1-1.919-.234c-1.9-.843-1.868-.842-3.47-.216a8.91,8.91,0,0,1-6.094.1,4.541,4.541,0,0,1-3.294-4.449,4.424,4.424,0,0,1,2.994-4.629,39.654,39.654,0,0,1,4.71-1.2,10.109,10.109,0,0,0,1.931-.259c.832-.385,2.074-.5,2.071-1.8a2.739,2.739,0,0,0-2.567-2.481C138.406,200.617,138.074,200.642,137.744,200.642ZM136.4,213.075a4.93,4.93,0,0,0,4.992-4.2c.185-1.289-.335-1.8-1.65-1.589-1.268.2-2.533.417-3.8.64s-2.938,1.8-2.893,2.7C133.111,211.928,134.635,213.041,136.4,213.075Z"/>
    <path d="M80.946,172.958c-1.755,0-3.512-.034-5.264.037a1.081,1.081,0,0,0-.709.79c.17,1.947,1.889,3.992,3.5,4.286,2.677.488,4.256-.163,5.52-2.278a2.2,2.2,0,0,1,2.989-.709,1.274,1.274,0,0,1,.275,1.16c-1.1,2.308-2.353,4.237-5.328,4.727a13.458,13.458,0,0,1-5.072-.23,5.575,5.575,0,0,1-3.66-2.609c-2.272-3.8-2.758-9.5,1.183-13.218a7.929,7.929,0,0,1,12.71,2.892,19.853,19.853,0,0,1,.867,3.463c.176,1.015-.209,1.685-1.41,1.662-1.865-.035-3.731-.009-5.6-.009Zm-1.552-2.8c.868,0,1.739.045,2.6-.015a15.236,15.236,0,0,0,1.849-.351,6.582,6.582,0,0,0-.533-2.085c-1.605-2.412-5.962-2.45-7.455-.063a8.561,8.561,0,0,0-.654,2.345c.637.056,1.273.139,1.912.163C77.874,170.177,78.634,170.155,79.394,170.155Z"/>
    <path d="M166.554,203.213c0-3.3-.026-6.6.01-9.9.019-1.854.2-2.008,1.77-1.97,1.414.034,1.544.152,1.592,1.831.04,1.429-.022,2.861.023,4.29a20.842,20.842,0,0,0,.281,2.141,9.568,9.568,0,0,1,1.546-1.2,7.707,7.707,0,0,1,7.717.405,3.782,3.782,0,0,1,1.665,3.409c.022,3.851,0,7.7.022,11.553,0,.922-.316,1.407-1.319,1.446-1.2.047-1.515-.562-1.488-1.616.034-1.319.073-2.645-.01-3.96-.131-2.062-.294-4.126-.568-6.173-.387-2.888-3.352-3.982-5.658-2.115a5.434,5.434,0,0,0-2.216,4.546c.06,2.53.045,5.062,0,7.592a1.685,1.685,0,0,1-2.644,1.564,2.109,2.109,0,0,1-.693-1.6C166.523,210.036,166.554,206.624,166.554,203.213Z"/>
    <path d="M91.088,215.848c-5.173-.021-8.541-3.574-8.433-9.1.131-6.723,3.548-8.941,8.661-9.265,4.8-.3,8.634,4.273,8.567,9.529C99.827,211.427,96.383,216.6,91.088,215.848Zm-5.344-9a26,26,0,0,0,1.443,3.869,4.637,4.637,0,0,0,6.743,1.376c2.622-1.864,3.8-7.521.049-10.487-1.856-1.469-5.093-1.345-6.382.595A8.635,8.635,0,0,0,85.744,206.846Z"/>
    <path d="M216.936,172.143a7.421,7.421,0,0,1-3.013,7.248,8.543,8.543,0,0,1-9.174.978,7.324,7.324,0,0,1-4.543-6.987,14.913,14.913,0,0,1,.174-4.585c.752-2.435,2.109-4.51,4.833-5.388,4.252-1.372,9.659-.4,11.389,5.157A17.044,17.044,0,0,1,216.936,172.143Zm-3.49.81c0-1.339.037-1.891-.006-2.438a4.909,4.909,0,0,0-9.815-.1,17.594,17.594,0,0,0,.013,3.294,5.216,5.216,0,0,0,3.851,4.379c2.685.366,4.454-.565,5.488-3.059A8.573,8.573,0,0,0,213.446,172.953Z"/>
    <path d="M146.052,172.067c0-2.088-.023-4.176.006-6.263.03-2.245,1.187-3.1,2.983-1.892.806.54.989.626,1.675.065,1.672-1.369,3.712-1.238,5.662-1.009a4.794,4.794,0,0,1,4.237,4.4c.16,4.059.05,8.129.056,12.195,0,1.025-.6,1.284-1.5,1.261s-1.839.073-1.841-1.246c0-3.627.04-7.254-.032-10.879a2.869,2.869,0,0,0-3.762-2.852c-2.788.664-4.032,2.158-4.09,5.094-.056,2.746.018,5.494-.029,8.241-.026,1.5-.276,1.632-1.77,1.649-1.077.013-1.626-.342-1.6-1.51.044-2.417.014-4.835.014-7.252Z"/>
    <path d="M193.691,207.131c-.055,1.647-.119,3.22,1.366,4.5,2.7,2.324,5.566,1.8,7.165-1.481.714-1.464,1.456-1.93,2.751-1.54a1.049,1.049,0,0,1,.854,1.423c-.7,3.267-2.688,5.185-6.625,5.813-6.628,1.057-10.568-5.492-9.046-11,.115-.418.07-.878.178-1.3,1.052-4.112,4.788-6.328,9.146-5.793a7.5,7.5,0,0,1,4.185,1.562,7.9,7.9,0,0,1,1.578,2.015,1.769,1.769,0,0,1-.086,2.4,2.288,2.288,0,0,1-3.027-.83c-.9-1.889-2.378-2.4-4.3-2.266a4.057,4.057,0,0,0-4.127,3.865A23.166,23.166,0,0,0,193.691,207.131Z"/>
    <path d="M275.209,215.848c-5.321.069-7.812-3.111-8.255-7.8a11.128,11.128,0,0,1,.058-3.287c1.4-6.674,5.871-8.03,11.786-6.5a5.382,5.382,0,0,1,3.509,3.252c.347.789,1.028,1.616,0,2.3a2.617,2.617,0,0,1-2.873-.714c-2.239-2.647-4.349-3.166-6.735-1.759-1.609.948-2.027,2.563-2.291,4.148a7.542,7.542,0,0,0,1.038,5.352,4.245,4.245,0,0,0,7.452.109c.282-.466.451-1,.735-1.463a1.957,1.957,0,0,1,2.588-.816c1.012.449.695,1.443.39,2.279A7.456,7.456,0,0,1,275.209,215.848Z"/>
    <path d="M39.1,172.053c0-2.087-.023-4.174.005-6.26.031-2.221,1.293-3.138,2.985-1.853.877.666,1,.439,1.668.032a7.01,7.01,0,0,1,8.75.728,3.487,3.487,0,0,1,1.2,2.588c-.028,4.063.024,8.127-.012,12.19-.01,1.108-.613,1.457-1.729,1.328-.87-.1-1.047-.653-1.05-1.362-.009-2.636.01-5.272-.023-7.908a17.021,17.021,0,0,0-.234-2.6,3.594,3.594,0,0,0-2.813-3.217c-1.2-.284-3.911.876-4.5,2.13a9.37,9.37,0,0,0-.85,3.423c-.124,2.52-.011,5.05-.05,7.576-.028,1.836-.223,2.008-1.775,1.966-1.381-.036-1.537-.174-1.564-1.844C39.067,176.666,39.1,174.359,39.1,172.053Z"/>
    <path d="M253.092,207.762c0-1.648.012-3.3-.005-4.944-.011-.991.4-2.236-1.544-1.76-.661.162-1.144-.822-1.143-1.707,0-.939.348-1.483,1.332-1.428,1.272.071,1.39-.714,1.365-1.693-.1-3.921,2.37-5.252,6.057-4.934.778.067,1.186.415,1.216,1.222.033.883-.208,1.389-1.217,1.558-2.677.45-2.637.507-2.695,2.291-.036,1.1.338,1.5,1.492,1.587,1.715.124,1.87.457,1.825,1.9-.03.955-.443,1.282-1.383,1.412-1.885.262-1.9.332-1.916,2.092q-.033,5.109,0,10.217c.007,1.033-.255,1.657-1.461,1.646-1.517-.013-1.869-.186-1.9-1.527-.052-1.976-.013-3.954-.013-5.931Z"/>
    <path d="M243.17,207.715c0-1.76-.068-3.523.022-5.278.067-1.325-.291-1.747-1.621-1.277-.216.076-.964-.572-1-.932-.079-.781-.478-2.154.7-2.163,2.1-.016,1.818-1.266,1.927-2.6.285-3.5,2.826-4.463,5.825-4.133.208.023.511.082.59.224a4.284,4.284,0,0,1,.71,1.686c.013.25-.724.726-1.158.777-.979.116-2.119-.094-2.476,1.12a3.545,3.545,0,0,0,.033,2.246c.157.36,1.106.446,1.715.52.7.084,1.434.183,1.347,1.036a4.545,4.545,0,0,1-.78,1.988c-.176.262-.8.308-1.217.306-1.068,0-1.242.617-1.238,1.5.017,3.519-.029,7.039.017,10.557.024,1.892-.39,1.96-2.174,1.913a1.088,1.088,0,0,1-1.213-1.213q.006-3.133,0-6.268Z"/>
    <path d="M68.608,180.812c-2.751.017-4.249-1.3-4.377-4.117-.12-2.628-.02-5.265-.032-7.9-.006-1.281.363-2.772-1.846-2.61-.882.064-.911-.882-.782-1.487.09-.422.593-1.094.882-1.08,1.885.094,1.808-1.115,1.754-2.379-.023-.547.014-1.1,0-1.645-.033-1.266.8-1.335,1.754-1.351,1.053-.019,1.7.3,1.613,1.482a11.348,11.348,0,0,0,0,1.317c.087,1.926.069,2.032,2.132,2.448,1.293.261,1.218,1.025,1.108,1.918s-.847.93-1.489.858c-1.553-.175-1.817.646-1.772,1.954.07,2.083.113,4.175-.009,6.253-.117,1.971.187,3.443,2.544,3.66.914.084.764.917.772,1.546.011.835-.5,1.136-1.268,1.132C69.267,180.81,68.938,180.812,68.608,180.812Z"/>
    <path d="M73.381,206.338c0-2.086-.051-4.174.026-6.257.026-.693.176-1.75.617-1.983a1.714,1.714,0,0,1,2.511.783c.388.918.643.845,1.337.281a7.8,7.8,0,0,1,2.291-1.216c2.057-.733,2.8-.088,2.573,2.091-.08.78-.439,1.083-1.215,1.237-3.356.667-4.68,2.2-4.755,5.5-.055,2.414.012,4.83-.036,7.244-.015.764-.2,1.692-1.271,1.4-.815-.221-2.169.054-2.073-1.508.007-.109,0-.219,0-.329Q73.382,209.961,73.381,206.338Z"/>
    <path d="M120.279,206.617c0-2.421.012-4.842-.006-7.263-.007-.927.333-1.426,1.332-1.439.935-.012,1.479.314,1.449,1.31-.038,1.277.423,1.367,1.137.424a5.734,5.734,0,0,1,3.968-2.011,1.052,1.052,0,0,1,1.4.921,3.69,3.69,0,0,1-.2,2.22c-.216.381-1.148.382-1.769.507a4.4,4.4,0,0,0-3.9,4.5c-.077,2.2-.018,4.4-.034,6.6-.018,2.646-.1,2.772-1.614,2.816-1.631.048-1.737-.094-1.76-2.646-.018-1.981,0-3.962,0-5.943Z"/>
    <path d="M184.372,206.2c0-2.305.018-4.609-.007-6.914-.013-1.243.747-1.372,1.726-1.379,1.025-.007,1.669.241,1.662,1.447q-.042,7.244,0,14.487c0,1.247-.753,1.373-1.727,1.38-1.02.007-1.679-.242-1.661-1.449C184.4,211.246,184.371,208.721,184.372,206.2Z"/>
    <path d="M60.257,172.208c0,2.411-.02,4.823.007,7.234.013,1.235-.725,1.384-1.713,1.389-1.031.006-1.658-.257-1.651-1.455q.042-7.234,0-14.469c-.005-1.234.729-1.389,1.713-1.394,1.027,0,1.67.264,1.651,1.461C60.231,167.384,60.257,169.8,60.257,172.208Z"/>
    <path d="M264.415,206.757c0,2.3-.027,4.594.011,6.89.017,1.09-.374,1.609-1.523,1.564-1-.039-1.3-.543-1.3-1.454.016-2.843,0-5.686,0-8.53,0-1.859.011-3.718,0-5.577-.007-.951.091-1.718,1.354-1.741,1.207-.022,1.476.607,1.466,1.631C264.4,201.945,264.415,204.351,264.415,206.757Z"/>
    <path d="M142.874,172.28c0,2.407,0,4.814,0,7.221,0,.977-.493,1.325-1.431,1.319-.968,0-1.374-.436-1.372-1.381q.013-7.221,0-14.442c0-.9.257-1.439,1.274-1.477,1.123-.043,1.567.422,1.548,1.54-.041,2.406-.013,4.813-.013,7.22Z"/>
    <path d="M184.366,193.021c.062-1.514.407-1.8,2.022-1.678,1.253.095,1.436.41,1.357,2.339-.062,1.508-.415,1.8-2.021,1.678C184.469,195.264,184.287,194.95,184.366,193.021Z"/>
    <path d="M264.419,193.4c-.008,1.666-.2,1.943-1.385,1.956-1.069.012-1.756-.881-1.888-2.451-.081-.954.729-1.595,1.966-1.556C264.223,191.382,264.427,191.7,264.419,193.4Z"/>
    <path d="M58.457,156.933c1.469-.049,1.761.209,1.8,1.593.045,1.509-.2,1.8-1.548,1.85-1.446.051-1.761-.228-1.8-1.595C56.865,157.27,57.109,156.978,58.457,156.933Z"/>
    <path d="M142.879,158.493c-.035.843.172,1.8-1.16,1.884-1.263.076-1.631-.291-1.653-1.726-.015-.946.075-1.73,1.331-1.722C142.544,156.937,142.839,157.2,142.879,158.493Z"/>
    <path d="M51.643,143.124c-.012.209.049.465-.049.619-.27.421-.607.8-.918,1.194-.329-.374-.682-.73-.974-1.131-.11-.15-.076-.406-.107-.613l.146-.113a1.577,1.577,0,0,0,1.912.052Z"/>
    <path d="M56.926,98.219l1.364-.653c.665.242.542.452-.027.643Z"/>
    <path d="M38.468,111.913c-.068-1.753.361-3.146-1.741-3.4-.63-.076-1.48-1.39-1.576-2.213a4.238,4.238,0,0,0-2.562-3.458c-1.131-.617-.993-1.519.191-2.125a2.879,2.879,0,0,1,.886-.41c.784-.09,1.7,1.029,2.333-.114a7.683,7.683,0,0,0,.447-2.177c.3-1.528,2.13-3.113,3.462-3.005a3.508,3.508,0,0,1,3.057,3.932c-.278,1.176.028,1.265.922,1.323a9.782,9.782,0,0,1,2.423.274,2.407,2.407,0,0,1,1.348,1.186c.339.825-.477,1.113-1.075,1.34-1.108.42-2.241.777-3.37,1.139-.2.064-.5-.066-.646.042a4.059,4.059,0,0,0-1.336,1.229c-.325.7.18,1.159.868,1.488,1.056.5,2.225.855,2.354,2.419a4.141,4.141,0,0,1-1.645,4.038,2.1,2.1,0,0,0-.466.466c-.4.569-1.48.837-.974,1.816.346.667,1.768.213,2.475-.808a9.129,9.129,0,0,0,.493-1.175,11.491,11.491,0,0,1,1.372-2.555c.589-.671,1.09-2.035,2.222-1.465.438.22.482,1.611.383,2.429-.192,1.588-.524,3.115-2.437,3.748a9.384,9.384,0,0,0-2.651,1.78c-3.108,2.488-5.819,1.057-8.5-.8-.688-.477-1.365-.969-2.054-1.444-1.219-.84-2.042-4.349-1.262-5.616.091-.148.761-.168.792-.093.712,1.714,2.834,2.436,3.067,4.537.094.846.718,1.148,1.651.429C38.05,113.8,38.984,113,38.468,111.913Zm1.952-9.735c.966-.52.635-1.29.3-1.965a6.308,6.308,0,0,0-.991-1.175,9.45,9.45,0,0,0,.134,1.286c.148.626.369,1.236.559,1.852-.244.328-.487.656-.733.983a3.589,3.589,0,0,0-.578.788,6.8,6.8,0,0,0-.231,1.222c.5-.67,1.046-1.314,1.487-2.022C40.513,102.906,40.408,102.505,40.42,102.178Zm.741,6.583c0,.919-.016,1.524.021,2.125,0,.07.3.122.464.182A5.485,5.485,0,0,0,42.1,109.7C42.117,109.494,41.68,109.257,41.161,108.761Zm5.209,4.445.485-1.344c-.156,0-.4-.071-.453,0a6.72,6.72,0,0,0-.575,1.017C45.821,112.892,46.077,113.031,46.37,113.206ZM39.789,96.961l.9-.468a2.884,2.884,0,0,0-.9-.214,4.274,4.274,0,0,0-1.012.343Zm-6.871,15.3c-.127.181-.317.359-.284.42a2.129,2.129,0,0,0,.5.609c.036.031.262-.157.4-.244ZM37.4,97.84a3.111,3.111,0,0,0-.179.535c-.01.062.116.145.18.219.09-.131.24-.258.25-.395C37.657,98.089,37.494,97.968,37.4,97.84Zm1.982,18.6a3.081,3.081,0,0,0,.539.178c.062.01.145-.117.219-.181-.132-.089-.26-.238-.4-.247C39.631,116.177,39.509,116.339,39.38,116.435Z"/>
    <path d="M39.758,121.826c-.051,2.906-1.085,3.821-3.381,3.556a1.615,1.615,0,0,1-1.542-1.422,19.374,19.374,0,0,1-.008-3.095c.475.067,1.249-.011,1.365.229a11.651,11.651,0,0,1,.307,1.884c.091.33.5.844.7.813a1.74,1.74,0,0,0,.953-.731c.171-.237.1-.633.206-.936.158-.464.371-.908.561-1.361Z"/>
    <path d="M40.425,123.059a10.492,10.492,0,0,1,.026-1.617c.038-.245.319-.487.545-.659.8-.608.572,1.648,1.656.585a4.247,4.247,0,0,1,1.7-.674,1.759,1.759,0,0,1,.292.623c-1.319,1.067-1.6,2.113-.055,3.228a.8.8,0,0,1,.139.517,1.632,1.632,0,0,1-.879.241,5.4,5.4,0,0,1-1.11-.593c-.251-.133-.517-.353-.771-.346C40.378,124.407,40.378,124.424,40.425,123.059Z"/>
    <path d="M29.85,101.877a2.833,2.833,0,0,1-2.417,2.273,2.773,2.773,0,0,1-2.169-2.5A3,3,0,0,1,27.5,99.546,2.808,2.808,0,0,1,29.85,101.877Zm-.931-.185c-.74-.358-1.142-.7-1.544-.7-.255,0-.773.617-.711.764.165.4.552.918.9.959C27.879,102.756,28.261,102.221,28.919,101.692Z"/>
    <path d="M29.845,95.566c2.309.91,2.606,1.882,1.055,3.324a1.612,1.612,0,0,1-2.046.2c-1.064-.473-1.045-1.268-1.033-2.155.013-.964.334-1.736,1.378-1.912.183-.031.436.358.657.553-.5.564-2.075.769-.666,1.977a2.943,2.943,0,0,0,.6.532c.1.048.315-.143.478-.225a2.366,2.366,0,0,0-.49-.271,2.692,2.692,0,0,0-.585-.036Z"/>
    <path d="M54.3,102.514a2.858,2.858,0,0,1-2.063,2.217,3.126,3.126,0,0,1-2.339-2.307,2.582,2.582,0,0,1,2.051-2.222A2.83,2.83,0,0,1,54.3,102.514Zm-.942.239c-.637-.574-.931-1.014-1.319-1.125-.238-.069-.9.4-.882.568a1.57,1.57,0,0,0,.632,1.147C52.082,103.463,52.589,103.066,53.355,102.753Z"/>
    <path d="M26.771,112.125c-1.322,0-2.165-.578-2.105-1.451a2.2,2.2,0,0,1,2.129-1.953,2.168,2.168,0,0,1,2.291,2.123C29.023,111.6,28.082,112.122,26.771,112.125Zm1.266-1.892c-.807-.329-1.214-.651-1.513-.57-.256.069-.524.588-.548.925-.049.673.381.585.809.342C27.079,110.763,27.375,110.6,28.037,110.233Z"/>
    <path d="M35.149,94.262c-.658.458-1.291.958-1.984,1.354a1.092,1.092,0,0,1-.953.028A7.366,7.366,0,0,1,31.046,94.5c-.493-.524-.743-1.064-.124-1.69.738-.747,1.516-.826,2.155.074.545.768,1.03,1.393,2.043,1.352Z"/>
    <path d="M43.831,90.4a1.78,1.78,0,0,1,.473.36c.393.611.47,2.046,1.585.546.167.175.509.408.474.514a18.233,18.233,0,0,1-.96,2.369c-.11.221-.495.3-.753.451-.031-.289-.085-.578-.088-.867-.016-1.46,0-1.451-1.27-.755a9.579,9.579,0,0,1-1.1.444,4.824,4.824,0,0,1,.177-1.129,11.738,11.738,0,0,1,.9-1.717C43.354,90.483,43.638,90.471,43.831,90.4Z"/>
    <path d="M30.207,116.185a3.441,3.441,0,0,1-.3.809c-.877,1.276-.341,1.458.884,1.218a2.421,2.421,0,0,1,.86.16c-.175.332-.269.775-.542.973a10.578,10.578,0,0,1-1.726.909c-.849.4-.874.01-.7-.7a1.984,1.984,0,0,0-.106-1.1c-.218-.567-1.686.455-1.213-.641.359-.834,1.577-1.3,2.412-1.928Z"/>
    <path d="M48.316,117.355c1.1-.027,3.185,1.669,3.091,2.416-.061.49-.527.928-.812,1.39-.369-.285-.757-.548-1.1-.86-.513-.466-.508-1.778-1.758-1.037-.09.053-.345-.172-.524-.267Z"/>
    <path d="M26.891,105.173a3.013,3.013,0,0,1,1.083-.227.809.809,0,0,1,.411.655c-.02.479-1.491.787-.156,1.443-.094.14-.181.395-.285.4-.65.048-1.3.049-1.955.048-.686,0-1.339-.1-1.413-.969a1.538,1.538,0,0,1,1.6-1.611A1.868,1.868,0,0,1,26.891,105.173Z"/>
    <path d="M53.766,116.055c-.507.607-.836,1.034-1.2,1.425a2.355,2.355,0,0,1-.559.33,2.375,2.375,0,0,1-.2-.812c.038-.308.416-.671.33-.875a6.338,6.338,0,0,0-.894-1.24,6.044,6.044,0,0,0-.868.741c-.193.237-.222.608-.413.849a.615.615,0,0,1-.583.062.664.664,0,0,1-.32-.515,2.558,2.558,0,0,1,.3-1.22,1.936,1.936,0,0,1,2.631-.58A8.587,8.587,0,0,1,53.766,116.055Z"/>
    <path d="M39.046,91.187c0-.217-.013-.435,0-.651.046-.634-.02-1.527.843-1.45a2.69,2.69,0,0,1,1.76,1.071c.364.539.069,1.239-.7,1.533a4.544,4.544,0,0,0-.81.53c-.264.173-.532.341-.8.512a8.748,8.748,0,0,1-.282-.895,3.2,3.2,0,0,1-.008-.65Z"/>
    <path d="M35.12,94.236a9.218,9.218,0,0,1-.03-1.3c.113-1.009.278-2.012.422-3.018.8.706,1.638,1.376,2.386,2.135.248.252.269.728.394,1.1A6.136,6.136,0,0,1,37.148,93c-1.21-.406-1.169,1.11-2,1.265Z"/>
    <path d="M49.47,98.519c-.1.1-.163.22-.246.232a1.065,1.065,0,0,1-.6-.005,1.907,1.907,0,0,1-.88-2.507,2.629,2.629,0,0,1,1.58-1.314,1.766,1.766,0,0,1,2.272,1.285,2.436,2.436,0,0,1-.078.919,7.519,7.519,0,0,1-.748-.174c-.087-.029-.144-.155-.211-.24-.358-.452-.487-1.371-1.378-.824-.762.468-1,1.107-.273,1.857A6.85,6.85,0,0,1,49.47,98.519Z"/>
    <path d="M52.879,105.422c.412.037,1.15-.113,1.45.182a2.375,2.375,0,0,1,.567,1.7c-.08,1.07-.732.213-1.15.23-.875.037-1.3-.542-1.819-1.086-.153-.16-.881.421-.813-.385.018-.206.393-.457.653-.549A4.488,4.488,0,0,1,52.879,105.422Z"/>
    <path d="M52.04,108.738c2.2.025,2.83.424,2.837,1.772,0,.263-.575.793-.756.742-.493-.139-.815-1.371-1.451-.122-.3-.415-.612-.828-.914-1.245-.188-.259-.368-.525-.551-.788Z"/>
    <path d="M29.5,114.1c-.935.618-1.89,1.265-2.87,1.87-.092.056-.347-.152-.526-.238.388-.74.507-1.407-.465-1.807a1.046,1.046,0,0,1,.1-.427c1.212-.011,2.423,0,3.634.037A2.376,2.376,0,0,1,29.5,114.1Z"/>
    <path d="M48.4,93.19a3.145,3.145,0,0,1-1.884,2.3c-.12.069-.373-.073-.554-.145-.033-.014-.049-.189-.01-.246.533-.78,1.064-1.562,1.629-2.318a.569.569,0,0,1,.511-.174C48.236,92.692,48.281,92.947,48.4,93.19Z"/>
    <path d="M50.71,111.721c.948.213,1.893.383,2.807.66.237.072.374.478.557.731-.291.1-.622.348-.864.28-.914-.258-1.8-.614-2.691-.95-.054-.02-.1-.208-.068-.286A2.687,2.687,0,0,1,50.71,111.721Z"/>
    <path d="M46.268,123.693c-.51-.528-.975-.806-1.065-1.176-.057-.233.447-.6.7-.911a4.322,4.322,0,0,1,1.02.936C47.01,122.7,46.6,123.134,46.268,123.693Z"/>
    <path d="M33.329,122.542c-.337.311-.536.639-.746.647s-.437-.3-.656-.472c.17-.219.312-.573.52-.618S32.925,122.323,33.329,122.542Z"/>
    <path d="M58.889,116.068c-.18-.294-.365-.585-.528-.888-.013-.024.134-.133.206-.2l.37,1.046Z"/>
    <path d="M17.37,105.279l1.607,1.428-1.131,1.09c-.3-.573-.635-1.132-.881-1.727C16.909,105.936,17.156,105.678,17.37,105.279Z"/>
    <path d="M24.571,125.3c0-.518-.035-1.041.016-1.554a3.391,3.391,0,0,1,.31-.828c.108.275.352.584.294.819a10.457,10.457,0,0,1-.629,1.555Z"/>
    <path d="M19.953,116.7l.36-1.161.958.517Z"/>
    <path d="M57.6,122.645c.894,1.542-.485,1.571-1.31,1.969C56.211,123.615,56.022,122.543,57.6,122.645Z"/>
    <path d="M56.937,125.961c.291-.185.58-.376.881-.544.022-.013.134.135.205.208l-1.1.324Z"/>
    <path d="M27.211,88.3,27.2,89.618c-.333.259-.972.55-.948.772.165,1.566-.9,1.22-1.751,1.225l.064-1.992,1.32-.662Z"/>
    <path d="M17.307,120.018c.291-.186.58-.378.881-.546.023-.013.135.135.206.208l-1.1.324Z"/>
    <path d="M21.932,125.961H20.6C21.04,125.073,21.485,125.06,21.932,125.961Z"/>
    <path d="M21.271,98.208v.674l-1.988.652-.008-2.649h1.336Z"/>
    <path d="M22.589,98.216l-1.333,0C21.7,97.347,22.142,97.391,22.589,98.216Z"/>
  </g>
</svg>
