<svg xmlns="http://www.w3.org/2000/svg" viewBox="0 0 300 300">
  <title>exp</title>
  <g>
    <path d="M178.157,156.911c10.368,0,18.681-7.777,18.681-18.035s-8.316-18.038-18.681-18.038-18.684,7.777-18.684,18.038,8.316,18.035,18.684,18.035m0-26.687a8.652,8.652,0,1,1-8.734,8.652,8.745,8.745,0,0,1,8.734-8.652"/>
    <path d="M224.528,144.536c3.347-2.3,6-5.709,6-10.353,0-7.223-5.813-12.562-13.159-12.562H201.519v34.51H211v-9.389h4.46l4.323,9.389H230.43Zm-7.159-6.305h-6.363v-8.148h6.363c2.142,0,3.537,2.393,3.537,4.1s-1.4,4.051-3.537,4.051"/>
    <rect x="236.279" y="121.621" width="9.484" height="34.51"/>
    <path d="M265.463,121.618l-15.986,34.507h10.164l1.667-3.907h11.861l1.668,3.907H285l-15.979-34.507ZM264.2,144.025l2.947-6.718h.189l2.94,6.718Z"/>
    <path d="M138.416,156.131H147.9V130.086h9.53v-8.465H134.475l22.3-48.106H15l22.434,48.418H47.9l8.584,18.522,8.582-18.522H75.542l-15.7,33.892h-6.7l32.742,70.66L119.377,154.2a17.56,17.56,0,0,1-8.832,2.362c-10.121,0-18.161-7.636-18.161-17.714s8.04-17.713,18.161-17.713a17.669,17.669,0,0,1,15.183,8.63l-7.908,4.745a8.6,8.6,0,0,0-7.275-4.157,8.5,8.5,0,1,0,7.275,12.834l5.21,3.126,7.52-16.227h7.86v26.048Zm-50.343-.306H78.394V121.933h9.679Z"/>
    <path d="M144.036,184.617a9.116,9.116,0,0,1-5.5-1.86l-1.793,2.769a12,12,0,0,0,7.275,2.254c3.715,0,7.065-1.808,7.065-5.62,0-3.007-2.414-4.323-5.5-4.831l-.973-.159c-2.074-.348-3.564-.725-3.564-2,0-1.307,1.364-2.069,3.3-2.069a9.246,9.246,0,0,1,4.895,1.466l1.628-2.812a12.175,12.175,0,0,0-6.593-1.832c-3.678,0-6.881,1.869-6.881,5.467,0,3.123,2.218,4.467,5.262,4.944l1.1.174c2.4.383,3.659.829,3.659,2.022,0,1.328-1.474,2.087-3.386,2.087"/>
    <path d="M162.771,186.529l-1.184-2.521a4.584,4.584,0,0,1-2.239.783c-1,0-1.787-.544-1.787-2.034v-4.366h4.32v-2.86h-4.32v-3.549H154.34v3.549h-2.307v2.86h2.307v4.623c0,3.093,1.511,4.769,4.476,4.769a6.683,6.683,0,0,0,3.955-1.254"/>
    <path d="M175.838,187.477V175.534h-3.145v1.312a4.379,4.379,0,0,0-3.576-1.634c-3.289,0-5.78,2.7-5.78,6.287s2.488,6.287,5.78,6.287a4.4,4.4,0,0,0,3.576-1.618v1.316h3.145Zm-6.125-2.689a3.3,3.3,0,1,1,3.078-3.292,3.077,3.077,0,0,1-3.078,3.292"/>
    <path d="M184.319,187.783a6.682,6.682,0,0,0,3.955-1.251l-1.184-2.518a4.611,4.611,0,0,1-2.245.78c-1,0-1.787-.547-1.787-2.034v-4.369h4.332v-2.86h-4.332v-3.549h-3.215v3.549h-2.307v2.86h2.307v4.626c0,3.09,1.517,4.766,4.476,4.766"/>
    <path d="M198.248,183.9a4.819,4.819,0,0,1-3.023,1.153,2.888,2.888,0,0,1-3.068-2.484h8.471a8.07,8.07,0,0,0,.061-1.083c-.012-3.723-2.364-6.275-5.8-6.275-3.58,0-6.042,2.564-6.042,6.324a5.9,5.9,0,0,0,6.2,6.247,7.254,7.254,0,0,0,5.091-1.808Zm-3.39-5.914a2.588,2.588,0,0,1,2.6,2.39h-5.29a2.6,2.6,0,0,1,2.689-2.39"/>
    <path d="M146.18,200.085v2.87h4.388c-.456,2.457-2.1,3.815-4.905,3.815-2.989,0-5.387-2.209-5.387-5.733a5.527,5.527,0,0,1,9.615-3.873l2.478-2.427a9.05,9.05,0,1,0-6.632,15.236c4.9,0,8.434-3.677,8.434-8.909a8.735,8.735,0,0,0-.052-.973H146.18Z"/>
    <path d="M162.242,197.4a6.29,6.29,0,1,0,6.474,6.287,6.2,6.2,0,0,0-6.474-6.287m0,9.582a3.292,3.292,0,1,1,3.182-3.3,3.119,3.119,0,0,1-3.182,3.3"/>
    <polygon points="175.627 206.274 172.531 197.717 169.034 197.717 173.755 209.664 177.466 209.664 182.137 197.717 178.748 197.717 175.627 206.274"/>
    <path d="M188.51,197.4c-3.576,0-6.045,2.567-6.045,6.324a5.907,5.907,0,0,0,6.2,6.247,7.231,7.231,0,0,0,5.088-1.808l-1.888-2.074a4.825,4.825,0,0,1-3.016,1.15,2.886,2.886,0,0,1-3.072-2.475h8.475a9.58,9.58,0,0,0,.061-1.089c-.016-3.723-2.368-6.275-5.807-6.275m-2.714,5.167a2.657,2.657,0,0,1,5.287,0Z"/>
    <path d="M199.564,199.024v-1.31h-3.121v11.947h3.219v-6.5a2.39,2.39,0,0,1,2.514-2.7,5.208,5.208,0,0,1,1.949.385l.477-3.191a4.82,4.82,0,0,0-1.673-.263,3.788,3.788,0,0,0-3.365,1.631"/>
    <path d="M212.951,197.4a4.011,4.011,0,0,0-3.512,1.719v-1.4H206.31v11.947h3.218v-6.547a2.451,2.451,0,0,1,2.53-2.7c1.466,0,2.328.948,2.328,2.68v6.565h3.219v-7.606a4.453,4.453,0,0,0-4.654-4.656"/>
    <path d="M235.028,197.4a4.5,4.5,0,0,0-4.057,2.05,4.521,4.521,0,0,0-3.943-2.05,4.024,4.024,0,0,0-3.516,1.719v-1.4h-3.129v11.947H223.6v-6.547a2.451,2.451,0,0,1,2.527-2.7c1.469,0,2.332.948,2.332,2.68v6.565h3.221v-6.547a2.448,2.448,0,0,1,2.521-2.7c1.459,0,2.331.948,2.331,2.68v6.565h3.206v-7.606a4.448,4.448,0,0,0-4.714-4.653"/>
    <path d="M247.825,197.4c-3.576,0-6.048,2.567-6.048,6.324a5.91,5.91,0,0,0,6.2,6.247,7.263,7.263,0,0,0,5.1-1.808l-1.887-2.074a4.836,4.836,0,0,1-3.017,1.15,2.879,2.879,0,0,1-3.071-2.475h8.468a9.354,9.354,0,0,0,.061-1.089c-.015-3.723-2.368-6.275-5.8-6.275m-2.713,5.167a2.658,2.658,0,0,1,5.289,0Z"/>
    <path d="M262.4,197.4a4.015,4.015,0,0,0-3.512,1.719v-1.4h-3.13v11.947h3.222v-6.547a2.448,2.448,0,0,1,2.527-2.7c1.465,0,2.331.948,2.331,2.68v6.565h3.216v-7.606A4.453,4.453,0,0,0,262.4,197.4"/>
    <path d="M275.843,206.978c-1,0-1.793-.545-1.793-2.034v-4.366h4.326V197.72H274.05v-3.552h-3.215v3.552h-2.307v2.858h2.307V205.2c0,3.1,1.518,4.769,4.476,4.769a6.7,6.7,0,0,0,3.956-1.251l-1.184-2.521a4.618,4.618,0,0,1-2.24.78"/>
  </g>
</svg>
