<svg xmlns="http://www.w3.org/2000/svg" viewBox="0 0 300 300">
  <title>exp</title>
  <g>
    <path d="M66.425,165.506c0,5.728-.013,10.809.006,15.891.009,2.246-.128,4.388-2.71,5.417-2.452-.316-3.224-2.032-3.229-4.22-.023-11.325-.321-22.662.107-33.971.324-8.584,8.56-16.683,16.674-17.421,10.974-1,19.284,4.771,22.365,14.271,3.423,10.556-4.529,24.871-18.823,25.51-3.279.146-6.687-1.553-9.954-2.647C69.517,167.885,68.388,166.79,66.425,165.506Zm.046-14.624c.465,9.168,7.035,14.121,13.87,14.137,7.539.017,14.282-6.924,14.019-14.078-.26-7.059-6.139-14.127-14.174-13.8C72.946,137.433,66.4,143.814,66.471,150.882Z"/>
    <path d="M109.888,154.447A12.2,12.2,0,0,0,125,164.7a26.232,26.232,0,0,0,7.327-3.968c2.77-1.907,2.861-2.053,6.266.576-.686,1.316-1.075,3.149-2.206,4.056-7.723,6.195-14.916,7.795-23.953,2.888-9.207-5-11.09-15.224-9.554-21.684a19.583,19.583,0,0,1,18.541-15.407c10.768-.311,18.973,6.361,20.792,16.908.7,4.068-.763,6.009-4.988,6.077-7.325.117-14.654.021-21.981.052C113.466,154.205,111.693,154.359,109.888,154.447Zm25.549-6.356c-2.056-7.462-7.363-11.247-13.984-10.89a12,12,0,0,0-11.636,10.85C118.251,148.213,126.587,148.191,135.437,148.091Z"/>
    <path d="M278,153.417c4.775-.141,5.323.228,5.468,3.994.122,3.157.029,6.321.024,9.483,0,1.722-.159,3.448-2.095,4.1-2.155.728-3.444-.442-4.373-2.271-.2-.4-.685-.655-1.2-1.127-6.335,3.7-12.942,5.209-19.931,1.885a21.341,21.341,0,0,1-10.584-10.751c-4.887-10.594,1.734-23.682,12.281-27.1,9.984-3.237,22.9,1.96,25.714,13.992-2.482,4.011-4.18,4.059-6.649.285a26.865,26.865,0,0,0-3.306-4.332c-6.134-6.145-14.145-5.622-19.991,1.208-4.705,5.5-3.48,14.793,2.5,19.008a13.692,13.692,0,0,0,19.892-4.292C276.5,156.216,277.188,154.9,278,153.417Z"/>
    <path d="M50.42,153.777a11.424,11.424,0,0,1,2.453-.446,8.408,8.408,0,0,1,2.216.859c.331,5.583,1.353,11.2-.68,16.492-3.85.9-4.257-2.007-5.61-3.784-1.073.583-2.075,1.155-3.1,1.681-9.171,4.7-19.689,2.186-25.251-5.81-6.846-9.843-4.233-20.485,3.062-27.045,9.263-8.331,25.411-5.058,30.736,6.1.427.9,1.1,1.913.973,2.773-.17,1.156-.759,2.774-1.627,3.158-.9.4-2.552-.152-3.492-.824-.858-.613-1.157-1.973-1.782-2.952-3.44-5.394-9.3-7.943-14.967-6.544a15.018,15.018,0,0,0-10.79,12.491c-.673,5.738,3.845,12.414,9.626,14.223,6.213,1.944,13.311-.745,16.331-6.241C49.228,156.614,49.761,155.221,50.42,153.777Z"/>
    <path d="M163.958,133.846l3.228-3.887c1.409,1.161,2.909,1.926,3.7,3.148,1.809,2.781,3.294,5.775,4.87,8.705,2.836,5.274,5.634,10.57,8.471,15.844.37.688.874,1.3,1.665,2.464,2.123-4.194,4-7.868,5.847-11.552,2.54-5.057,4.928-10.2,7.641-15.16,2.071-3.79,4.319-3.548,7.032,1.017-5.852,11.524-11.845,23.382-17.937,35.189-.39.757-1.544,1.12-2.8,1.977-1.18-1.207-2.6-2.153-3.326-3.48C176.229,156.875,170.23,145.57,163.958,133.846Z"/>
    <path d="M232.651,131.014c3.019,0,5.135-.02,7.251.007,1.327.017,2.8-.228,3.938.261a4.628,4.628,0,0,1,2.428,2.658,2.525,2.525,0,0,1-2.386,3.168c-2.135.256-4.312.139-6.467.243-1.3.062-2.586.24-4.345.411-.149,1.955-.389,3.718-.4,5.483-.044,7.484.007,14.969-.03,22.453-.02,3.893-.824,5.294-2.916,5.439-2.317.16-3.343-1.422-3.35-5.514q-.04-23.451,0-46.9c.007-4.095,1.024-5.672,3.34-5.527,2.106.133,2.886,1.515,2.927,5.42C232.683,122.409,232.651,126.2,232.651,131.014Z"/>
    <path d="M214.164,172.109c-2.854-.549-3.79-2.311-3.792-4.735q-.014-16.236,0-32.472a4.34,4.34,0,0,1,2.9-4.383c3.327.412,4.108,2.8,4.129,5.688.041,5.661.02,11.323.021,16.985,0,4.33.036,8.66-.026,12.989C217.363,168.562,217.007,170.862,214.164,172.109Z"/>
    <path d="M146.585,171.108a21.3,21.3,0,0,1-1.132-4.611c-.109-7.635-.183-15.275,0-22.906.168-7.13,5.963-12.819,12.241-12.437,2.639.161,4.089,1.2,3.317,4.628-1.081.411-2.4.993-3.765,1.417-4.36,1.351-5.711,2.9-5.782,7.472-.109,6.97-.043,13.943-.038,20.915C151.425,168.261,150.981,170.6,146.585,171.108Z"/>
  </g>
</svg>
