<svg xmlns="http://www.w3.org/2000/svg" viewBox="0 0 16 16">
  <title>social</title>
  <path d="M5.0317,14.5a9.2767,9.2767,0,0,0,9.34-9.34c0-.1421,0-.2836-.01-.4244A6.6766,6.6766,0,0,0,16,3.0367a6.5514,6.5514,0,0,1-1.8854.5165,3.2944,3.2944,0,0,0,1.4432-1.8157,6.5772,6.5772,0,0,1-2.0845.7968A3.2858,3.2858,0,0,0,7.879,5.5283a9.32,9.32,0,0,1-6.7654-3.43A3.2852,3.2852,0,0,0,2.13,6.4806,3.2581,3.2581,0,0,1,.64,6.07v.0416A3.2838,3.2838,0,0,0,3.2736,9.3292a3.2766,3.2766,0,0,1-1.4822.0563,3.2862,3.2862,0,0,0,3.0668,2.28,6.5864,6.5864,0,0,1-4.0768,1.408A6.6916,6.6916,0,0,1,0,13.0259a9.2947,9.2947,0,0,0,5.0317,1.472"/>
</svg>
